<svg xmlns="http://www.w3.org/2000/svg" data-name="Layer 1" width="406" height="58"><rect id="backgroundrect" width="100%" height="100%" x="0" y="0" fill="none" stroke="none" class="" style=""/><defs><style>.cls-1{fill:#865e31;}.cls-2{font-size:31px;fill:#fff;font-family:Arial-BoldMT, Arial;font-weight:700;}.cls-3{font-size:16px;font-family:ArialMT, Arial;font-weight:400;}.cls-4{fill:none;stroke:#fff;stroke-linecap:round;stroke-linejoin:round;stroke-width:1.5px;}</style></defs><title>Art Deco Quotes_V02</title><g class="currentLayer" style=""><title>Layer 1</title><rect class="cls-4" x="304.70001220703125" y="-146.6497039794922" width="40.68000030517578" height="40.68000030517578" transform="rotate(45 76.7900009155273,-196.1797180175781) " id="svg_8"/><rect class="cls-4" x="310.1400146484375" y="-141.19970703125" width="29.790000915527344" height="29.790000915527344" transform="rotate(45 76.7900009155273,-196.1797180175781) " id="svg_9"/><line class="cls-4" x1="199.0699920654297" y1="3.850301504135132" x2="227.8400115966797" y2="32.61030197143555" id="svg_10"/><line class="cls-4" x1="178" y1="32.61030197143555" x2="206.77000427246094" y2="3.850301504135132" id="svg_11"/><line class="cls-4" x1="206.77000427246094" y1="53.680301666259766" x2="178" y2="24.91029930114746" id="svg_12"/><line class="cls-4" x1="227.8400115966797" y1="24.91029930114746" x2="199.0699920654297" y2="53.680301666259766" id="svg_13"/><polyline class="cls-4" points="187.66000366210938,15.25030307043744 147.59999084472656,15.25030307043744 134.38999938964844,28.460309784304627 " id="svg_14"/><line class="cls-4" x1="146.1999969482422" y1="20.230302810668945" x2="151.0699920654297" y2="15.350301742553711" id="svg_15"/><line class="cls-4" x1="150.17999267578125" y1="20.230302810668945" x2="155.05999755859375" y2="15.350301742553711" id="svg_16"/><line class="cls-4" x1="154.1699981689453" y1="20.230302810668945" x2="159.0500030517578" y2="15.350301742553711" id="svg_17"/><line class="cls-4" x1="158.16000366210938" y1="20.230302810668945" x2="163.0399932861328" y2="15.350301742553711" id="svg_18"/><line class="cls-4" x1="162.14999389648438" y1="20.230302810668945" x2="167.02999877929688" y2="15.350301742553711" id="svg_19"/><line class="cls-4" x1="166.13999938964844" y1="20.230302810668945" x2="171.00999450683594" y2="15.350301742553711" id="svg_20"/><line class="cls-4" x1="170.1300048828125" y1="20.230302810668945" x2="175" y2="15.350301742553711" id="svg_21"/><line class="cls-4" x1="174.11000061035156" y1="20.230302810668945" x2="178.99000549316406" y2="15.350301742553711" id="svg_22"/><line class="cls-4" x1="178.09999084472656" y1="20.230302810668945" x2="182.97999572753906" y2="15.350301742553711" id="svg_23"/><line class="cls-4" x1="174.14999389648438" y1="28.760305404663086" x2="0" y2="28.760305404663086" id="svg_24"/><line class="cls-4" x1="178" y1="24.91029930114746" x2="137.94000244140625" y2="24.91029930114746" id="svg_25"/><polyline class="cls-4" points="39.91999816894531,28.460309784304627 48.25999450683594,20.12029818762494 142.6300048828125,20.230298797976502 182.69000244140625,20.230298797976502 " id="svg_26"/><polyline class="cls-4" points="218.1800079345703,15.25030307043744 258.2400207519531,15.25030307043744 271.4499816894531,28.460309784304627 " id="svg_27"/><line class="cls-4" x1="259.6400146484375" y1="20.230302810668945" x2="254.77000427246094" y2="15.350301742553711" id="svg_28"/><line class="cls-4" x1="255.6599884033203" y1="20.230302810668945" x2="250.7799835205078" y2="15.350301742553711" id="svg_29"/><line class="cls-4" x1="251.6699981689453" y1="20.230302810668945" x2="246.7899932861328" y2="15.350301742553711" id="svg_30"/><line class="cls-4" x1="247.6800079345703" y1="20.230302810668945" x2="242.8000030517578" y2="15.350301742553711" id="svg_31"/><line class="cls-4" x1="243.6899871826172" y1="20.230302810668945" x2="238.8100128173828" y2="15.350301742553711" id="svg_32"/><line class="cls-4" x1="239.6999969482422" y1="20.230302810668945" x2="234.8300018310547" y2="15.350301742553711" id="svg_33"/><line class="cls-4" x1="235.7100067138672" y1="20.230302810668945" x2="230.8400115966797" y2="15.350301742553711" id="svg_34"/><line class="cls-4" x1="231.72999572753906" y1="20.230302810668945" x2="226.84999084472656" y2="15.350301742553711" id="svg_35"/><line class="cls-4" x1="227.74000549316406" y1="20.230302810668945" x2="222.86000061035156" y2="15.350301742553711" id="svg_36"/><line class="cls-4" x1="231.6899871826172" y1="28.760305404663086" x2="405.84002685546875" y2="28.760305404663086" id="svg_37"/><line class="cls-4" x1="227.8400115966797" y1="24.91029930114746" x2="267.9000244140625" y2="24.91029930114746" id="svg_38"/><polyline class="cls-4" points="365.91998291015625,28.460309784304627 357.58001708984375,20.12029818762494 263.2200012207031,20.230298797976502 223.15000915527344,20.230298797976502 " id="svg_39"/><polyline class="cls-4" points="187.66000366210938,42.27030734289838 147.59999084472656,42.27030734289838 134.38999938964844,29.070295135867127 " id="svg_40"/><line class="cls-4" x1="146.1999969482422" y1="37.3003044128418" x2="151.0699920654297" y2="42.180301666259766" id="svg_41"/><line class="cls-4" x1="150.17999267578125" y1="37.3003044128418" x2="155.05999755859375" y2="42.180301666259766" id="svg_42"/><line class="cls-4" x1="154.1699981689453" y1="37.3003044128418" x2="159.0500030517578" y2="42.180301666259766" id="svg_43"/><line class="cls-4" x1="158.16000366210938" y1="37.3003044128418" x2="163.0399932861328" y2="42.180301666259766" id="svg_44"/><line class="cls-4" x1="162.14999389648438" y1="37.3003044128418" x2="167.02999877929688" y2="42.180301666259766" id="svg_45"/><line class="cls-4" x1="166.13999938964844" y1="37.3003044128418" x2="171.00999450683594" y2="42.180301666259766" id="svg_46"/><line class="cls-4" x1="170.1300048828125" y1="37.3003044128418" x2="175" y2="42.180301666259766" id="svg_47"/><line class="cls-4" x1="174.11000061035156" y1="37.3003044128418" x2="178.99000549316406" y2="42.180301666259766" id="svg_48"/><line class="cls-4" x1="178.09999084472656" y1="37.3003044128418" x2="182.97999572753906" y2="42.180301666259766" id="svg_49"/><line class="cls-4" x1="178" y1="32.61030197143555" x2="137.94000244140625" y2="32.61030197143555" id="svg_50"/><polyline class="cls-4" points="39.91999816894531,29.070295135867127 48.25999450683594,37.41029147375775 142.6300048828125,37.30030612219525 182.69000244140625,37.30030612219525 " id="svg_51"/><polyline class="cls-4" points="218.1800079345703,42.27030734289838 258.2400207519531,42.27030734289838 271.4499816894531,29.070295135867127 " id="svg_52"/><line class="cls-4" x1="259.6400146484375" y1="37.3003044128418" x2="254.77000427246094" y2="42.180301666259766" id="svg_53"/><line class="cls-4" x1="255.6599884033203" y1="37.3003044128418" x2="250.7799835205078" y2="42.180301666259766" id="svg_54"/><line class="cls-4" x1="251.6699981689453" y1="37.3003044128418" x2="246.7899932861328" y2="42.180301666259766" id="svg_55"/><line class="cls-4" x1="247.6800079345703" y1="37.3003044128418" x2="242.8000030517578" y2="42.180301666259766" id="svg_56"/><line class="cls-4" x1="243.6899871826172" y1="37.3003044128418" x2="238.8100128173828" y2="42.180301666259766" id="svg_57"/><line class="cls-4" x1="239.6999969482422" y1="37.3003044128418" x2="234.8300018310547" y2="42.180301666259766" id="svg_58"/><line class="cls-4" x1="235.7100067138672" y1="37.3003044128418" x2="230.8400115966797" y2="42.180301666259766" id="svg_59"/><line class="cls-4" x1="231.72999572753906" y1="37.3003044128418" x2="226.84999084472656" y2="42.180301666259766" id="svg_60"/><line class="cls-4" x1="227.74000549316406" y1="37.3003044128418" x2="222.86000061035156" y2="42.180301666259766" id="svg_61"/><line class="cls-4" x1="227.8400115966797" y1="32.61030197143555" x2="267.9000244140625" y2="32.61030197143555" id="svg_62"/><polyline class="cls-4" points="365.91998291015625,29.070295135867127 357.58001708984375,37.41029147375775 263.2200012207031,37.30030612219525 223.15000915527344,37.30030612219525 " id="svg_63"/></g></svg>