<svg xmlns="http://www.w3.org/2000/svg" data-name="Layer 1" width="406" height="48" style=""><rect id="backgroundrect" width="100%" height="100%" x="0" y="0" fill="none" stroke="none" class="" style=""/><defs><style>.cls-1{fill:#335772;}.cls-2{font-size:31px;fill:#fff;font-family:Arial-BoldMT, Arial;font-weight:700;}.cls-3{font-size:16px;font-family:ArialMT, Arial;font-weight:400;}.cls-4{letter-spacing:-0.04em;}.cls-5{letter-spacing:-0.02em;}.cls-6{fill:none;stroke:#fff;stroke-linecap:round;stroke-linejoin:round;stroke-width:1.5px;}</style></defs><title>Art Deco Quotes_V02</title><g class="currentLayer" style=""><title>Layer 1</title><circle class="cls-6" cx="255.87999725341797" cy="311.33105063438416" r="18.170000076293945" transform="rotate(-65.87000274658203 7.629997253417939,208.5510559082031) " id="svg_12"/><path class="cls-6" d="M215.9999981689453,24.02105429649353 a13.08,13.08 0 1 0 -26.16,0 " id="svg_13"/><path class="cls-6" d="M211.32999816894534,24.02105429649353 a8.41,8.41 0 0 0 -16.82,0 " id="svg_14"/><line class="cls-6" x1="202.9199981689453" y1="10.941051244735718" x2="202.9199981689453" y2="5.851054906845093" id="svg_15"/><line class="cls-6" x1="200.64999389648438" y1="11.141055822372437" x2="199.75999450683594" y2="6.121051549911499" id="svg_16"/><line class="cls-6" x1="198.4499969482422" y1="11.731052160263062" x2="196.70999145507812" y2="6.941051244735718" id="svg_17"/><line class="cls-6" x1="196.3800048828125" y1="12.691051244735718" x2="193.8300018310547" y2="8.281055212020874" id="svg_18"/><line class="cls-6" x1="194.50999450683594" y1="14.001056432723999" x2="191.24000549316406" y2="10.101054906845093" id="svg_19"/><line class="cls-6" x1="192.89999389648438" y1="15.611057043075562" x2="189" y2="12.341052770614624" id="svg_20"/><line class="cls-6" x1="191.58999633789062" y1="17.48105216026306" x2="187.17999267578125" y2="14.93105673789978" id="svg_21"/><line class="cls-6" x1="190.6300048828125" y1="19.541057348251343" x2="185.84999084472656" y2="17.80105185508728" id="svg_22"/><line class="cls-6" x1="190.0399932861328" y1="21.751056432724" x2="185.02999877929688" y2="20.86105704307556" id="svg_23"/><line class="cls-6" x1="202.9199981689453" y1="24.021053075790405" x2="0" y2="24.021053075790405" id="svg_24"/><line class="cls-6" x1="205.19000244140625" y1="11.141055822372437" x2="206.0800018310547" y2="6.121051549911499" id="svg_25"/><line class="cls-6" x1="207.38999938964844" y1="11.731052160263062" x2="209.1300048828125" y2="6.941051244735718" id="svg_26"/><line class="cls-6" x1="209.45999145507812" y1="12.691051244735718" x2="212.00999450683594" y2="8.281055212020874" id="svg_27"/><line class="cls-6" x1="211.3300018310547" y1="14.001056432723999" x2="214.59999084472656" y2="10.101054906845093" id="svg_28"/><line class="cls-6" x1="212.9399871826172" y1="15.611057043075562" x2="216.8400115966797" y2="12.341052770614624" id="svg_29"/><line class="cls-6" x1="214.24998474121094" y1="17.48105216026306" x2="218.6599884033203" y2="14.93105673789978" id="svg_30"/><line class="cls-6" x1="215.2100067138672" y1="19.541057348251343" x2="219.99000549316406" y2="17.80105185508728" id="svg_31"/><line class="cls-6" x1="215.8000030517578" y1="21.751056432724" x2="220.8100128173828" y2="20.86105704307556" id="svg_32"/><line class="cls-6" x1="215.99998474121094" y1="24.021053075790405" x2="221.0900115966797" y2="24.021053075790405" id="svg_33"/><line class="cls-6" x1="202.9199981689453" y1="24.021053075790405" x2="202.9199981689453" y2="42.19105124473572" id="svg_34"/><line class="cls-6" x1="202.9199981689453" y1="24.021053075790405" x2="207.6199951171875" y2="41.57105612754822" id="svg_35"/><line class="cls-6" x1="202.9199981689453" y1="24.021053075790405" x2="211.99998474121094" y2="39.751056432724" id="svg_36"/><line class="cls-6" x1="202.9199981689453" y1="24.021053075790405" x2="215.77000427246094" y2="36.8710515499115" id="svg_37"/><line class="cls-6" x1="202.9199981689453" y1="24.021053075790405" x2="218.6599884033203" y2="33.10105490684509" id="svg_38"/><line class="cls-6" x1="202.9199981689453" y1="24.021053075790405" x2="220.46998596191406" y2="28.721057653427124" id="svg_39"/><line class="cls-6" x1="202.9199981689453" y1="24.021053075790405" x2="198.22000122070312" y2="41.57105612754822" id="svg_40"/><line class="cls-6" x1="202.9199981689453" y1="24.021053075790405" x2="193.8300018310547" y2="39.751056432724" id="svg_41"/><line class="cls-6" x1="202.9199981689453" y1="24.021053075790405" x2="190.0699920654297" y2="36.8710515499115" id="svg_42"/><line class="cls-6" x1="202.9199981689453" y1="24.021053075790405" x2="187.17999267578125" y2="33.10105490684509" id="svg_43"/><line class="cls-6" x1="202.9199981689453" y1="24.021053075790405" x2="185.3699951171875" y2="28.721057653427124" id="svg_44"/><polyline class="cls-6" points="190.0699920654297,36.8710515499115 181.8199920654297,45.1210515499115 160.70999145507812,24.021053075790405 181.8199920654297,2.9110524654388428 189.61000061035156,10.711055517196655 " id="svg_45"/><line class="cls-6" x1="185.02999877929688" y1="20.86105704307556" x2="164.1199951171875" y2="20.86105704307556" id="svg_46"/><line class="cls-6" x1="185.84999084472656" y1="17.80105185508728" x2="166.92999267578125" y2="17.80105185508728" id="svg_47"/><line class="cls-6" x1="185.02999877929688" y1="27.17105460166931" x2="164.1199951171875" y2="27.17105460166931" id="svg_48"/><line class="cls-6" x1="185.84999084472656" y1="30.23105216026306" x2="166.92999267578125" y2="30.23105216026306" id="svg_49"/><line class="cls-6" x1="202.9199981689453" y1="24.021053075790405" x2="405.8400115966797" y2="24.021053075790405" id="svg_50"/><polyline class="cls-6" points="215.77000427246094,36.8710515499115 224.02000427246094,45.1210515499115 245.12998962402344,24.021053075790405 224.02000427246094,2.9110524654388428 216.22999572753906,10.711055517196655 " id="svg_51"/><line class="cls-6" x1="220.8100128173828" y1="20.86105704307556" x2="241.71998596191406" y2="20.86105704307556" id="svg_52"/><line class="cls-6" x1="219.99000549316406" y1="17.80105185508728" x2="238.9099884033203" y2="17.80105185508728" id="svg_53"/><line class="cls-6" x1="220.8100128173828" y1="27.17105460166931" x2="241.71998596191406" y2="27.17105460166931" id="svg_54"/><line class="cls-6" x1="219.99000549316406" y1="30.23105216026306" x2="238.9099884033203" y2="30.23105216026306" id="svg_55"/><path class="cls-6" d="M170.50999816894532,33.82105429649353 a13.86,13.86 0 1 1 -0.25,-19.85 " id="svg_56"/><path class="cls-6" d="M107.25999816894532,24.02105429649353 a7,7 0 1 1 -7,-7 A7,7 0 0 1 107.25999816894532,24.02105429649353 z" id="svg_57"/><line class="cls-6" x1="100.30000305175781" y1="12.221057653427124" x2="100.30000305175781" y2="35.82105612754822" id="svg_58"/><path class="cls-6" d="M235.32999816894534,33.82105429649353 a13.86,13.86 0 1 0 0.25,-19.85 " id="svg_59"/><path class="cls-6" d="M298.57999816894534,24.02105429649353 a7,7 0 1 0 7,-7 A7,7 0 0 0 298.57999816894534,24.02105429649353 z" id="svg_60"/><line class="cls-6" x1="305.5399932861328" y1="12.221057653427124" x2="305.5399932861328" y2="35.82105612754822" id="svg_61"/></g></svg>