<svg xmlns="http://www.w3.org/2000/svg" data-name="Layer 1" width="406" height="38"><rect id="backgroundrect" width="100%" height="100%" x="0" y="0" fill="none" stroke="none" class="" style=""/><defs><style>.cls-1{fill:#2e284b;}.cls-2{font-size:31px;fill:#fff;font-family:Arial-BoldMT, Arial;font-weight:700;}.cls-3{font-size:16px;font-family:ArialMT, Arial;font-weight:400;}.cls-4{letter-spacing:-0.04em;}.cls-5{fill:none;stroke:#fff;stroke-linecap:round;stroke-linejoin:round;stroke-width:1.5px;}</style></defs><title>Art Deco Quotes_V02</title><g class="currentLayer" style=""><title>Layer 1</title><rect class="cls-5" x="308.92999267578125" y="-153.56727600097656" width="17.93000030517578" height="17.93000030517578" transform="rotate(45 70.28998565673822,-205.43727111816403) " id="svg_12"/><rect class="cls-5" x="317.8899841308594" y="-137.17727661132812" width="17.93000030517578" height="17.93000030517578" transform="rotate(45 79.24998474121091,-201.72727966308594) " id="svg_13"/><line class="cls-5" x1="196.00997924804688" y1="18.992721557617188" x2="212.1599884033203" y2="2.8427276611328125" id="svg_14"/><line class="cls-5" x1="205.8199920654297" y1="16.132720947265625" x2="215.63999938964844" y2="6.322723388671875" id="svg_15"/><line class="cls-5" x1="208.6899871826172" y1="18.992721557617188" x2="192.6599884033203" y2="2.9727325439453125" id="svg_16"/><line class="cls-5" x1="198.87998962402344" y1="16.132720947265625" x2="189.1899871826172" y2="6.442718505859375" id="svg_17"/><line class="cls-5" x1="196.00997924804688" y1="18.992721557617188" x2="212.1599884033203" y2="35.14271545410156" id="svg_18"/><line class="cls-5" x1="205.8199920654297" y1="21.862716674804688" x2="215.63999938964844" y2="31.672714233398438" id="svg_19"/><line class="cls-5" x1="208.6899871826172" y1="18.992721557617188" x2="192.6599884033203" y2="35.02272033691406" id="svg_20"/><line class="cls-5" x1="198.87998962402344" y1="21.862716674804688" x2="189.1899871826172" y2="31.552719116210938" id="svg_21"/><line class="cls-5" x1="202.34999084472656" y1="12.652725219726562" x2="202.34999084472656" y2="-0.01727294921875" id="svg_22"/><line class="cls-5" x1="202.34999084472656" y1="25.332717895507812" x2="202.34999084472656" y2="38.012725830078125" id="svg_23"/><line class="cls-5" x1="196.00997924804688" y1="18.992721557617188" x2="0.079986572265625" y2="18.992721557617188" id="svg_24"/><polyline class="cls-5" points="189.66998291015625,12.652725219726562 159.9299774169922,12.652725219726562 153.69998168945312,18.892730712890625 " id="svg_25"/><polyline class="cls-5" points="189.66998291015625,25.332717895507812 167.12998962402344,25.332717895507812 160.99998474121094,19.202713012695312 " id="svg_26"/><line class="cls-5" x1="167.12998962402344" y1="25.332717895507812" x2="167.12998962402344" y2="19.202713012695312" id="svg_27"/><line class="cls-5" x1="170.82998657226562" y1="25.332717895507812" x2="170.82998657226562" y2="19.202713012695312" id="svg_28"/><line class="cls-5" x1="174.5299835205078" y1="25.332717895507812" x2="174.5299835205078" y2="19.202713012695312" id="svg_29"/><line class="cls-5" x1="178.21998596191406" y1="25.332717895507812" x2="178.21998596191406" y2="19.202713012695312" id="svg_30"/><line class="cls-5" x1="181.91998291015625" y1="25.332717895507812" x2="181.91998291015625" y2="19.202713012695312" id="svg_31"/><line class="cls-5" x1="185.61997985839844" y1="25.332717895507812" x2="185.61997985839844" y2="19.202713012695312" id="svg_32"/><line class="cls-5" x1="189.3099822998047" y1="25.332717895507812" x2="189.3099822998047" y2="19.202713012695312" id="svg_33"/><line class="cls-5" x1="208.6899871826172" y1="18.992721557617188" x2="405.9200134277344" y2="18.992721557617188" id="svg_34"/><polyline class="cls-5" points="215.0299835205078,12.652725219726562 244.7699737548828,12.652725219726562 250.99998474121094,18.892730712890625 " id="svg_35"/><polyline class="cls-5" points="215.0299835205078,25.332717895507812 237.5699920654297,25.332717895507812 243.6999969482422,19.202713012695312 " id="svg_36"/><line class="cls-5" x1="237.5699920654297" y1="25.332717895507812" x2="237.5699920654297" y2="19.202713012695312" id="svg_37"/><line class="cls-5" x1="233.86997985839844" y1="25.332717895507812" x2="233.86997985839844" y2="19.202713012695312" id="svg_38"/><line class="cls-5" x1="230.1799774169922" y1="25.332717895507812" x2="230.1799774169922" y2="19.202713012695312" id="svg_39"/><line class="cls-5" x1="226.47999572753906" y1="25.332717895507812" x2="226.47999572753906" y2="19.202713012695312" id="svg_40"/><line class="cls-5" x1="222.7799835205078" y1="25.332717895507812" x2="222.7799835205078" y2="19.202713012695312" id="svg_41"/><line class="cls-5" x1="219.07997131347656" y1="25.332717895507812" x2="219.07997131347656" y2="19.202713012695312" id="svg_42"/><line class="cls-5" x1="215.38999938964844" y1="25.332717895507812" x2="215.38999938964844" y2="19.202713012695312" id="svg_43"/><line class="cls-5" x1="156.8199920654297" y1="15.772720336914062" x2="192.6599884033203" y2="15.772720336914062" id="svg_44"/><line class="cls-5" x1="247.87998962402344" y1="15.772720336914062" x2="212.0399932861328" y2="15.772720336914062" id="svg_45"/><line class="cls-5" x1="7.6099853515625" y1="15.772720336914062" x2="14.049983978271484" y2="22.212722778320312" id="svg_46"/><line class="cls-5" x1="14.049983978271484" y1="15.772720336914062" x2="7.6099853515625" y2="22.212722778320312" id="svg_47"/><line class="cls-5" x1="28.28998565673828" y1="11.23272705078125" x2="43.819984436035156" y2="26.762725830078125" id="svg_48"/><line class="cls-5" x1="43.819984436035156" y1="11.23272705078125" x2="28.28998565673828" y2="26.762725830078125" id="svg_49"/><line class="cls-5" x1="397.0899963378906" y1="15.772720336914062" x2="390.6600036621094" y2="22.212722778320312" id="svg_50"/><line class="cls-5" x1="390.6600036621094" y1="15.772720336914062" x2="397.0899963378906" y2="22.212722778320312" id="svg_51"/><line class="cls-5" x1="376.4100036621094" y1="11.23272705078125" x2="360.8799743652344" y2="26.762725830078125" id="svg_52"/><line class="cls-5" x1="360.8799743652344" y1="11.23272705078125" x2="376.4100036621094" y2="26.762725830078125" id="svg_53"/></g></svg>