<svg xmlns="http://www.w3.org/2000/svg" data-name="Layer 1" width="405" height="38" style=""><rect id="backgroundrect" width="100%" height="100%" x="0" y="0" fill="none" stroke="none" class="" style="" opacity="1"/><defs><style>.cls-1{fill:#335772;}.cls-2{font-size:31px;fill:#fff;font-family:Arial-BoldMT, Arial;font-weight:700;}.cls-3{letter-spacing:0em;}.cls-4{font-size:16px;font-family:ArialMT, Arial;font-weight:400;}.cls-5{fill:none;stroke:#fff;stroke-linecap:round;stroke-linejoin:round;stroke-width:1.5px;}</style></defs><title>Art Deco Quotes_V02</title><g class="currentLayer" style=""><title>Layer 1</title><rect class="cls-5" x="421.2699890136719" y="-206.75999975204468" width="14.029999732971191" height="14.029999732971191" transform="rotate(45 94.17998504638659,-259.56997680664057) " id="svg_41"/><rect class="cls-5" x="434.0899963378906" y="-213.76999425888062" width="14.029999732971191" height="14.029999732971191" transform="rotate(45 97.07997894287107,-266.58010864257807) " id="svg_42"/><line class="cls-5" x1="195.9300079345703" y1="19.019999027252197" x2="0" y2="19.019999027252197" id="svg_16" opacity="1"/><rect class="cls-5" x="428.95001220703125" y="-0.7399954795837402" width="14.029999732971191" height="14.029999732971191" transform="rotate(135 273.5598449707031,-53.55001449584962) " id="svg_17" opacity="1"/><rect class="cls-5" x="402.0899963378906" y="6.269999027252197" width="14.029999732971191" height="14.029999732971191" transform="rotate(135 256.6198425292969,-46.54002380371094) " id="svg_18" opacity="1"/><line class="cls-5" x1="111.46000671386719" y1="14.019999027252197" x2="124.10000610351562" y2="26.650003910064697" id="svg_19" opacity="1"/><line class="cls-5" x1="113.69999694824219" y1="21.68999719619751" x2="121.3800048828125" y2="29.370005130767822" id="svg_20" opacity="1"/><line class="cls-5" x1="111.46000671386719" y1="23.93999719619751" x2="124" y2="11.400003910064697" id="svg_21" opacity="1"/><line class="cls-5" x1="113.69999694824219" y1="16.26000452041626" x2="121.27999877929688" y2="8.680002689361572" id="svg_22" opacity="1"/><line class="cls-5" x1="111.46000671386719" y1="14.019999027252197" x2="98.82000732421875" y2="26.650003910064697" id="svg_23" opacity="1"/><line class="cls-5" x1="109.22000122070312" y1="21.68999719619751" x2="101.54000854492188" y2="29.370005130767822" id="svg_24" opacity="1"/><line class="cls-5" x1="111.46000671386719" y1="23.93999719619751" x2="98.91999816894531" y2="11.400003910064697" id="svg_25" opacity="1"/><line class="cls-5" x1="109.22000122070312" y1="16.26000452041626" x2="101.63999938964844" y2="8.680002689361572" id="svg_26" opacity="1"/><line class="cls-5" x1="116.41999816894531" y1="18.980005741119385" x2="126.34001159667969" y2="18.980005741119385" id="svg_27" opacity="1"/><line class="cls-5" x1="106.5" y1="18.980005741119385" x2="96.58000183105469" y2="18.980005741119385" id="svg_28" opacity="1"/><circle class="cls-5" cx="202.27000427246094" cy="19.019999027252197" r="19.020000457763672" id="svg_29" opacity="1"/><circle class="cls-5" cx="202.27000427246094" cy="19.019999027252197" r="11.920000076293945" id="svg_30" opacity="1"/><path class="cls-5" d="M173.02000045776367,30.250000095367426 a12.13,12.13 0 0 1 -5,1.05 a12.28,12.28 0 1 1 4.78,-23.59 " id="svg_31" opacity="1"/><path class="cls-5" d="M189.32000045776368,32.95000009536744 a15.18,15.18 0 1 1 -0.16000000000000106,-27.92 " id="svg_32" opacity="1"/><path class="cls-5" d="M187.64000045776368,31.15000009536743 a12.79,12.79 0 0 1 -3.36,0.45 a12.61,12.61 0 0 1 0,-25.21 a12.79,12.79 0 0 1 3.36,0.45 " id="svg_33" opacity="1"/><path class="cls-5" d="M186.35000045776368,29.420000095367413 a9.71,9.71 0 0 1 -1.21,0.07 a10.47,10.47 0 1 1 0,-20.94 a9.46,9.46 0 0 1 1.07,0.06000000000000036 " id="svg_34" opacity="1"/><path class="cls-5" d="M185.13000045776369,27.200000095367443 a8.23,8.23 0 0 1 0,-16.35 " id="svg_35" opacity="1"/><line class="cls-5" x1="183.25" y1="19.019999027252197" x2="155.79000854492188" y2="19.019999027252197" id="svg_36" opacity="1"/><line class="cls-5" x1="164.4199981689453" y1="7.299997806549072" x2="164.4199981689453" y2="30.74999475479126" id="svg_37" opacity="1"/><line class="cls-5" x1="164.4199981689453" y1="19.029993534088135" x2="157.73001098632812" y2="12.339991092681885" id="svg_38" opacity="1"/><line class="cls-5" x1="164.4199981689453" y1="19.029993534088135" x2="157.77000427246094" y2="25.680002689361572" id="svg_39" opacity="1"/><line class="cls-5" x1="208.61000061035156" y1="19.019999027252197" x2="404.53997802734375" y2="19.019999027252197" id="svg_40" opacity="1"/><line class="cls-5" x1="293.0799865722656" y1="14.019999027252197" x2="280.44000244140625" y2="26.650003910064697" id="svg_43" opacity="1"/><line class="cls-5" x1="290.8399963378906" y1="21.68999719619751" x2="283.1600036621094" y2="29.370005130767822" id="svg_44" opacity="1"/><line class="cls-5" x1="293.0799865722656" y1="23.93999719619751" x2="280.53997802734375" y2="11.400003910064697" id="svg_45" opacity="1"/><line class="cls-5" x1="290.8399963378906" y1="16.26000452041626" x2="283.2599792480469" y2="8.680002689361572" id="svg_46" opacity="1"/><line class="cls-5" x1="293.0799865722656" y1="14.019999027252197" x2="305.7200012207031" y2="26.650003910064697" id="svg_47" opacity="1"/><line class="cls-5" x1="295.3199768066406" y1="21.68999719619751" x2="303" y2="29.370005130767822" id="svg_48" opacity="1"/><line class="cls-5" x1="293.0799865722656" y1="23.93999719619751" x2="305.6199951171875" y2="11.400003910064697" id="svg_49" opacity="1"/><line class="cls-5" x1="295.3199768066406" y1="16.26000452041626" x2="302.8999938964844" y2="8.680002689361572" id="svg_50" opacity="1"/><line class="cls-5" x1="288.1199951171875" y1="18.980005741119385" x2="278.1999816894531" y2="18.980005741119385" id="svg_51" opacity="1"/><line class="cls-5" x1="298.03997802734375" y1="18.980005741119385" x2="307.9599914550781" y2="18.980005741119385" id="svg_52" opacity="1"/><path class="cls-5" d="M231.5000004577637,30.250000095367426 a12.13,12.13 0 0 0 5,1.05 a12.28,12.28 0 1 0 -4.78,-23.59 " id="svg_53" opacity="1"/><path class="cls-5" d="M215.22000045776366,32.95000009536744 a15.18,15.18 0 1 0 0.16000000000000106,-27.92 " id="svg_54" opacity="1"/><path class="cls-5" d="M216.90000045776367,31.15000009536743 a12.79,12.79 0 0 0 3.36,0.45 a12.61,12.61 0 0 0 0,-25.21 a12.79,12.79 0 0 0 -3.36,0.45 " id="svg_55" opacity="1"/><path class="cls-5" d="M218.1900004577637,29.420000095367413 a9.71,9.71 0 0 0 1.21,0.07 a10.47,10.47 0 1 0 0,-20.94 a9.46,9.46 0 0 0 -1.07,0.06000000000000036 " id="svg_56" opacity="1"/><path class="cls-5" d="M219.41000045776366,27.200000095367443 a8.23,8.23 0 0 0 0,-16.35 " id="svg_57" opacity="1"/><line class="cls-5" x1="221.2899932861328" y1="19.019999027252197" x2="248.75001525878906" y2="19.019999027252197" id="svg_58" opacity="1"/><line class="cls-5" x1="240.12001037597656" y1="7.299997806549072" x2="240.12001037597656" y2="30.74999475479126" id="svg_59" opacity="1"/><line class="cls-5" x1="240.12001037597656" y1="19.029993534088135" x2="246.8100128173828" y2="12.339991092681885" id="svg_60" opacity="1"/><line class="cls-5" x1="240.12001037597656" y1="19.029993534088135" x2="246.77000427246094" y2="25.680002689361572" id="svg_61" opacity="1"/><line class="cls-5" x1="202.27000427246094" y1="38.040003299713135" x2="202.27000427246094" y2="0.010004520416259766" id="svg_62" opacity="1"/><line class="cls-5" x1="198.19000244140625" y1="7.829996585845947" x2="195.77000427246094" y2="1.1500039100646973" id="svg_63" opacity="1"/><line class="cls-5" x1="194.61000061035156" y1="9.900003910064697" x2="190.0500030517578" y2="4.460001468658447" id="svg_64" opacity="1"/><line class="cls-5" x1="191.9499969482422" y1="13.07000207901001" x2="185.8000030517578" y2="9.519999027252197" id="svg_65" opacity="1"/><line class="cls-5" x1="190.54000854492188" y1="16.95000696182251" x2="183.54000854492188" y2="15.719995975494385" id="svg_66" opacity="1"/><line class="cls-5" x1="190.54000854492188" y1="21.089991092681885" x2="183.54000854492188" y2="22.329996585845947" id="svg_67" opacity="1"/><line class="cls-5" x1="191.9499969482422" y1="24.980005741119385" x2="185.8000030517578" y2="28.529993534088135" id="svg_68" opacity="1"/><line class="cls-5" x1="194.61000061035156" y1="28.150003910064697" x2="190.0500030517578" y2="33.59000635147095" id="svg_69" opacity="1"/><line class="cls-5" x1="198.19000244140625" y1="30.219995975494385" x2="195.77000427246094" y2="36.8899941444397" id="svg_70" opacity="1"/><line class="cls-5" x1="206.35000610351562" y1="30.219995975494385" x2="208.77000427246094" y2="36.8899941444397" id="svg_71" opacity="1"/><line class="cls-5" x1="209.9300079345703" y1="28.150003910064697" x2="214.49000549316406" y2="33.59000635147095" id="svg_72" opacity="1"/><line class="cls-5" x1="212.5900115966797" y1="24.980005741119385" x2="218.74000549316406" y2="28.529993534088135" id="svg_73" opacity="1"/><line class="cls-5" x1="214.00001525878906" y1="21.089991092681885" x2="221.00001525878906" y2="22.329996585845947" id="svg_74" opacity="1"/><line class="cls-5" x1="214.00001525878906" y1="16.95000696182251" x2="221.00001525878906" y2="15.719995975494385" id="svg_75" opacity="1"/><line class="cls-5" x1="212.5900115966797" y1="13.07000207901001" x2="218.74000549316406" y2="9.519999027252197" id="svg_76" opacity="1"/><line class="cls-5" x1="209.9300079345703" y1="9.900003910064697" x2="214.49000549316406" y2="4.460001468658447" id="svg_77" opacity="1"/><line class="cls-5" x1="206.35000610351562" y1="7.829996585845947" x2="208.77000427246094" y2="1.1500039100646973" id="svg_78" opacity="1"/></g></svg>