<svg xmlns="http://www.w3.org/2000/svg" data-name="Layer 1" width="406" height="38"><rect id="backgroundrect" width="100%" height="100%" x="0" y="0" fill="none" stroke="none" class="" style=""/><defs><style>.cls-1{fill:#2e284b;}.cls-2{font-size:31px;fill:#fff;font-family:Arial-BoldMT, Arial;font-weight:700;}.cls-3{font-size:16px;font-family:ArialMT, Arial;font-weight:400;}.cls-4{fill:none;stroke:#fff;stroke-linecap:round;stroke-linejoin:round;stroke-width:1.5px;}</style></defs><title>Art Deco Quotes_V02</title><g class="currentLayer" style=""><title>Layer 1</title><rect class="cls-4" x="306.260009765625" y="-151.59841918945312" width="27.18000030517578" height="27.18000030517578" transform="rotate(45 71.59999847412098,-200.5284271240234) " id="svg_7"/><polyline class="cls-4" points="212.53997802734375,9.61156990337065 193.32000732421875,28.83156730937651 183.70999145507812,38.431573412892135 93.34000396728516,38.431573412892135 87.4800033569336,32.57157280254057 67.63999938964844,32.57157280254057 59.19999694824219,24.131570361134322 0,24.131570361134322 " id="svg_8"/><line class="cls-4" x1="202.92001342773438" y1="19.231569290161133" x2="193.30999755859375" y2="9.62156867980957" id="svg_9"/><line class="cls-4" x1="198.1199951171875" y1="14.421571731567383" x2="207.73001098632812" y2="4.801568508148193" id="svg_10"/><line class="cls-4" x1="202.92001342773438" y1="9.611570358276367" x2="198.1199951171875" y2="4.811570644378662" id="svg_11"/><line class="cls-4" x1="200.51998901367188" y1="7.211568355560303" x2="205.32998657226562" y2="2.4015707969665527" id="svg_12"/><line class="cls-4" x1="202.92001342773438" y1="4.801568508148193" x2="200.51998901367188" y2="2.411569118499756" id="svg_13"/><line class="cls-4" x1="87.4800033569336" y1="32.571571350097656" x2="189" y2="32.571571350097656" id="svg_14"/><line class="cls-4" x1="59.19999694824219" y1="24.13157081604004" x2="188.6300048828125" y2="24.13157081604004" id="svg_15"/><polyline class="cls-4" points="189.3900146484375,13.541570208546432 49.86000061035156,13.541570208546432 39.209999084472656,24.191567919728072 " id="svg_16"/><line class="cls-4" x1="73.69999694824219" y1="32.571571350097656" x2="65.37000274658203" y2="24.2415714263916" id="svg_17"/><line class="cls-4" x1="79.87000274658203" y1="32.571571350097656" x2="71.54000091552734" y2="24.2415714263916" id="svg_18"/><line class="cls-4" x1="86.04999542236328" y1="32.571571350097656" x2="77.72000122070312" y2="24.2415714263916" id="svg_19"/><line class="cls-4" x1="92.2199935913086" y1="32.571571350097656" x2="83.89000701904297" y2="24.2415714263916" id="svg_20"/><line class="cls-4" x1="98.39000701904297" y1="32.571571350097656" x2="90.06000518798828" y2="24.2415714263916" id="svg_21"/><line class="cls-4" x1="104.56999969482422" y1="32.571571350097656" x2="96.23999786376953" y2="24.2415714263916" id="svg_22"/><line class="cls-4" x1="110.73999786376953" y1="32.571571350097656" x2="102.40999603271484" y2="24.2415714263916" id="svg_23"/><line class="cls-4" x1="116.90999603271484" y1="32.571571350097656" x2="108.57999420166016" y2="24.2415714263916" id="svg_24"/><line class="cls-4" x1="123.09000396728516" y1="32.571571350097656" x2="114.76000213623047" y2="24.2415714263916" id="svg_25"/><line class="cls-4" x1="129.260009765625" y1="32.571571350097656" x2="120.93000030517578" y2="24.2415714263916" id="svg_26"/><line class="cls-4" x1="135.42999267578125" y1="32.571571350097656" x2="127.0999984741211" y2="24.2415714263916" id="svg_27"/><line class="cls-4" x1="141.6099853515625" y1="32.571571350097656" x2="133.27999877929688" y2="24.2415714263916" id="svg_28"/><line class="cls-4" x1="147.77999877929688" y1="32.571571350097656" x2="139.45001220703125" y2="24.2415714263916" id="svg_29"/><line class="cls-4" x1="153.95001220703125" y1="32.571571350097656" x2="145.6199951171875" y2="24.2415714263916" id="svg_30"/><line class="cls-4" x1="160.1199951171875" y1="32.571571350097656" x2="151.79000854492188" y2="24.2415714263916" id="svg_31"/><line class="cls-4" x1="166.29998779296875" y1="32.571571350097656" x2="157.97000122070312" y2="24.2415714263916" id="svg_32"/><line class="cls-4" x1="172.47000122070312" y1="32.571571350097656" x2="164.1400146484375" y2="24.2415714263916" id="svg_33"/><line class="cls-4" x1="178.6400146484375" y1="32.571571350097656" x2="170.30999755859375" y2="24.2415714263916" id="svg_34"/><line class="cls-4" x1="184.82000732421875" y1="32.571571350097656" x2="176.489990234375" y2="24.2415714263916" id="svg_35"/><line class="cls-4" x1="190.27999877929688" y1="31.861574172973633" x2="182.66000366210938" y2="24.2415714263916" id="svg_36"/><polyline class="cls-4" points="183.70999145507812,19.221570513722213 55.269996643066406,19.221570513722213 50.94000244140625,23.551568530079635 " id="svg_37"/><polyline class="cls-4" points="193.32000732421875,9.61156990337065 212.53997802734375,28.83156730937651 222.14999389648438,38.431573412892135 312.5199890136719,38.431573412892135 318.3800048828125,32.57157280254057 338.2200012207031,32.57157280254057 346.6600036621094,24.131570361134322 405.8599853515625,24.131570361134322 " id="svg_38"/><line class="cls-4" x1="318.3800048828125" y1="32.571571350097656" x2="216.8599853515625" y2="32.571571350097656" id="svg_39"/><line class="cls-4" x1="346.6600036621094" y1="24.13157081604004" x2="217.22998046875" y2="24.13157081604004" id="svg_40"/><polyline class="cls-4" points="216.4700164794922,13.541570208546432 356,13.541570208546432 366.6499938964844,24.191567919728072 " id="svg_41"/><line class="cls-4" x1="332.1600036621094" y1="32.571571350097656" x2="340.489990234375" y2="24.2415714263916" id="svg_42"/><line class="cls-4" x1="325.989990234375" y1="32.571571350097656" x2="334.32000732421875" y2="24.2415714263916" id="svg_43"/><line class="cls-4" x1="319.80999755859375" y1="32.571571350097656" x2="328.1399841308594" y2="24.2415714263916" id="svg_44"/><line class="cls-4" x1="313.6399841308594" y1="32.571571350097656" x2="321.9700012207031" y2="24.2415714263916" id="svg_45"/><line class="cls-4" x1="307.4700012207031" y1="32.571571350097656" x2="315.79998779296875" y2="24.2415714263916" id="svg_46"/><line class="cls-4" x1="301.28997802734375" y1="32.571571350097656" x2="309.6199951171875" y2="24.2415714263916" id="svg_47"/><line class="cls-4" x1="295.1199951171875" y1="32.571571350097656" x2="303.4499816894531" y2="24.2415714263916" id="svg_48"/><line class="cls-4" x1="288.9499816894531" y1="32.571571350097656" x2="297.2799987792969" y2="24.2415714263916" id="svg_49"/><line class="cls-4" x1="282.7699890136719" y1="32.571571350097656" x2="291.1000061035156" y2="24.2415714263916" id="svg_50"/><line class="cls-4" x1="276.6000061035156" y1="32.571571350097656" x2="284.92999267578125" y2="24.2415714263916" id="svg_51"/><line class="cls-4" x1="270.42999267578125" y1="32.571571350097656" x2="278.7599792480469" y2="24.2415714263916" id="svg_52"/><line class="cls-4" x1="264.2599792480469" y1="32.571571350097656" x2="272.5899963378906" y2="24.2415714263916" id="svg_53"/><line class="cls-4" x1="258.0799865722656" y1="32.571571350097656" x2="266.4100036621094" y2="24.2415714263916" id="svg_54"/><line class="cls-4" x1="251.91000366210938" y1="32.571571350097656" x2="260.239990234375" y2="24.2415714263916" id="svg_55"/><line class="cls-4" x1="245.739990234375" y1="32.571571350097656" x2="254.07000732421875" y2="24.2415714263916" id="svg_56"/><line class="cls-4" x1="239.55999755859375" y1="32.571571350097656" x2="247.88998413085938" y2="24.2415714263916" id="svg_57"/><line class="cls-4" x1="233.38998413085938" y1="32.571571350097656" x2="241.72000122070312" y2="24.2415714263916" id="svg_58"/><line class="cls-4" x1="227.22000122070312" y1="32.571571350097656" x2="235.54998779296875" y2="24.2415714263916" id="svg_59"/><line class="cls-4" x1="221.03997802734375" y1="32.571571350097656" x2="229.3699951171875" y2="24.2415714263916" id="svg_60"/><line class="cls-4" x1="215.57998657226562" y1="31.861574172973633" x2="223.19998168945312" y2="24.2415714263916" id="svg_61"/><polyline class="cls-4" points="222.14999389648438,19.221570513722213 350.5899963378906,19.221570513722213 354.91998291015625,23.551568530079635 " id="svg_62"/></g></svg>