<?xml version="1.0" encoding="utf-8"?>
<!-- Generator: Adobe Illustrator 24.0.1, SVG Export Plug-In . SVG Version: 6.00 Build 0)  -->
<svg version="1.1" id="Layer_1" xmlns="http://www.w3.org/2000/svg" xmlns:xlink="http://www.w3.org/1999/xlink" x="0px" y="0px"
	 viewBox="0 0 206.3 191.7" style="enable-background:new 0 0 206.3 191.7;" xml:space="preserve">
<g>
	<path style="fill:#FFFFFF;stroke:#FFFFFF;stroke-width:5;stroke-miterlimit:10;" d="M127.6,173.4c5.6,6,12.8,8,20.7,7.3
		c4.4-0.4,7.4-2.8,8.8-7.1c0.5-1.6,0.6-3.1,0-4.9c-1,2.6-2.7,4.4-5.1,5.5c-2.4,1.1-4.9,1.5-7.4,1.2c-4.7-0.6-9.4-4.5-9.7-6.6
		c2.2,1.2,4.4,2.7,6.8,3.6c2.4,0.9,5.1,1,7.7,0.3c-2.1-0.8-4.3-1.4-6.4-2.2c-2.1-0.8-4.6-3.3-4.8-4.5c0.1,0,0.1,0,0.2,0.1
		c0.2,0.2,0.5,0.4,0.7,0.6c3.2,2.3,6.7,3.5,10.7,3.3c1-0.1,2-0.2,2.9-1.1c-0.7-0.1-1.4,0-2-0.2c-3-0.7-5.7-2.1-7.8-4.4
		c-2.5-2.9-4.8-5.9-7.2-8.9c-0.2-0.3-0.4-0.5-0.6-0.8c0,0.1,0,0.2,0,0.3c-0.5,0.2-1.1,0.6-1.6,0.6c-0.6,0-1.3-0.2-2-0.4
		c0,0.5,0,0.8,0,1.1c0,1.3,0.1,2.6,0.1,3.9c0,1.8-1,2.6-2.8,2.2c-1.5-0.3-2.7-1.1-3.9-2.1c-0.3-0.2-0.5-0.4-0.9-0.7
		c-0.1,0.5-0.2,0.9-0.4,1.3c-0.4,1.5-1.2,1.9-2.6,1.1c-0.5-0.3-1-0.6-1.5-1c-0.6-0.6-1.2-1.3-1.7-1.9c-0.1,0.1-0.2,0.2-0.3,0.2
		c0.3,0.7,0.6,1.3,1,2C121,165.6,124.1,169.7,127.6,173.4z"/>
	<path style="fill:#FFFFFF;stroke:#FFFFFF;stroke-width:5;stroke-miterlimit:10;" d="M144,160.7c4.4,4.1,9.4,5.9,15.3,4.6
		c2.7-0.6,5.1-1.8,6.6-4.3c1.2-2.1,1.1-4.8-0.4-6.7c-1.2-1.6-3.6-2.2-5.9-1.6c-1.1,0.3-1.9,1-2.2,2.2c-0.3,1.2,0.2,2.4,1.2,2.9
		c0.9,0.4,1.8,0.2,2.6-0.7c-1.3,0.2-1.8,0-1.9-0.7c-0.1-0.9,0.5-1.6,1.6-1.7c1.7-0.1,2.8,0.8,3.1,2.5c0.3,1.6-0.4,3.2-1.8,4.1
		c-1.9,1.1-3.9,1.5-6,1.3c-2.8-0.3-5.1-1.5-7.2-3.3c-3.5-3-6.3-6.5-8.4-10.6c-1.9-3.8-3.8-7.6-6.3-11.1c-1.3-1.8-3-3.2-5-4.1
		c0.6,0.8,1.2,1.6,1.9,2.4c-4-2.4-8.4-3.6-13-4c0.6,0.3,1.3,0.7,2,0.9c3.3,1.2,6,3.2,8.3,5.7c3,3.3,5.2,7.2,7.5,11.1
		C138.1,153.5,140.6,157.5,144,160.7z"/>
	<path style="fill:#FFFFFF;stroke:#FFFFFF;stroke-width:5;stroke-miterlimit:10;" d="M168.7,168.6v-3.1h-10.1v10.1h8.2
		c-1,1-2.4,1.7-4,1.9c-1.3,0.1-2.7,0-4.1,0c-0.4,0-0.9,0.1-1.1,0.4c-0.5,0.6-1,1.4-1.5,2.2c2.8,1,5.4,1.2,8.1,0.5
		c5.5-1.5,6.5-7.1,5.4-10.6C169.3,169.4,169.1,169,168.7,168.6z"/>
	<path style="fill:#FFFFFF;stroke:#FFFFFF;stroke-width:5;stroke-miterlimit:10;" d="M34.1,160.5c1.1-0.2,2.3,0.1,3.5,0.2
		c-0.6-0.9-1.4-1.6-2.5-1.8c-3.3-0.7-7.2,1.9-7.9,5.3c-0.2,1.3-0.3,2.7-0.2,4c0.4,3.3,2.2,5.6,5.3,6.9c0.1,0.1,0.3,0,0.7,0.1
		c-1-2.1-2-4.1-2.9-6C28.4,165.6,28.9,161.3,34.1,160.5z"/>
	<path style="fill:#FFFFFF;stroke:#FFFFFF;stroke-width:5;stroke-miterlimit:10;" d="M169.7,162.4c-1.6-0.1-3.2,0.3-4,2.2
		c0.7-0.2,1.2-0.4,1.8-0.5c3-0.6,5.9,1.1,6.5,3.9c0.4,2.1-0.1,3.9-1.1,5.7c-0.8,1.4-1.5,2.9-2.3,4.3c-0.1,0.2-0.1,0.5-0.2,0.7
		c0.2,0,0.5,0,0.7-0.1c0.5-0.3,1.1-0.5,1.6-0.9c2.5-1.9,3.4-4.6,3.7-7.6C176.9,165.4,173.1,162.6,169.7,162.4z"/>
	<path style="fill:#FFFFFF;stroke:#FFFFFF;stroke-width:5;stroke-miterlimit:10;" d="M126.2,152.4c0-0.9,0-1.8-0.2-2.7
		c-0.5-2-1.2-3.8-3.1-5.2c0.2,1,0.3,1.9,0.4,2.8c0.1,1.4-0.6,2-2,1.6c-0.3-0.1-0.7-0.2-1-0.4c-0.7-0.3-1.3-0.6-2-0.8
		c0,0.1,0,0.2,0,0.3c1.5,2.7,3.8,4.4,6.7,5.3C125.8,153.5,126.2,153.1,126.2,152.4z"/>
	<path style="fill:#FFFFFF;stroke:#FFFFFF;stroke-width:5;stroke-miterlimit:10;" d="M75.2,147.3c-0.8-0.1-1.6,0.1-2.1-0.3
		c-0.5-0.3-0.6-1.2-0.9-1.8c-1.1,1.6-1.7,3.3-2,5.2c-0.1,0.7,0.2,1,0.9,0.8c1-0.3,1.9-0.6,2.8-0.9C75.4,149.6,75.8,148.5,75.2,147.3
		z"/>
	<path style="fill:#FFFFFF;stroke:#FFFFFF;stroke-width:5;stroke-miterlimit:10;" d="M133,152c-0.4-1.2-1-2.4-1.6-3.6
		c-0.1-0.3-0.5-0.4-0.9-0.7c-0.5,2.3-0.5,2.3-2.8,2.4c-0.3,0.7-0.4,1.4,0.4,1.8c1.2,0.5,2.5,1,3.7,1.3
		C132.9,153.5,133.4,153,133,152z"/>
	<path style="fill:#FFFFFF;stroke:#FFFFFF;stroke-width:5;stroke-miterlimit:10;" d="M76.1,154.1c-0.6-0.4-0.9-1.4-1.3-2.1
		c-1,1.2-1.7,4.2-1.2,5.5c0.2,0.6,0.7,0.6,1.1,0.3c1.2-1,2.4-2,3.6-3.1c0.2-0.2,0.3-0.5,0.4-0.8C77.6,154,76.6,154.5,76.1,154.1z"/>
	<path style="fill:#FFFFFF;stroke:#FFFFFF;stroke-width:5;stroke-miterlimit:10;" d="M126.9,159.3c1.1,0.6,2,0.2,2.3-0.9
		c0.4-1.5,0-3-1-4.2c-0.5,0.8-0.7,1.9-1.4,2.2c-0.6,0.3-1.6-0.2-2.6-0.3C124.7,157.5,125.6,158.5,126.9,159.3z"/>
	<path style="fill:#FFFFFF;stroke:#FFFFFF;stroke-width:5;stroke-miterlimit:10;" d="M121.6,154c-0.2,0.3-0.5,0.5-0.6,0.8
		c-0.3,0.7-0.7,1.1-1.5,0.9c-0.2-0.1-0.5,0-0.8,0c-0.2,1.5,1.5,3.8,2.9,3.9c0.2,0,0.6-0.4,0.7-0.7c0.2-0.7,0.2-1.4,0.2-2.2
		c0-0.6,0.1-1.2,0-1.7C122.4,154.6,121.9,154.3,121.6,154z"/>
	<path style="fill:#FFFFFF;stroke:#FFFFFF;stroke-width:5;stroke-miterlimit:10;" d="M125,143.4c1.4,0.7,2.7,1.3,4.1,2
		C128.3,143.6,126.4,142.7,125,143.4z"/>
	<path style="fill:#FFFFFF;stroke:#FFFFFF;stroke-width:5;stroke-miterlimit:10;" d="M74,143.2c1.4-0.7,2.7-1.3,4-2
		C76.6,140.5,74.8,141.4,74,143.2z"/>
	<path style="fill:#FFFFFF;stroke:#FFFFFF;stroke-width:5;stroke-miterlimit:10;" d="M198.8,135.2c-3.6-1.7-7.5-2.4-11.4-3
		c-0.4-0.1-0.9,0.1-1.1,0.4c-0.8,0.8-1.4,1.6-2.2,2.6c0.5,0.4,0.8,0.7,1.3,1c1.2,0.7,2.5,0.8,3.8,0.7c2.8-0.3,5.6-0.6,8.4-0.8
		c0.6-0.1,1.3-0.1,1.9-0.2C199.1,135.4,198.9,135.3,198.8,135.2z"/>
	<path style="fill:#FFFFFF;stroke:#FFFFFF;stroke-width:5;stroke-miterlimit:10;" d="M148.6,141.2c-0.6-1.3-1.3-2.4-1.7-3.5
		c-1.6-4.2-4.6-6.9-8.6-8.6c-0.2-0.1-0.5-0.1-0.8-0.2c0,0.1-0.1,0.1-0.1,0.2c0.2,0.2,0.4,0.5,0.6,0.7c2,2.5,4.1,4.9,6.1,7.4
		C145.3,138.7,146.7,140.1,148.6,141.2z"/>
	<path style="fill:#FFFFFF;stroke:#FFFFFF;stroke-width:5;stroke-miterlimit:10;" d="M188.9,130.4c2.4,0.9,4.8,1.8,7.2,2.7
		c0.2,0.1,0.4,0.1,0.6,0.1c-1.1-2.6-6.9-6.9-9.3-6.9c0,0.4,0,0.8-0.1,1.2C187.1,129.2,187.4,129.9,188.9,130.4z"/>
	<path style="fill:#FFFFFF;stroke:#FFFFFF;stroke-width:5;stroke-miterlimit:10;" d="M142.9,138.2c1,1.7,2.2,3.3,3.5,4.7
		c2.2,2.5,5.1,3.8,8.4,4.4c-0.3-0.2-0.6-0.4-0.9-0.6c-1.5-1-3.1-1.9-4.6-3c-3-2.2-5.1-5.3-7.3-8.3c-1.5-2-3.1-3.9-5.3-5.1
		C139.3,132.7,141.1,135.4,142.9,138.2z"/>
	<path style="fill:#FFFFFF;stroke:#FFFFFF;stroke-width:5;stroke-miterlimit:10;" d="M177.9,118.6c-5-1.8-12.4-0.8-15.5,3
		c-0.4,0.5-0.6,1.4-1.1,1.7c-0.4,0.2-1.9,0.2-2,0.7c-0.1,0.7,1.5,0.7,1.7,1.4c1.1,6.2,7.7,9.1,14.1,9c3.8,0,7.6-2.1,8.7-4.5
		c0.7-1.5,1-3.9,0.3-6C183.3,121.3,180.4,119.5,177.9,118.6z"/>
	<path style="fill:#FFFFFF;stroke:#FFFFFF;stroke-width:5;stroke-miterlimit:10;" d="M167.4,127.2c-1,0.6-2,0.2-2.3-0.9
		c0-0.2-0.1-0.4,0-0.6c0.2-0.5,1.3-1.1,1.8-0.9c0.8,0.3,1.6,0.6,2.3,1.3C168.5,126.5,168,126.9,167.4,127.2z"/>
	<path style="fill:#FFFFFF;stroke:#FFFFFF;stroke-width:5;stroke-miterlimit:10;" d="M108,40.6c-2.3,2.1-3.5,4.6-3.5,7.7
		c0,5.6,0,11.2,0,16.7c0,0,0.1,0,0.1,0.1c0.1-0.3,0.2-0.6,0.3-0.8c1.4-3.4,3.5-6.2,6.8-8c1.2-0.7,2.4-1.6,3.6-2.4
		c1.1-0.7,1.8-1.8,2-3.1c0.3-1.5,1.1-2.9,2-4.1c0.2-0.3,0.4-0.5,0.6-0.8v6.8c-0.9,1.4-1.7,2.7-2.5,4.1c-1.4,2.5-3.2,4.5-5.9,5.7
		c-1.5,0.7-2.9,1.6-4.2,2.5c-1.1,0.8-2.1,1.8-2.5,3c1.7-0.8,3.4-1.7,5.1-2.5c0.9-0.4,1.9-0.7,2.9-1.1c2.6-1,4.4-2.8,5.5-5.4
		c0.6-1.6,1.2-3.1,1.8-4.7h1.8c-0.2,1.7,0,3.4,0.8,5.2c1.1,2.7,1.1,5.4,0.9,8.1c0,0.2-0.1,0.4-0.2,0.8h-0.1
		c-0.8-2.9-1.5-5.6-2.2-8.3c-1.6,1-2.5,2.4-2.8,4.2c-0.3,1.4-0.1,2.8,0.2,4.1h-1.3c-0.6-1.3-0.9-2.6-0.7-4.2c-1,1.4-1.7,2.8-2.2,4.2
		H94.6c0-1.6-0.5-3.1-1.4-4.6c0.1,1.6-0.2,3.1-0.7,4.6h-2.7c0-0.1,0-0.2,0-0.3c0.3-2.9,1-5.7,1.5-8.6c-0.1,0-0.1,0-0.2,0
		c-0.6,1.5-1.2,2.9-1.8,4.4c-0.1,0-0.2-0.1-0.3-0.1c0.2-1.3,0.5-2.7,0.7-4c0.2-1.9,0.4-3.9,0.4-5.8c0-2.3-1.3-4.2-2.5-6
		c-2.5-3.9-5.2-7.8-6.6-12.3c-0.1-0.4-0.3-0.8-0.4-1.2c-0.1,0-0.1,0-0.2,0c0.1,1.2,0.3,2.4,0.4,3.7c0.3,2.4,1.1,4.4,3.1,5.9
		c1.4,1,1.6,2.7,1.8,4.3c-1.1-1.4-1.7-3-3.5-3.9c0.6,3.2,0.7,6.3-0.3,9.4c-0.5,1.6-0.9,3.3-1.3,5c-0.2,1.1-0.3,2.3-0.5,3.4
		c-0.6-1.1-1-2.3-1.3-3.4c-1-3.9-0.6-7.8,0.3-11.6c1-4.1,1.1-8.2,0.1-12.3c-0.7-2.6-1.7-5.2-3.3-7.6c0.1,0.6,0.1,1,0.1,1.4
		c0.1,2.7-0.4,5.4-1.1,8.1c-0.1,0.5-0.3,1-0.4,1.6V26.7h-0.7c-0.5-1.7-1.6-3.2-3.9-4.4c-0.8-0.4-1.7-0.7-2.5-1
		c-0.2-0.1-0.4-0.1-0.4-0.1c0.8,1.3,1.7,2.5,2.3,3.8c0.2,0.5,0.3,1.1,0.5,1.6h-1.4c-0.6-3-3.9-6.2-6.9-6.6c-3-0.4-6-0.8-9.1-1.2
		c-1.2-0.2-2.5-0.3-4-0.4c1,3.3,2,6.5,3,9.7c5-3.4,10-3.3,15.2-1.4h-5.4v3.6c-2.4-1.2-5.2-1.6-7-0.8c-1.5,0.6-3.4,2.3-4.3,4.3
		c-1.1,2.5-0.2,5.7,1.1,8.1c2.5,4.7,8.7,8.8,13.5,8.2c0.6-0.1,1.4-0.6,2-0.5c0.5,0.1,1.5,1.1,1.9,0.8c0.6-0.5-0.6-1.5-0.4-2.1
		c0.6-1,1-2.1,1.2-3.2h3.3c-0.1,0.5-0.3,1-0.4,1.4c-0.5,1.9-0.7,4,0.1,5.9c1.3,3.2,2.9,6.2,5.2,8.7c2.2,2.4,4.4,4.8,6.4,7.4h-2.3
		c-0.8-1-1.7-2-2.6-2.9c-2.6-2.8-5.3-5.6-7.9-8.4c-1.9-2-4.3-3.5-7-4.2c-1.8-0.5-3.8-0.6-5.6-1.1c-1.9-0.5-3.6-1.2-5.2-2.1v-1.3h-2
		c-1.9-1.4-3.4-3.2-4.6-5.5c-1.7-3.4-2.6-6.9-2.4-10.8c0.1-1.7-1-2.7-2.5-3.7c0,0.6,0,1,0,1.3c0.2,3.5,0.5,7,0.7,10.5
		c0.2,3.6,1.4,6.7,3.8,9.1v13.4h7v-1.5c1.4,2,3.5,3.2,6.1,3.9c3.2,0.8,6.4,0.5,9.6,0.1c1-0.1,2-0.2,2.9,0.3
		c-2.5,0.5-5.1,0.9-7.9,1.5c0.5,0.2,0.7,0.3,0.8,0.3c1.3-0.1,2.6-0.2,4-0.3c2.5-0.2,4.9-0.5,7.4-0.4c1.5,0,2.7,0.8,3.6,1.8h-2.3
		c-2.5-0.7-5-0.6-7.6-0.2c-0.4,0.1-0.8,0.1-1.2,0.2h-2.9c-1-0.1-1.9-0.4-2.9-0.9c-0.9-0.4-1.8-0.8-2.8-1.1c-0.3-0.1-0.8,0-1.3,0
		c1.4,0.7,2.8,1.2,4,1.9 M54.7,65.6c-0.3-0.4-0.8-0.6-1.2-0.9c0.9,1.1,1.4,2.3,1.5,3.7v14.1c-0.3-0.7-0.4-1.5-0.5-2.3
		c-0.2-3.3-1.1-6.5-2.8-9.3c-1.7-2.8-3.5-5.5-5.4-8.2c-0.9-1.4-1.4-2.9-1.4-4.5c0-0.5,0-1.1,0-1.6c-0.6,1-0.8,2.2-0.5,3.2
		c0.5,1.5,1.1,2.9,1.8,4.2c0.8,1.5,1.4,3.1,1.4,4.9c-0.5-0.6-0.8-1.2-1.2-1.8c-3.8-6.1-9.3-9.2-16.5-9.4c-4-0.1-7.7,1-11.5,2.1
		c-0.2,0.1-0.5,0.2-0.5,0.3c-0.5,1-1.4,1-2.3,1.1c-1.1,0.1-2.2,0.3-3.2,0.4c-0.3,0-0.5,0.2-0.7,0.3c0.2,0.3,0.3,0.7,0.6,0.8
		c0.9,0.4,1.8,0.6,2.7,1c0.3,0.1,0.6,0.2,0.9,0.4c0,0.1-0.1,0.2-0.1,0.2c-3.1,0.2-5.8-1-8.6-2.6c0.6,2.5,2.7,3.6,4.3,5.4
		c-2.6-0.5-4.2-2.1-5.7-3.9c0.1,1.4,0.2,2.8,0.5,4.1c0.1,0.4,0.3,0.8,0.6,1.1c1.1,1.4,2.3,2.8,3.3,4.3c2.1,3.2,3.4,6.7,4.5,10.3
		c1.3,4.2,3.8,7.2,7.9,8.8c2.4,1,5,1.4,7.6,1.5c5.1,0.2,10.1-0.5,15-1.9c2.5-0.7,5.1-1.1,7.7-0.6c0.7,0.1,1.4,0.2,2,0.5V92
		c-4-0.6-7.8,0.2-11.4,1.8c-2.5,1.1-5.2,1.7-7.9,1.7c-2.1,0-4.3-0.2-6.6-0.4c1.2,0.5,2.3,1,3.4,1.4c3.9,1.2,7.8,0.8,11.7,0.1
		c1.5-0.3,2.9-0.6,4.4-0.9c-1.7,1.1-3.5,2-5.3,2.7v-0.2h-5.1v1.4c-0.4,0.1-0.8,0.1-1.3,0.1c0.4,0,0.9,0,1.3,0v6.3
		c-2.7-0.6-5.4-1.3-8.1-1.9c-1.3-0.3-2.6-0.7-3.9-1c0,0.1-0.1,0.1-0.1,0.2c0.7,0.8,1.3,1.7,2,2.6c-0.4,0.1-0.8,0.3-1.1,0.4
		c-1.2,0.4-2.3,0.6-3.5,1.1c-4.5,1.7-6.9,5.8-9.9,9.3c1.2-0.4,2.5-0.8,3.7-1.1c-1.5,2.3-3.9,3.2-6.2,4.4c1.5,0,3.1-0.1,4.5-0.4
		c1.8-0.4,3.1-1.4,4-3.2c0.4-0.9,0.9-1.6,1.5-2.3v9.4h0.5c0.1,1.4,0.6,3.1,1.5,4.4c1.5,2.2,4.7,3.1,7.5,3.3c5.3,0.3,12.1-2.8,14-7.3
		c0.1-0.1,0.1-0.3,0.1-0.4h4.3c-0.6,0.5-1.2,1-1.8,1.6c-1.3,1.4-2.6,2.7-3.9,4.1c-3,3.1-6.7,4.3-10.9,4.3c-2.9,0-5.8-0.7-8.5-1.8
		c-0.4-0.2-0.9-0.3-1.3-0.2c-1.5,0.6-2.9,1.3-4.5,2c2.9,1.4,5.6,3,8.5,3.9c5.8,1.9,11.2,1,15.8-3.3c1.3-1.2,2.6-2.3,3.8-3.5
		c2.4-2.3,5-4.4,8.1-5.7c0.8-0.3,1.7-0.5,2.5-0.8c0.1,0.1,0.1,0.2,0.2,0.3c-6.8,3.4-12.5,8-15.6,15.5c5-4,10.8-6.3,15.1-10.7
		c0.1,0.1,0.2,0.2,0.3,0.4c-0.7,1-1.3,2.1-2.1,2.8c-1.9,1.6-3.9,3.1-5.9,4.5c-2.7,1.9-5.5,3.5-7.7,6c-0.5,0.5-0.9,1.1-1.3,1.6
		c0.1,0.1,0.1,0.1,0.2,0.2c2.6-2.5,5.8-4,9.1-5.1c3.7-1.2,6.5-3.5,8.4-7c2.5-4.5,6.2-7.9,11.1-9.7c0.2-0.1,0.5-0.2,0.7-0.3
		c-0.1-0.1-0.1-0.1-0.1-0.1c-0.3-0.2-0.7-0.3-1-0.5c-3-1.5-5.5-3.4-7.5-6.2c-0.2-0.3-0.5-0.6-0.7-1h5.8h12.7V113c0,0,0.1,0,0.1,0
		c5.3,0.7,10.3,2.3,14.5,5.6h-6.8c-1.3-0.6-2.6-1.1-4-1.4c-2.6-0.7-5.4-0.9-8-1.4c-2.8-0.5-5.6-1-8.5-1.5c1.4,2.7,3.6,4.3,6.2,5.4
		c3.4,1.5,7.1,1.8,10.7,2.2c0.4,0.1,0.9,0.1,1.3,0.2v2.4c-0.7,0-1.5,0-2.2,0c-1.2,0.1-2.4,0.2-3.4,1c-0.7,0.5-1.1,1.1-0.9,1.9
		c0.2,0.8,1,1,1.8,0.9c1-0.1,2-0.2,3-0.5c0.6-0.2,1.2-0.3,1.8-0.5v2.1c-4.4,0.1-8.5,1.3-12.3,3.7c0.4-0.6,0.9-1.1,1.4-1.6
		c0.5-0.5,0.9-1,1.5-1.6c-3.7,1.7-6.2,4.3-8.1,7.5c-1.6,2.7-3.1,5.4-4.8,8c-2.7,4.1-5.9,7.8-10.3,10.2c-3.1,1.8-6.4,2.1-9.8,0.7
		c-1.5-0.6-2.6-1.6-3-3.3c-0.4-1.5,0.3-3.2,1.6-3.9c0.8-0.5,2.1-0.4,2.7,0.2c0.4,0.4,0.7,0.9,0.4,1.4c-0.3,0.6-0.8,0.8-1.4,0.7
		c-0.2-0.1-0.5-0.1-0.7-0.1c0,0.1,0,0.1-0.1,0.2c0.3,0.2,0.7,0.4,1,0.5c1.4,0.6,2.7,0,3.1-1.5c0.3-1.3-0.3-2.6-1.5-3.2
		c-2-1.1-4-0.9-5.8,0.4c-1.8,1.3-2.3,3.2-1.9,5.3c0.6,3.3,2.9,5.2,5.8,6.2c2.8,1,5.5,1.2,8.1,0.8v0.9H36.3v10.5
		c-1.1-1.4-1.6-3.2-1.2-5.3c0.1-0.7,0.3-1.4,0.4-2.3c-1.1,0.4-1.6,1.3-1.8,2.1c-0.8,3.1-0.3,5.9,1.8,8.4c2.3,2.8,8.4,3.5,11.6,1.7
		c-0.5-0.7-0.9-1.5-1.5-2.2c-0.2-0.2-0.6-0.3-0.8-0.3c-1.1,0-2.2,0.2-3.4,0.1c-1.3,0-2.4-0.3-3.3-0.8h9.5c0.3,0.4,0.5,0.8,0.9,1.1
		c2.1,2.5,5.1,3,8.1,3.2c5.4,0.4,10.4-1.1,14.9-4.1c5.4-3.6,9.2-8.6,12.2-14.3c0.1-0.3,0.3-0.5,0.4-0.8v0.6h5.2
		c-0.2,0.4-0.3,0.8-0.5,1.2c-0.8,1.4-0.3,2.4,0.7,3.5c2.1,2.3,4.8,3.8,7.6,5c0.9,0.3,1.4,0.9,1.7,1.7c1.3,3.2,1.7,6.6,1.8,10
		c0,1.2-0.3,1.5-1.5,1.7c-1.5,0.2-3.1,0.4-4.6,0.7c-1.3,0.2-2.5,0.6-3.8,0.8c0,0.1,0,0.2,0,0.2c7.7,0,15.3,0,23,0
		c0-0.1,0-0.1,0.1-0.2c-0.5-0.2-1.1-0.5-1.6-0.5c-2.3-0.3-4.6-0.6-6.9-0.9c-1.2-0.1-1.4-0.3-1.4-1.5c0.1-3.6,0.6-7.2,1.7-10.7
		c0.1-0.3,0.4-0.7,0.7-0.8c2.4-1.2,4.6-2.6,6.4-4.5c2-2,2-1.4,0.3-3.9c-0.7-0.9-1.3-1.5-1.9-1.9h6.5v-13.7c2-0.7,3.8-1.7,5.5-2.9
		c0.9-0.7,1.7-1.5,2.5-2.2c-1.8-2.9-4.2-4.8-7.4-5.3c-0.2,0-0.4,0-0.5-0.1v-5.3c1.6,0.4,3.2,0.8,4.8,1.2c1,0.2,1.9,0.5,2.9,0.7
		c0.7,0.1,1.2-0.2,1.5-0.9c0.3-0.7,0.1-1.4-0.6-1.7c-1.1-0.6-2.2-1.2-3.4-1.4c-1.7-0.2-3.4-0.2-5.1,0c0,0-0.1,0-0.1,0v-3.1
		c1.3-0.2,2.6-0.4,3.9-0.5c0.5,0,1.1-0.1,1.6-0.1v1.5h13.7c-0.3,0.2-0.6,0.3-0.9,0.5c0.4,0.2,0.6,0.3,0.8,0.4
		c2.3,0.8,4.4,2.1,6.3,3.8c2,1.8,3.5,4,4.8,6.4c1.7,3.1,4.2,5.3,7.5,6.7c1.8,0.8,3.5,1.5,5.3,2.4v5.9h5.2v-7.8
		c2.1,2,4.5,3.6,7.4,4.2c3.5,0.8,7.1,0,10.9,0.2c-1.3-1.3-2.6-2.1-4.1-2.4c-1.5-0.3-3-0.5-4.5-0.5c-3.5-0.2-6.8-1-9.7-2.9v-1.5h-3.5
		c-0.2-0.3-0.4-0.7-0.6-1c-3.2-5.3-7.9-8.8-13.3-11.7c0.4,0,0.7,0,1.1,0.1c1.9,0.4,3.6,1.3,5.1,2.5c2.8,2.5,5.6,5,8.3,7.6
		c3.8,3.6,8.2,5.1,13.4,4.2c2.8-0.5,5.3-1.6,7.8-2.8c1-0.4,1.9-0.9,3-1.4c-3.6-1.1-7.1-1.3-10.7-0.7c-4.4,0.8-8.7,0.4-12.3-2.5
		c-1.5-1.2-2.9-2.7-4.2-4.2c-2.2-2.4-4.5-4.6-7.7-5.4v-1.6c0.8,0,1.6,0,2.4,0c1.5,0,2.6-0.7,3.3-2.1c1.1-2.2,2.7-3.8,4.7-5.1
		c3.6-2.2,7.4-2.9,11.6-2.7c5.4,0.3,9.5,2.4,12,7.5c0.4,0.9,1.2,1.8,2.1,2.3c2,1.1,4.4,1,6.6,1.4c-2.3-1.3-5-2.1-6.7-4.5
		c0-0.1,0.1-0.2,0.1-0.2c1.2,0.4,2.4,0.8,3.9,1.3c-1.6-1.9-3-3.7-4.5-5.4c-2.4-2.8-5.3-4.7-9-5.2c-0.3,0-0.6-0.2-1-0.3
		c0.6-1,1.2-1.8,1.8-2.8c-3.7,0.8-7.2,1.6-10.7,2.3c-4.4,0.8-7.8,3-10.4,6.6c-0.9,1.3-2,2.5-3,3.8c-0.4,0.4-0.8,0.8-1.5,0.4
		c0.4-0.8,1-1.6,1.2-2.5c1-3.3,3.2-5.6,6.2-7.2c0.4-0.2,0.7-0.6,1-0.9c0-0.1-0.1-0.1-0.1-0.2c-2.2,0.5-4.5,0.9-6.9,1.4
		c0.3-0.9,0.6-1.5,0.8-2.3c-0.3,0.2-0.4,0.2-0.5,0.3c-1.2,0.8-2.4,1.7-3.5,2.5v-3.9c0.1,0,0.1,0,0.2,0c-0.1,0-0.1,0-0.2-0.1v-2.3
		c2.7,0.9,5.4,1.4,8.2,1.1c1.4-0.1,2.7-0.6,4.1-1.5c-0.5,0-0.7,0-1,0c-3.7,0.2-7.1-0.5-10.4-2.1c-0.3-0.1-0.6-0.3-0.9-0.4v-3.5
		c1.2,0.4,2.4,1,3.5,1.7c2.9,1.8,6.1,2.9,9.6,3.1c1.2,0.1,2.4,0,3.6,0c-4.2-0.6-8.1-2-11.7-4.4c6.5,1.6,13,3.3,19.4,0
		c-1.2,0-2.3,0.1-3.5,0.2c-3.9,0.2-7.6-0.5-11.2-2.1c-3.3-1.5-6.8-2.3-10.4-1.9c-0.6,0.1-1.2,0.1-1.8,0.2c0.2-0.3,0.4-0.4,0.6-0.5
		c3.3-1.3,6.6-1.1,9.9,0c6.2,2,12.4,2.9,18.9,2.1c3.2-0.4,6.2-1.5,8.6-3.7c1.2-1.1,2.1-2.4,2.8-3.8h1.4v-3.6
		c1.4-4.5,3.4-8.7,6.9-11.9c1.5-1.4,2.1-3,2.4-4.9c0.1-0.8,0.2-1.7,0.2-2.5c-1.6,2.2-3.2,4.1-5.9,4.7c1.7-1.4,3.2-3,4-5.2
		c-5.2,2.3-7.3,2.8-9,2.3c1.5-0.7,3.3-0.7,4.3-2.1c-2.7-0.9-5.4-1.8-8.1-2.8c-4.8-1.8-9.6-2.6-14.7-1.4c-5.5,1.3-9.8,4.2-12.6,9.3
		c-0.2,0.4-0.5,0.8-0.8,1.2c-0.2-0.3-0.2-0.5-0.2-0.7c0.5-1.5,1-3,1.6-4.4c0.6-1.5,1.4-3,2-4.6c0.4-1.1,0.1-2.1-0.7-2.9
		c0.5,2.2,0,4.1-1.1,5.9c-0.1,0.1-0.1,0.2-0.2,0.3v-8.5h-4.1c0.7-1.5,1.7-2.8,3.2-3.8c2.9-2,4.6-4.9,5-8.4c0.3-2.3,0.5-4.7,0.7-7
		c0.2-2,0.4-4.1,0.5-6.2c-1.8,0.8-2.5,1.9-2.6,3.7c-0.2,2.1-0.3,4.2-0.8,6.2c-0.3,1.1-0.7,2.1-1.1,3V34.4c0.1-1,0.2-2,0.3-3
		c0.3-3.3,0.7-6.6,2.3-9.9c-1.9,0.8-3,2-3.6,3.6c-0.5,1.4-1,2.7-1.3,4.2c-0.1,0.5-0.2,1-0.2,1.6h-2.1c0.9-2.8,1.8-5.5,2.8-8.2
		c-0.1,0-0.2,0-0.3,0c-2.6,0.1-5.1,0.2-7.7,0.4c-1.6,0.1-3.2,0.3-4.7,0.7c-3.7,0.9-6.2,3.2-7.5,7.2h-1.4c0.3-2.3,1.6-4.3,3.3-5.9
		c-0.1-0.1-0.1-0.2-0.2-0.3c-1.3,0.5-2.6,1-3.8,1.6c-2,1-3.1,2.7-3.3,5c0,0.4-0.1,0.7-0.1,1.1c-0.2,1.8,0,3.6,0.7,5.5
		c0.2-0.4,0.5-0.8,0.7-1.2v14h3.7c0.3,0.5,0.9,1,1,1.6c0.1,0.5-0.6,1.8-0.2,2.1c0.6,0.4,1.3-1.1,1.9-1c3.6,0.9,6.8-0.3,9.5-2.7h6.9
		c-2.8,2.8-6.5,4.4-10.9,5.1c-1.3,0.2-2.6,0.4-3.8,0.7v-2.2h-8.2c0.4-4-0.2-7.9-1.4-11.7c-1.2-3.6-1.8-7.2-1.7-10.9
		c0-0.2,0-0.5,0-0.8c-0.1,0-0.2-0.1-0.3-0.1c-0.8,1.6-1.6,3.1-2.3,4.7c-0.3,0.8-0.6,1.5-0.9,2.3h-6c0.1-0.1,0.2-0.2,0.4-0.3
		c1.2-1.1,1.9-2.5,2.4-4.1c0.8-2.7,0.6-5.5-0.1-8.2c-0.4-1.6-0.9-3.1-1.4-4.7c-0.2,0.3-0.3,0.6-0.3,0.9c0,0.5,0,1.1,0.1,1.6
		c0.5,5.8-0.7,11.1-4.5,15.6c-1.5,1.8-3,3.6-4.5,5.4c0,0,0.1,0.1,0.1,0.1c1.8-1.5,3.7-3,5.5-4.5v3.3c-1.1,2.7-2.8,4.9-5.4,6.4
		c-2.2,1.2-4.3,2.5-6.4,3.8c-0.2,0.1-0.5,0.3-0.9,0.4c-0.1-1.7,0.5-3.1,1.4-4.4c2.7-3.6,5.4-7.3,8.2-10.8c2.5-3.1,4.7-6.2,4.9-10.4
		c0.1-3.8-0.5-7.4-2.1-10.9c-0.4,2.7,0,5.4-1.7,7.7c0.2-3.1,0-6.1-1.2-9c-1.2-2.9-3-5.4-5-7.7c-0.1,0-0.2,0.1-0.3,0.1
		c0.2,1,0.3,2,0.6,3c0.7,2.8,1.1,5.5,0.5,8.3c-0.2,0.8,0,1.8,0.4,2.4c1.6,2.7-1.6,6.1-1.9,9.2 M85,53.2c0.1,0,0.3,0,0.4,0
		c-0.1,1.8,0,3.6-0.3,5.4c-0.4,2.2-1.3,4.3-2,6.5C81.9,60.8,83.7,57.1,85,53.2z M158.7,68.9c-3.8,4.7-6.6,9.9-7.2,16.1
		c-0.1,1.6-1,2.9-2.2,4c0-0.4,0.1-0.8,0.2-1.1c0.3-1.3,0.9-2.5,1-3.9c0.4-3.1,0.6-6.3,0.8-9.4c0.2-2.2,0.3-4.3,2.3-6
		c-1.3,0.4-2.1,1.1-2.7,2c-1.6,2-2.5,4.3-3.1,6.8c-1,4.5-1.9,9-2.9,13.6c0,0.2-0.1,0.4-0.2,0.5V80.6c0.1-0.8,0.3-1.6,0.5-2.5
		c-0.2,0.2-0.4,0.5-0.5,0.7v-7.3c0.8-0.4,1.6-0.9,2.5-1.4c-0.9,0.2-1.7,0.4-2.5,0.6V69c3.3,0,6.1-1.1,8.1-3.6V68h6.5
		C159.2,68.3,158.9,68.6,158.7,68.9z M143.4,59.6c3.8-0.1,7.5-0.6,11.3-2.1c-0.1,0.3-0.2,0.5-0.3,0.7h-1.6v2.3
		c-1.5,1.6-3.5,2.5-6,2.7c-3.9,0.2-7.8,0.4-11.7,0.5c-0.4,0-0.8,0-1.2,0c0-0.1,0-0.2-0.1-0.3c0.5-0.3,0.9-0.5,1.4-0.8h7.6v-2.9
		C143.1,59.7,143.3,59.6,143.4,59.6z M128.2,54.3c0,1.9-0.2,3.7-0.5,5.6c-0.2,2-0.7,3.9-1,5.9c-0.1,0-0.2,0-0.3,0
		c0-0.3-0.1-0.5-0.1-0.8c0-2.6-0.4-5.1-1.3-7.6c-0.3-1-0.6-2-0.8-3.1H128.2z M128.5,65.1c1.4-1.3,2.6-2.7,3.6-4.2v1.6h1.5
		c-2,1.8-3.9,3.7-5.7,5.7h-2.4C126.4,67.2,127.4,66.1,128.5,65.1z M81.1,159.7c-1,0.6-1.4,0.4-1.7-0.7c-0.1-0.6-0.3-1.1-0.4-1.8
		c-0.3,0.2-0.6,0.4-0.8,0.6c-1.4,0.8-2.8,1.8-4.4,2.4c-1.6,0.6-2.3,0-2.3-1.7c0-1.7,0.1-3.5,0.1-5.4c-0.7,0.1-1.4,0.3-2.1,0.2
		c-0.6-0.1-1.2-0.7-1.8-1.1c-0.7,1-1.5,2.1-2.4,3.2c-0.6,0.8-1.2,1.5-1.8,2.3h-6.9c3.8-2.7,6.8-6.1,9.3-9.9
		c2.6-3.9,5.2-7.9,8.4-11.4c2.7-2.9,5.6-5.4,9.5-6.3c0.1,0,0.2-0.1,0.3-0.1v2.9c-2.4,0.6-4.4,2.1-6.1,4.1c-0.7,0.8-0.7,1.3,0.2,1.9
		c1.3,1,2.6,2,3.9,2.8c0.6,0.4,1.3,0.7,2,1v3.1c-0.3,0.1-0.6,0.3-0.9,0.4c-0.5,0.2-1,0.4-1.5,0.6c-1.3,0.4-1.9,0-1.9-1.4
		c0-0.9,0.1-1.8,0.2-3c-0.4,0.4-0.6,0.6-0.9,0.8c-1.7,1.9-2.4,4.2-2.3,6.8c0,1.1,0.5,1.5,1.5,1c1.4-0.6,2.7-1.3,3.9-2.2
		c0.7-0.5,1.3-1.2,1.8-2v6.5c-1.5,0.4-1.5,0.4-2-0.8c-0.1-0.3-0.5-0.5-0.7-0.7c-0.3,0.3-0.8,0.6-0.9,1c-0.1,1.2,0,2.4,0.1,3.5
		c0,0.7,0.5,0.9,1.1,0.6c0.6-0.3,1.2-0.7,1.8-1c0.3-0.2,0.5-0.3,0.6-0.5v2.7C83,158.5,82.1,159.1,81.1,159.7z M154.6,113.7
		c0.1,0.1,0.2,0.1,0.1,0.1c-0.7,2-1.2,4-2,5.9c-0.1,0.3-0.3,0.6-0.5,0.9v-4.3C152.8,115.3,153.7,114.5,154.6,113.7z"/>
	<path style="fill:#FFFFFF;stroke:#FFFFFF;stroke-width:5;stroke-miterlimit:10;" d="M95.9,49.1c2.8,1.4,4.3,3.6,5.2,6.4
		c0.1,0.2,0,0.5,0.1,0.7c-0.1,0-0.1,0-0.2,0.1c-0.6-0.8-1.1-1.5-1.7-2.3c-0.6-0.7-1.3-1.5-2-2.1c-0.7-0.7-1.5-1.3-2.3-1.8
		c-0.8-0.5-1.6-1-2.4-1.5c1.1,1.4,2,2.9,2.1,4.6c0.1,2.5,0.9,4.8,1.9,7c0.1,0.2,0.1,0.4,0.1,0.5c-0.1,0-0.1,0.1-0.2,0.1
		c-0.7-0.9-1.5-1.7-2.1-2.6c-0.6-0.9-1.1-1.8-1.7-2.8c0,0.1,0,0.2,0,0.3c0.1,0.5,0.2,1.1,0.4,1.6c1,3.6,2.9,6.6,5.8,9
		c1.1,0.9,2.4,1.5,4.2,1.5c0-1.4,0.1-2.6,0-3.8c-0.4-5-0.9-10-1.2-14.9c-0.3-3.9-1.7-7.2-5.1-9.4c-0.6-0.4-1.1-0.8-1.7-1.2
		c-1.5-1.2-2.8-2.6-3.6-4.4c-0.5-1.3-0.9-2.7-1.3-4c-0.4-1.5-0.8-3-1.1-4.5c-0.5-1.9-0.9-3.8-1.3-5.6c-0.4,0.7-0.8,1.6-1.3,2.4
		c-3.7,5.9-3.3,12-0.2,18C88.3,44.3,91.8,47.1,95.9,49.1z M101.1,63.9c-2.2-3.7-5.4-6.8-5.2-11.5C99.4,54.7,101.7,59.7,101.1,63.9z"
		/>
	<path style="fill:#FFFFFF;stroke:#FFFFFF;stroke-width:5;stroke-miterlimit:10;" d="M93,19.6c4.3-3.8,9.1-4.5,14.4-2.5
		c0.2-1.5-0.1-4.7-0.9-6.7c-1.1-2.9-2.2-5.8-1.9-9.1c-1.3,1.6-2.5,3.1-3.8,4.6c-2.1,2.5-4.2,5.1-6.3,7.6
		C93.1,15.4,92.7,17.4,93,19.6z"/>
	<path style="fill:#FFFFFF;stroke:#FFFFFF;stroke-width:5;stroke-miterlimit:10;" d="M108.8,16.3c0.2,1.7,1,2.6,2.2,3.4
		c1.1-3.5-0.8-9.2-4-11.4c0.1,0.4,0.2,0.6,0.3,0.9C107.8,11.6,108.5,13.9,108.8,16.3z"/>
	<path style="fill:#FFFFFF;stroke:#FFFFFF;stroke-width:5;stroke-miterlimit:10;" d="M116.5,55c-3.8,1.1-7.7,4.3-9.2,7.7
		C111.3,61.2,114.3,58.8,116.5,55z"/>
	<path style="fill:#FFFFFF;stroke:#FFFFFF;stroke-width:5;stroke-miterlimit:10;" d="M90.3,22c0.2-1.9,1-3.6,1.8-5.3
		c0.5-1.1,0.8-2.2,1.2-3.3c-3.9,3-5.1,7.6-3.1,11.3C90.2,23.7,90.2,22.8,90.3,22z"/>
	<path style="fill:#FFFFFF;stroke:#FFFFFF;stroke-width:5;stroke-miterlimit:10;" d="M118.3,42.9c-2.3,2.2-4.6,4.3-6.8,6.5
		C114.4,47.9,117,46.1,118.3,42.9z"/>
	<path style="fill:#FFFFFF;stroke:#FFFFFF;stroke-width:5;stroke-miterlimit:10;" d="M104.5,18.9c-1.6-0.4-4-0.3-6,0.7
		c-2.4,1.3-3.7,4.4-4.1,7.1C93.5,32,95.8,39,100,41.5c0.5,0.3,1.5,0.3,1.9,0.8c0.3,0.3,0.5,1.8,1,1.8c0.7,0,0.4-1.6,1-1.9
		c6-2.2,7.6-9.2,6.5-15.5C109.7,23,107.1,19.6,104.5,18.9z M105.3,40.2c-0.9,0.5-2.2,0.5-2.9,0.3c-5.7-1.4-5.8-7.4-3.4-10.7
		c0.4-0.6,1.4-1.5,3.7-1.9c2.6-0.4,5,2.3,5.6,5.9C109,37.5,108.2,38.5,105.3,40.2z"/>
	<path style="fill:#FFFFFF;stroke:#FFFFFF;stroke-width:5;stroke-miterlimit:10;" d="M104.4,29.2c-0.9-0.5-2.4-0.3-3.2,0.4
		c-1.2,1.1-1.7,2.4-1.7,4c0,1.6,0.7,2.8,1.8,3.9c0.7,0.7,1.7,1,2.7,1.1c0.3,0,0.7-0.2,0.9-0.4c0.8-0.9,1.8-1.7,2-2.9
		c0.4-1,0.3-1.9,0.1-2.9C106.7,31,105.7,29.9,104.4,29.2z M104.2,38c-0.2,0.1-0.4,0.1-0.5,0.1c-0.5-0.1-1.3-1.1-1.2-1.6
		c0.2-0.8,0.3-1.7,0.9-2.5c0.5,0.6,1,1.1,1.4,1.6C105.5,36.4,105.3,37.5,104.2,38z"/>
	<path style="fill:#FFFFFF;stroke:#FFFFFF;stroke-width:5;stroke-miterlimit:10;" d="M46.1,29.2c0,1.7,0.4,3.5,0.5,5.2
		c1.7-2,2.6-4.5,2.3-6.6c-0.2-1.6-0.5-3.3-0.9-4.9c-0.3-1.2-0.9-2.4-1.5-3.5c-0.5-0.9-1.2-1.5-2.3-1.7c0,0.2,0,0.3,0,0.4
		C45.6,21.7,46,25.4,46.1,29.2z"/>
	<path style="fill:#FFFFFF;stroke:#FFFFFF;stroke-width:5;stroke-miterlimit:10;" d="M40.1,138.5c0.5-0.5,0.8-1.1,1.2-1.6
		c-0.1-0.1-0.1-0.1-0.2-0.2c-0.4,0.2-0.7,0.4-1.1,0.6c-2.4,1.4-4.8,2.6-7.7,2.9c-2.1,0.2-4.2,0.2-6.2,0.4c-1.9,0.2-3.5,1-4.8,2.6
		c1.4,0.1,2.7-0.1,4,0.1C31.1,144.3,36,142.6,40.1,138.5z"/>
	<path style="fill:#FFFFFF;stroke:#FFFFFF;stroke-width:5;stroke-miterlimit:10;" d="M20.9,130.3c-0.7-0.9-1.4-1.9-2.2-2.7
		c-0.1-0.1-0.5-0.1-0.8-0.1c-2.4,0.4-4.8,0.8-7.2,1.3c-1.6,0.3-3.2,0.8-4.6,1.8c0.2,0.1,0.2,0.2,0.3,0.2c3.4,0.4,6.8,0.9,10.3,1.3
		c1.5,0.2,2.9,0,4-1.1C20.8,130.8,21,130.4,20.9,130.3z"/>
	<path style="fill:#FFFFFF;stroke:#FFFFFF;stroke-width:5;stroke-miterlimit:10;" d="M17.8,121.5c-3.9,1.1-6.8,3.5-9.3,6.5
		c0,0.1,0.1,0.2,0.1,0.3c2.3-0.7,4.6-1.4,6.8-2.2C18,125.3,18.4,124.3,17.8,121.5z"/>
	<path style="fill:#FFFFFF;stroke:#FFFFFF;stroke-width:5;stroke-miterlimit:10;" d="M62.4,131.4c1.5-2.2,3.1-4.3,5.3-5.9
		c-3.5,0.9-6.4,2.7-8.2,5.9c-0.9,1.6-1.8,3.2-2.6,4.9c-0.2,0.3-0.3,0.6-0.5,1.1C58.9,135.6,60.8,133.7,62.4,131.4z"/>
	<path style="fill:#FFFFFF;stroke:#FFFFFF;stroke-width:5;stroke-miterlimit:10;" d="M60.5,136.9c2.3-3.1,4.6-6.1,7-9.2
		c0.1-0.2,0.3-0.3,0.5-0.5c0.2-0.2,0.3-0.4,0.5-0.5c-2,1.1-3.6,2.7-5,4.6c-1.2,1.7-2.5,3.4-3.9,5c-2.6,3-5.9,5.3-9.5,7.1
		C54.5,142.7,57.9,140.5,60.5,136.9z"/>
</g>
</svg>
