<!--?xml version="1.0" encoding="utf-8"?-->
<!-- Generator: Adobe Illustrator 24.0.1, SVG Export Plug-In . SVG Version: 6.00 Build 0)  -->
<svg version="1.1" id="Layer_1" xmlns="http://www.w3.org/2000/svg" xmlns:xlink="http://www.w3.org/1999/xlink" x="0px" y="0px" viewBox="0 0 1072 136.4" style="" xml:space="preserve">
<g>
	<g>
		<path style="fill:none;stroke:#FFFFFF;stroke-miterlimit:10;" d="M93.1,34.9l-4,0.1c-2.5,0.1-4.5,0.2-5.9,0.2
			c-1.5,0-3.4-0.1-5.8-0.2l-4.1-0.1c-0.2,0-0.3,0.2-0.3,0.6c0,0.4,0.1,0.6,0.3,0.6c2.2,0,3.6,0.2,4.5,0.7c0.8,0.5,1.2,1.4,1.2,2.8
			c0,0.5-0.1,1.6-0.4,3.2l-3.4,19.5H46.5L50,42.8c0.4-1.9,0.8-3.3,1.3-4.2s1.2-1.6,2.2-1.9c1-0.4,2.4-0.6,4.3-0.6
			c0.1,0,0.2-0.2,0.2-0.6c0-0.4-0.1-0.6-0.2-0.6L53.6,35c-2.5,0.1-4.5,0.2-6,0.2S44.3,35.1,42,35l-4.1-0.1c-0.1,0-0.2,0.2-0.2,0.6
			c0,0.4,0.1,0.6,0.2,0.6c2.2,0,3.7,0.2,4.6,0.7c0.8,0.5,1.2,1.4,1.2,2.8c0,0.4-0.1,1.4-0.4,3l-7.8,44c-0.3,1.9-0.7,3.3-1.2,4.2
			c-0.5,0.9-1.2,1.5-2.2,1.9c-1,0.3-2.4,0.5-4.4,0.5c-0.2,0-0.3,0.2-0.3,0.6s0.1,0.6,0.3,0.6c1.7,0,3,0,4-0.1l5.7-0.1l6.1,0.1
			c1,0.1,2.4,0.1,4.1,0.1c0.2,0,0.3-0.2,0.3-0.6s-0.1-0.6-0.3-0.6c-2.2,0-3.7-0.2-4.6-0.7c-0.8-0.5-1.2-1.4-1.2-2.7
			c0-0.4,0.1-1.5,0.4-3.1l3.9-22.1h28.8L71,86.7c-0.3,2-0.7,3.4-1.2,4.3s-1.2,1.5-2.1,1.8c-1,0.3-2.4,0.5-4.5,0.5
			c-0.1,0-0.2,0.2-0.2,0.6s0.1,0.6,0.2,0.6c1.8,0,3.3,0,4.3-0.1l5.9-0.1l5.9,0.1c1,0.1,2.2,0.1,3.9,0.1c0.2,0,0.3-0.2,0.3-0.6
			s-0.1-0.6-0.3-0.6c-2.2,0-3.7-0.2-4.6-0.7c-0.8-0.5-1.2-1.4-1.2-2.9c0-0.8,0.1-1.7,0.3-2.9l7.8-44c0.4-1.9,0.8-3.3,1.3-4.2
			s1.2-1.5,2.1-1.9c1-0.3,2.4-0.5,4.3-0.5c0.2,0,0.3-0.2,0.3-0.6C93.4,35.1,93.3,34.9,93.1,34.9L93.1,34.9z" class="PVUdZHYk_0"></path>
	</g>
	<g>
		<path style="fill:none;stroke:#FFFFFF;stroke-miterlimit:10;" d="M115.4,56.3c-3.5,0-6.9,1-10.1,3s-5.8,4.6-7.9,7.7
			c-2.1,3.1-3.5,6.4-4.1,9.6c-0.3,1.8-0.5,3.4-0.5,4.8c0,4.1,1,7.5,3.1,10.1s5.2,3.9,9.4,3.9c4.9,0,9.7-1.9,14.2-5.8
			c0.1-0.2,0.1-0.4,0-0.6c-0.2-0.2-0.3-0.3-0.5-0.3h-0.1c-2.7,2.1-5.7,3.1-9.2,3.1c-3.2,0-5.7-1.2-7.4-3.5c-1.7-2.3-2.5-5.4-2.5-9.3
			c0-1.8,0.1-3.4,0.4-4.9c6.1-1.1,11.4-2.8,15.7-5.3c4.3-2.4,6.5-5.1,6.5-8.1c0-1.3-0.6-2.4-1.8-3.2
			C119.3,56.7,117.6,56.3,115.4,56.3L115.4,56.3z M100.3,72.8c0.8-4.1,2.2-7.5,4-10c1.8-2.6,4.1-3.8,6.6-3.8c1.1,0,2.1,0.3,2.9,0.9
			c0.8,0.6,1.2,1.4,1.2,2.5c0,0.2-0.1,0.6-0.2,1.2C113.9,68,109,71.1,100.3,72.8L100.3,72.8z" class="PVUdZHYk_1"></path>
	</g>
	<g>
		<path style="fill:none;stroke:#FFFFFF;stroke-miterlimit:10;" d="M144.9,25.4h-0.2l-13.1,6.4c-0.3,0.1-0.3,0.3-0.2,0.6
			s0.3,0.5,0.6,0.5h0.1c1.9-0.9,3.4-1.4,4.4-1.4c1.3,0,1.9,0.8,1.9,2.5c0,0.6-0.1,1.4-0.3,2.4L129,85.9c-0.4,1.9-0.6,3.5-0.6,4.7
			c0,1.6,0.3,2.8,0.9,3.5c0.6,0.8,1.6,1.1,2.9,1.1c1.6,0,3.3-0.6,5-1.8c1.7-1.2,3.6-3.1,5.7-5.6c0.2-0.2,0.2-0.4,0.1-0.6
			c-0.1-0.2-0.3-0.3-0.5-0.3c-0.1,0-0.3,0.1-0.4,0.2c-1.4,1.3-2.6,2.3-3.5,3c-1,0.7-1.7,1-2.4,1c-1.1,0-1.7-0.9-1.7-2.8
			c0-0.7,0.1-1.5,0.3-2.5l10.9-59.7c0.1-0.1,0-0.3-0.2-0.5C145.3,25.5,145.1,25.4,144.9,25.4L144.9,25.4z" class="PVUdZHYk_2"></path>
	</g>
	<g>
		<path style="fill:none;stroke:#FFFFFF;stroke-miterlimit:10;" d="M162.1,50.1c-0.2,0-0.4,0.1-0.4,0.3c-0.3,1.1-0.8,2.2-1.7,3.1
			c-0.9,1-1.8,1.8-2.9,2.6c-1.1,0.8-1.6,1.3-1.6,1.4l-1.2,7c-1.9,1.3-3.7,2.8-5.4,4.3c-0.2,0.1-0.2,0.3-0.1,0.6
			c0.1,0.3,0.3,0.4,0.6,0.4l0.2-0.1c2.5-1.9,4-3,4.4-3.2l-8.1,45.2c-0.4,2.1-0.7,3.6-1,4.5s-0.8,1.5-1.4,1.9c-0.6,0.4-1.6,0.7-3,1
			c-0.3,0.1-0.3,0.3-0.3,0.7c0.1,0.3,0.2,0.5,0.4,0.5h0.1l16.9-2.7c0.3-0.1,0.3-0.3,0.2-0.6c-0.1-0.3-0.2-0.4-0.4-0.4h-0.1
			c-1.1,0.1-1.9,0.2-2.3,0.2c-1.1,0-1.9-0.2-2.4-0.7s-0.8-1.3-0.8-2.3c0-0.7,0.1-1.6,0.3-2.7l3-17.1c1.3,0.2,3,0.3,4.9,0.3
			c3.4,0,6.6-1.1,9.9-3.3c3.2-2.2,6-5.2,8.3-8.9c2.3-3.7,3.8-7.7,4.3-11.9c0.2-1.3,0.3-2.4,0.3-3.4c0-3.2-0.8-5.7-2.4-7.4
			c-1.6-1.7-4-2.5-7.1-2.5c-3.8,0-7.9,1.2-12.3,3.5l1.7-9.8c0.1-0.3-0.1-0.4-0.4-0.5C162.2,50.1,162.2,50.1,162.1,50.1L162.1,50.1z
			 M162.9,91.6c-2.5,0-4.9-0.5-7.2-1.5l4.9-27.5c2.7-1.3,5.3-1.9,7.8-1.9c5.3,0,7.9,3.1,7.9,9.3c0,0.7-0.1,1.8-0.2,3.3
			c-0.7,5.6-2.1,10-4.3,13.3C169.6,89.9,166.6,91.6,162.9,91.6L162.9,91.6z" class="PVUdZHYk_3"></path>
	</g>
	<g>
		<path style="fill:none;stroke:#FFFFFF;stroke-miterlimit:10;" d="M201.1,37.1c-1.4,0-2.5,0.4-3.3,1.1c-0.8,0.8-1.2,1.8-1.2,3.1
			c0,1.4,0.4,2.5,1.2,3.3s1.9,1.2,3.3,1.2c1.5,0,2.6-0.4,3.3-1.2c0.8-0.8,1.1-1.9,1.1-3.3c0-1.3-0.4-2.4-1.2-3.1
			C203.6,37.5,202.5,37.1,201.1,37.1L201.1,37.1z M198.3,56.7c-3.2,0-6.9,2.5-11.1,7.4c-0.2,0.1-0.2,0.3,0,0.5s0.3,0.3,0.5,0.3
			c0.1,0,0.2,0,0.3-0.1c1.3-1.3,2.4-2.4,3.5-3.1c1.1-0.7,2-1.1,2.7-1.1c1.2,0,1.8,1,1.8,2.9c0,0.7-0.1,1.5-0.3,2.5l-3.9,19.8
			c-0.4,1.8-0.6,3.3-0.6,4.7c0,3.1,1.3,4.7,3.8,4.7c1.6,0,3.3-0.6,5.1-1.8c1.7-1.2,3.7-3,5.7-5.5c0.2-0.1,0.2-0.3,0.1-0.5
			c-0.1-0.2-0.3-0.3-0.6-0.3c-0.1,0-0.2,0-0.3,0.1c-2.5,2.7-4.5,4-6,4c-1.1,0-1.7-0.9-1.7-2.8c0-0.7,0.1-1.5,0.3-2.5l3.9-20.2
			c0.3-1.5,0.5-2.9,0.5-4.4s-0.3-2.6-0.9-3.4C200.5,57.1,199.6,56.7,198.3,56.7L198.3,56.7z" class="PVUdZHYk_4"></path>
	</g>
	<g>
		<path style="fill:none;stroke:#FFFFFF;stroke-miterlimit:10;" d="M240.3,56.3c-3.4,0-6.6,1.7-9.6,5.2s-5.7,8.3-8,14.5l1.9-10.4
			c0.3-1.9,0.5-3.3,0.5-4.3c0-1.6-0.3-2.7-0.9-3.5c-0.6-0.7-1.5-1.1-2.8-1.1c-1.7,0-3.5,0.6-5.3,1.8s-3.8,3.1-6,5.6
			c-0.1,0.1-0.1,0.3,0,0.5s0.3,0.3,0.5,0.3c0.1,0,0.2,0,0.3-0.1c2.7-2.8,4.8-4.2,6.3-4.2c1.2,0,1.8,1,1.8,2.9c0,0.6-0.1,1.4-0.3,2.4
			l-3.9,21.2c-0.1,0.8-0.5,2.5-1,5.2l-0.4,1.9c0,0.4,0.9,0.7,2.6,0.7c1.1,0,1.9-0.1,2.6-0.4c0.6-0.3,1-0.7,1.1-1.2
			c1.2-6.8,2.8-12.6,4.7-17.6c1.9-4.9,3.9-8.7,6.1-11.3c2.2-2.6,4.2-3.9,6.3-3.9c2.5,0,3.7,1.7,3.7,5.1c0,1.4-0.2,3-0.6,4.9
			l-2.8,15.1c-0.3,2-0.5,3.6-0.5,4.7c0,1.6,0.3,2.8,0.9,3.6c0.6,0.7,1.5,1.1,2.8,1.1c1.6,0,3.3-0.6,5-1.8s3.6-3.1,5.8-5.6
			c0.1-0.2,0.1-0.4,0-0.6s-0.3-0.3-0.5-0.3c-0.1,0-0.2,0.1-0.3,0.2c-1.4,1.3-2.6,2.3-3.5,3c-1,0.7-1.7,1-2.4,1c-1.2,0-1.8-1-1.8-2.9
			c0-0.6,0.1-1.4,0.3-2.4l3.1-16.9c0.4-2,0.6-3.8,0.6-5.2c0-2.5-0.5-4.3-1.6-5.5C244,56.9,242.4,56.3,240.3,56.3L240.3,56.3z" class="PVUdZHYk_5"></path>
	</g>
	<g>
		<path style="fill:none;stroke:#FFFFFF;stroke-miterlimit:10;" d="M288.9,56.8c-2.8,0-5.9,0.8-9.2,2.3c-1.7-1.4-3.9-2.1-6.5-2.1
			c-3.9,0-7.3,1.3-10.4,3.9c-3.1,2.6-5,5.9-5.7,9.9c-0.3,1.5-0.4,2.7-0.4,3.4c0,2.5,0.5,4.6,1.6,6.4s2.6,3,4.7,3.7
			c-1.5,1.3-2.6,2.4-3.4,3.5c-0.8,1-1.4,2.1-1.6,3.2c-0.1,0.2-0.1,0.5-0.1,1c0,1.9,1.1,3.6,3.4,5.2c-4.3,2.3-7.6,4.6-9.9,6.8
			c-2.3,2.2-3.5,4.7-3.5,7.4c0,2.7,1.3,4.9,3.9,6.7c2.6,1.8,6.1,2.8,10.6,2.8c3.6,0,7-0.6,10.1-1.9s5.6-3,7.5-5.1
			c1.9-2.2,2.8-4.5,2.8-7c0-2.6-1-4.7-2.9-6.4c-1.9-1.6-4.7-3.3-8.2-5c-2.8-1.5-4.9-2.7-6.3-3.8s-2-2.3-2-3.8c0-1.1,0.3-2.2,1-3.2
			c0.9,0.1,1.6,0.2,2.2,0.2c2.3,0,4.6-0.6,6.9-1.8c2.2-1.2,4.2-2.8,5.8-4.9c1.6-2.1,2.8-4.6,3.3-7.4c0.3-1.1,0.4-2.3,0.4-3.6
			c0-2.7-0.7-4.9-2-6.8c0.3,0,0.6,0,0.9,0c2.5,0,4.6,0.5,6.3,1.5h0.1c0.2,0,0.5-0.4,0.7-1.2c0.3-0.9,0.4-1.8,0.4-2.7
			C289.3,57.2,289.2,56.8,288.9,56.8L288.9,56.8z M268.9,83c-1.8,0-3.3-1-4.4-3s-1.6-4.4-1.6-7.4c0-1.2,0.1-2.4,0.3-3.6
			c0.4-2.9,1.4-5.4,2.8-7.3c1.5-2,3.1-2.9,4.8-2.9c2,0,3.4,1.1,4.4,3.2c1,2.1,1.4,4.7,1.4,7.6c0,1.5-0.1,2.5-0.2,3.2
			c-0.4,3.1-1.4,5.6-2.8,7.4C272.3,82.1,270.7,83,268.9,83L268.9,83z M267,118.2c-3.8,0-6.9-0.9-9.3-2.7s-3.6-4.1-3.6-6.9
			c0-2.3,0.7-4.3,2.1-5.9c1.4-1.6,3.4-3.2,5.9-4.8c1.1,0.7,2.6,1.5,4.5,2.4c3.4,1.8,6,3.4,7.7,4.8s2.6,3.3,2.6,5.6
			c0,2.2-0.9,4-2.6,5.4C272.7,117.5,270.3,118.2,267,118.2L267,118.2z" class="PVUdZHYk_6"></path>
	</g>
	<g>
		<path style="fill:none;stroke:#FFFFFF;stroke-miterlimit:10;" d="M358.9,34.9h-36.8c-0.2,0-0.3,0.2-0.3,0.6c0,0.4,0.1,0.6,0.3,0.6
			c2.2,0,3.6,0.2,4.5,0.7c0.8,0.5,1.2,1.4,1.2,2.7c0,1-0.1,2.1-0.4,3.1l-7.7,44c-0.4,1.9-0.8,3.3-1.3,4.2c-0.5,0.9-1.2,1.5-2.1,1.9
			c-1,0.3-2.4,0.5-4.4,0.5c-0.2,0-0.3,0.2-0.3,0.6s0.1,0.6,0.3,0.6c1.7,0,3,0,4-0.1l5.7-0.1l9.2,0.1c1.1,0.1,2.6,0.1,4.4,0.1
			c0.1,0,0.2-0.2,0.2-0.6s-0.1-0.6-0.2-0.6c-3.5,0-5.9-0.3-7.2-0.9c-1.2-0.6-1.9-1.7-1.9-3.3c0-0.8,0.1-1.7,0.3-2.8l3.6-20.6h11
			c2.2,0,3.8,0.4,4.9,1.3c1,0.9,1.6,2.3,1.6,4.2c0,1-0.1,1.8-0.2,2.5c-0.1,0.3,0.1,0.4,0.5,0.4h0.1c0.3,0,0.5-0.1,0.5-0.3l1.4-9.1
			c0.8-3.7,1.3-6.4,1.5-7.9c0.1-0.3-0.1-0.4-0.5-0.4h-0.1c-0.3,0-0.5,0.1-0.5,0.3c-0.4,2.5-1.3,4.2-2.7,5.3s-3.3,1.6-5.9,1.6h-11.2
			l3.7-20.7c0.3-1.8,0.7-3.2,1.1-4s1.1-1.4,2-1.7s2.4-0.5,4.3-0.5h5.9c2.9,0,5.2,1,6.7,3.1c1.6,2.1,2.3,4.8,2.1,8.1
			c-0.1,0.2,0.1,0.3,0.5,0.4c0.1,0,0.1,0,0.2,0c0.3,0,0.4-0.1,0.5-0.3l0.7-4.4l1.1-7.7C359.5,35.2,359.4,34.9,358.9,34.9L358.9,34.9
			z" class="PVUdZHYk_7"></path>
	</g>
	<g>
		<path style="fill:none;stroke:#FFFFFF;stroke-miterlimit:10;" d="M388.1,55.4c-0.1,0-0.3,0.1-0.4,0.2c-0.4,1.2-1.3,2.3-2.5,3.3
			c-1.6-1.7-3.8-2.6-6.5-2.6c-3.3,0-6.8,1.5-10.5,4.5s-7,6.8-9.7,11.4c-2.8,4.6-4.5,9.1-5.1,13.4c-0.1,1.3-0.2,2.2-0.2,2.8
			c0,2.4,0.5,4.2,1.6,5.4c1,1.2,2.5,1.8,4.4,1.8c3.4,0,6.8-1.7,10.4-5c3.5-3.4,6.7-7.9,9.4-13.7l-1.5,9c-0.3,2-0.5,3.5-0.5,4.6
			c0,1.6,0.3,2.9,0.9,3.6c0.6,0.8,1.5,1.1,2.8,1.1c1.6,0,3.2-0.6,4.9-1.9c1.7-1.2,3.6-3.1,5.7-5.6c0.1-0.1,0.1-0.3,0-0.5
			s-0.3-0.3-0.5-0.3c-0.1,0-0.2,0-0.3,0.1c-2.6,2.7-4.6,4.1-5.9,4.1c-1.1,0-1.6-0.9-1.6-2.7c0-0.8,0.1-1.6,0.3-2.6l5.5-30
			c0.1-0.1,0-0.1-0.2-0.2C388.5,55.4,388.3,55.4,388.1,55.4L388.1,55.4z M363.5,90.1c-2.7,0-4-2-4-5.9c0-0.6,0.1-2,0.4-4
			c0.6-3.8,1.6-7.2,3.2-10.3c1.6-3,3.5-5.4,5.6-7.2c2.2-1.7,4.3-2.6,6.5-2.6c1.8,0,3.1,0.5,4.1,1.6s1.4,2.5,1.4,4.4
			c0,0.8-0.1,1.7-0.3,2.6c-0.6,3.1-1.9,6.3-3.8,9.7c-1.9,3.4-4,6.1-6.4,8.4C368,89,365.7,90.1,363.5,90.1L363.5,90.1z" class="PVUdZHYk_8"></path>
	</g>
	<g>
		<path style="fill:none;stroke:#FFFFFF;stroke-miterlimit:10;" d="M445.6,56.3c-3.2,0-6.2,1.7-9.2,5c-2.9,3.4-5.5,8.1-7.7,14.2
			l1.2-6.7c0.4-2,0.6-3.7,0.6-5.1c0-4.9-2-7.3-5.9-7.3c-3.2,0-6.2,1.7-9.2,5c-2.9,3.4-5.5,8-7.6,14.1l1.7-9.9
			c0.3-1.9,0.5-3.3,0.5-4.3c0-1.6-0.3-2.7-0.9-3.5c-0.6-0.7-1.5-1.1-2.8-1.1c-1.7,0-3.5,0.6-5.3,1.8s-3.8,3.1-6,5.6
			c-0.1,0.1-0.1,0.3,0,0.5s0.3,0.3,0.5,0.3c0.1,0,0.2,0,0.3-0.1c2.7-2.8,4.8-4.2,6.3-4.2c1.2,0,1.8,1,1.8,2.9c0,0.6-0.1,1.4-0.3,2.4
			l-3.9,21.5l-1,4.7l-0.5,2.2c0,0.4,0.8,0.7,2.5,0.7c2.2,0,3.5-0.5,3.8-1.6l0.2-1c1.1-6.5,2.6-12.1,4.5-16.9c1.8-4.8,3.8-8.5,5.8-11
			c2.1-2.5,4-3.8,5.8-3.8c2.2,0,3.3,1.8,3.3,5.4c0,1.5-0.1,3-0.4,4.6l-3.1,16.6c-0.2,1.2-0.5,2.6-0.8,4.2s-0.6,2.6-0.6,2.9
			c0,0.4,0.8,0.7,2.5,0.7c1.1,0,2-0.1,2.7-0.4c0.6-0.3,1-0.7,1-1.2l0.4-2.1c1.2-6.4,2.7-11.9,4.6-16.6c1.8-4.7,3.8-8.2,5.7-10.5
			c2-2.4,3.9-3.6,5.7-3.6c2.2,0,3.3,1.7,3.3,5.1c0,1.2-0.2,2.9-0.5,4.9L442,85.8c-0.3,2.1-0.5,3.7-0.5,4.8c0,1.6,0.3,2.7,0.9,3.5
			c0.6,0.7,1.5,1.1,2.8,1.1c1.6,0,3.3-0.6,5-1.8c1.7-1.2,3.6-3.1,5.7-5.6c0.2-0.2,0.2-0.4,0.1-0.6s-0.3-0.3-0.5-0.3
			c-0.1,0-0.3,0.1-0.4,0.2c-1.4,1.3-2.6,2.3-3.5,3s-1.7,1-2.4,1c-1.1,0-1.7-0.9-1.7-2.8c0-0.7,0.1-1.5,0.3-2.5l3-16.9
			c0.4-2,0.6-3.8,0.6-5.3C451.4,58.7,449.5,56.3,445.6,56.3L445.6,56.3z" class="PVUdZHYk_9"></path>
	</g>
	<g>
		<path style="fill:none;stroke:#FFFFFF;stroke-miterlimit:10;" d="M473.9,37.1c-1.4,0-2.5,0.4-3.3,1.1c-0.8,0.8-1.2,1.8-1.2,3.1
			c0,1.4,0.4,2.5,1.2,3.3c0.8,0.8,1.9,1.2,3.3,1.2c1.5,0,2.6-0.4,3.3-1.2c0.8-0.8,1.1-1.9,1.1-3.3c0-1.3-0.4-2.4-1.2-3.1
			C476.4,37.5,475.3,37.1,473.9,37.1L473.9,37.1z M471.2,56.7c-3.2,0-6.9,2.5-11.1,7.4c-0.2,0.1-0.2,0.3,0,0.5s0.3,0.3,0.5,0.3
			c0.1,0,0.2,0,0.3-0.1c1.3-1.3,2.4-2.4,3.5-3.1c1.1-0.7,2-1.1,2.7-1.1c1.2,0,1.8,1,1.8,2.9c0,0.7-0.1,1.5-0.3,2.5l-3.9,19.8
			c-0.4,1.8-0.6,3.3-0.6,4.7c0,3.1,1.3,4.7,3.8,4.7c1.6,0,3.3-0.6,5.1-1.8c1.7-1.2,3.7-3,5.7-5.5c0.2-0.1,0.2-0.3,0.1-0.5
			s-0.3-0.3-0.6-0.3c-0.1,0-0.2,0-0.3,0.1c-2.5,2.7-4.5,4-6,4c-1.1,0-1.7-0.9-1.7-2.8c0-0.7,0.1-1.5,0.3-2.5l3.9-20.2
			c0.3-1.5,0.5-2.9,0.5-4.4s-0.3-2.6-0.9-3.4C473.4,57.1,472.4,56.7,471.2,56.7L471.2,56.7z" class="PVUdZHYk_10"></path>
	</g>
	<g>
		<path style="fill:none;stroke:#FFFFFF;stroke-miterlimit:10;" d="M502.5,25.4h-0.2l-13.1,6.4c-0.3,0.1-0.3,0.3-0.2,0.6
			c0.1,0.3,0.3,0.5,0.6,0.5h0.1c1.9-0.9,3.4-1.4,4.4-1.4c1.3,0,1.9,0.8,1.9,2.5c0,0.6-0.1,1.4-0.3,2.4l-9.1,49.5
			c-0.4,1.9-0.6,3.5-0.6,4.7c0,1.6,0.3,2.8,0.9,3.5c0.6,0.8,1.6,1.1,2.9,1.1c1.6,0,3.3-0.6,5-1.8c1.7-1.2,3.6-3.1,5.7-5.6
			c0.2-0.2,0.2-0.4,0.1-0.6s-0.3-0.3-0.5-0.3c-0.1,0-0.3,0.1-0.4,0.2c-1.4,1.3-2.6,2.3-3.5,3c-1,0.7-1.7,1-2.4,1
			c-1.1,0-1.7-0.9-1.7-2.8c0-0.7,0.1-1.5,0.3-2.5l10.9-59.7c0.1-0.1,0-0.3-0.2-0.5C503,25.5,502.8,25.4,502.5,25.4L502.5,25.4z" class="PVUdZHYk_11"></path>
	</g>
	<g>
		<path style="fill:none;stroke:#FFFFFF;stroke-miterlimit:10;" d="M520.2,37.1c-1.4,0-2.5,0.4-3.3,1.1c-0.8,0.8-1.2,1.8-1.2,3.1
			c0,1.4,0.4,2.5,1.2,3.3s1.9,1.2,3.3,1.2c1.5,0,2.6-0.4,3.3-1.2c0.8-0.8,1.1-1.9,1.1-3.3c0-1.3-0.4-2.4-1.2-3.1
			C522.7,37.5,521.6,37.1,520.2,37.1L520.2,37.1z M517.4,56.7c-3.2,0-6.9,2.5-11.1,7.4c-0.2,0.1-0.2,0.3,0,0.5s0.3,0.3,0.5,0.3
			c0.1,0,0.2,0,0.3-0.1c1.3-1.3,2.4-2.4,3.5-3.1c1.1-0.7,2-1.1,2.7-1.1c1.2,0,1.8,1,1.8,2.9c0,0.7-0.1,1.5-0.3,2.5l-3.9,19.8
			c-0.4,1.8-0.6,3.3-0.6,4.7c0,3.1,1.3,4.7,3.8,4.7c1.6,0,3.3-0.6,5.1-1.8c1.7-1.2,3.7-3,5.7-5.5c0.2-0.1,0.2-0.3,0.1-0.5
			c-0.1-0.2-0.3-0.3-0.6-0.3c-0.1,0-0.2,0-0.3,0.1c-2.5,2.7-4.5,4-6,4c-1.1,0-1.7-0.9-1.7-2.8c0-0.7,0.1-1.5,0.3-2.5l3.9-20.2
			c0.3-1.5,0.5-2.9,0.5-4.4s-0.3-2.6-0.9-3.4C519.6,57.1,518.7,56.7,517.4,56.7L517.4,56.7z" class="PVUdZHYk_12"></path>
	</g>
	<g>
		<path style="fill:none;stroke:#FFFFFF;stroke-miterlimit:10;" d="M552.3,56.3c-3.5,0-6.9,1-10.1,3c-3.2,2-5.8,4.6-7.9,7.7
			c-2.1,3.1-3.5,6.4-4.1,9.6c-0.3,1.8-0.5,3.4-0.5,4.8c0,4.1,1,7.5,3.1,10.1s5.2,3.9,9.4,3.9c4.9,0,9.7-1.9,14.2-5.8
			c0.1-0.2,0.1-0.4,0-0.6c-0.2-0.2-0.3-0.3-0.5-0.3h-0.1c-2.7,2.1-5.7,3.1-9.2,3.1c-3.2,0-5.7-1.2-7.4-3.5s-2.5-5.4-2.5-9.3
			c0-1.8,0.1-3.4,0.4-4.9c6.1-1.1,11.4-2.8,15.7-5.3c4.3-2.4,6.5-5.1,6.5-8.1c0-1.3-0.6-2.4-1.8-3.2
			C556.2,56.7,554.5,56.3,552.3,56.3L552.3,56.3z M537.2,72.8c0.8-4.1,2.2-7.5,4-10c1.8-2.6,4.1-3.8,6.6-3.8c1.1,0,2.1,0.3,2.9,0.9
			c0.8,0.6,1.2,1.4,1.2,2.5c0,0.2-0.1,0.6-0.2,1.2C550.8,68,545.9,71.1,537.2,72.8L537.2,72.8z" class="PVUdZHYk_13"></path>
	</g>
	<g>
		<path style="fill:none;stroke:#FFFFFF;stroke-miterlimit:10;" d="M579.4,56.6c-2.3,0-4.5,0.5-6.5,1.5c-2.1,1-3.7,2.3-4.9,4
			s-1.9,3.6-1.9,5.6c0,1.8,0.5,3.4,1.6,4.8c1.1,1.3,2.7,2.9,4.8,4.6c2.2,1.8,3.8,3.3,4.8,4.7c1,1.3,1.6,2.9,1.6,4.8
			c0,0.6,0,1-0.1,1.2c-0.4,3.4-2.2,5.1-5.2,5.1c-1.5,0-2.6-0.3-3.4-1c-0.8-0.7-1.6-1.7-2.3-2.9c-0.6-1-1.2-1.7-1.6-2.1
			c-0.4-0.4-1-0.6-1.7-0.6c-0.9,0-1.8,0.3-2.4,0.9c-0.7,0.6-1,1.5-1,2.7c0,1.5,0.9,2.8,2.7,3.9s3.9,1.7,6.3,1.7c2.6,0,5-0.6,7.1-1.9
			s3.8-2.9,5-4.8c1.2-2,1.9-3.9,1.9-5.8s-0.6-3.6-1.7-5c-1.1-1.4-2.8-3.1-5-5c-2-1.7-3.6-3.2-4.6-4.6c-1-1.3-1.6-2.9-1.6-4.6
			c0-0.6,0-1,0.1-1.2c0.1-1.1,0.6-1.9,1.4-2.6c0.8-0.6,1.8-0.9,3-0.9s2.1,0.3,2.8,0.8s1.3,1.3,1.9,2.3c0.6,0.9,1.1,1.6,1.6,2
			c0.5,0.4,1.2,0.7,2.2,0.7c0.8,0,1.5-0.3,2.1-0.8s1-1.3,1.2-2.2c0.2-1.5-0.5-2.7-2.1-3.6C583.9,57.1,581.8,56.6,579.4,56.6
			L579.4,56.6z" class="PVUdZHYk_14"></path>
	</g>
	<g>
		<path style="fill:none;stroke:#FFFFFF;stroke-miterlimit:10;" d="M660,34.9h-36.7c-0.2,0-0.3,0.2-0.3,0.6c0,0.4,0.1,0.6,0.3,0.6
			c2.2,0,3.6,0.2,4.5,0.7c0.8,0.5,1.2,1.4,1.2,2.7c0,1-0.1,2.1-0.4,3.1l-7.7,44c-0.4,2-0.8,3.4-1.3,4.3s-1.2,1.5-2.1,1.8
			c-1,0.3-2.4,0.5-4.4,0.5c-0.1,0-0.2,0.2-0.2,0.6s0.1,0.6,0.2,0.6H652c0.5,0,0.9-0.1,1-0.3c0.2-0.2,0.3-0.6,0.5-1.1
			c0.9-4.9,1.9-9.2,3-12.8c0.1-0.2,0-0.3-0.3-0.4c-0.1,0-0.2,0-0.2,0c-0.2,0-0.4,0.1-0.5,0.2c-1.6,3.8-3.8,6.9-6.5,9.2
			c-2.7,2.3-5.4,3.5-8.2,3.5H633c-2.2,0-3.6-0.2-4.4-0.7c-0.8-0.5-1.2-1.4-1.2-2.7c0-0.8,0.1-1.7,0.3-2.9l3.9-21.8h12.3
			c2.2,0,3.9,0.4,4.9,1.3c1.1,0.9,1.6,2.2,1.6,4.1c0,0.8-0.1,1.6-0.3,2.6c-0.1,0.3,0.1,0.4,0.5,0.4h0.1c0.3,0,0.5-0.1,0.5-0.3
			c0.4-2.2,0.8-4.2,1-6.2l0.5-2.9c0.2-1.3,0.4-2.5,0.7-3.4c0.4-1.5,0.7-3,0.9-4.4c0.1-0.1,0-0.2-0.1-0.3c-0.2-0.1-0.3-0.1-0.4-0.1
			c-0.4,0-0.6,0.1-0.6,0.3c-0.4,2.5-1.3,4.3-2.7,5.3c-1.3,1-3.3,1.5-5.9,1.5H632l3.4-19.6c0.3-1.8,0.7-3.2,1.1-4
			c0.4-0.8,1.1-1.4,2-1.7s2.4-0.5,4.3-0.5h5.9c2.9,0,5.2,1,6.7,3.1c1.6,2.1,2.2,4.8,2,8.1c0,0.1,0.1,0.1,0.2,0.2
			c0.2,0.1,0.3,0.1,0.4,0.1c0.3,0,0.5-0.1,0.5-0.3l1.1-6.9l0.8-5.1C660.7,35.2,660.5,34.9,660,34.9L660,34.9z" class="PVUdZHYk_15"></path>
	</g>
	<g>
		<path style="fill:none;stroke:#FFFFFF;stroke-miterlimit:10;" d="M695.6,56.7c-1.4,0-2.6,0.4-3.5,1.3c-1,0.9-2.3,2.7-4.1,5.6
			l-4.9,7.7l-2.4-7.9c-0.8-2.5-1.6-4.3-2.6-5.2s-2.2-1.4-3.7-1.4s-3,0.6-4.8,1.8c-1.7,1.2-3.7,3-6,5.5c-0.2,0.1-0.2,0.3,0,0.5
			s0.3,0.3,0.5,0.3c0.1,0,0.2,0,0.3-0.1c2.3-2.3,4.3-3.5,5.9-3.5c1,0,1.8,0.3,2.6,1s1.5,2.1,2,4.3l3.5,11.3l-6.2,9.2
			c-1.1,1.6-2.3,2.5-3.5,2.5c-0.4,0-0.8-0.1-1.2-0.3c-0.3-0.2-0.7-0.4-1-0.7c-0.4-0.4-0.9-0.7-1.2-0.9s-0.9-0.3-1.5-0.3
			c-0.8,0-1.5,0.2-2.1,0.7s-1,1.1-1.1,1.9c-0.1,1.3,0.4,2.5,1.5,3.6s2.4,1.6,3.8,1.6c1.4,0,2.6-0.4,3.5-1.3s2.3-2.7,4.2-5.7l5.4-8.6
			l2.9,9.4c0.8,2.3,1.6,4,2.5,4.8c0.9,0.9,2.1,1.3,3.5,1.3c1.5,0,3-0.6,4.7-1.8c1.7-1.2,3.7-3,6-5.5c0.1-0.2,0.1-0.4,0-0.6
			s-0.3-0.3-0.6-0.3c-0.1,0-0.2,0-0.3,0.1c-2.2,2.3-4.1,3.5-5.8,3.5c-1,0-1.8-0.3-2.5-0.9s-1.4-1.9-1.9-3.8l-3.9-12.9l5.5-8.2
			c1.2-1.7,2.4-2.6,3.6-2.6c0.6,0,1.3,0.3,2.1,0.9c0.8,0.8,1.7,1.2,2.8,1.2c1,0,1.7-0.3,2.3-0.9c0.6-0.6,0.9-1.3,0.9-2.2
			c0-1.3-0.5-2.4-1.6-3.3C698.1,57.2,696.9,56.7,695.6,56.7L695.6,56.7z" class="PVUdZHYk_16"></path>
	</g>
	<g>
		<path style="fill:none;stroke:#FFFFFF;stroke-miterlimit:10;" d="M725,56.3c-2.8,0-5.7,0.8-8.6,2.3c-2.9,1.5-5.5,3.7-7.6,6.6
			c-2.2,2.8-3.6,6.1-4.3,9.9c-0.4,1.8-0.6,3.6-0.6,5.5c0,4.2,1,7.8,3.1,10.6c2.1,2.9,5.2,4.3,9.4,4.3c5,0,9.9-2.2,14.8-6.7
			c0.1-0.1,0.1-0.3,0-0.6c-0.2-0.3-0.3-0.4-0.5-0.4l-0.2,0.1c-3.2,2.6-6.4,3.9-9.5,3.9c-3.4,0-6-1.2-7.7-3.7s-2.6-5.7-2.6-9.8
			c0-1.6,0.2-3.7,0.7-6.3c0.7-4.1,1.9-7.3,3.6-9.7c1.7-2.4,3.9-3.7,6.6-3.7c2.3,0,3.9,1.2,4.6,3.6c0.6,2.3,1.8,3.4,3.8,3.4
			c1.2,0,2.1-0.4,2.8-1.1c0.6-0.8,1-1.7,1-2.8c0-1.6-0.8-3-2.5-3.9C729.3,56.8,727.3,56.3,725,56.3L725,56.3z" class="PVUdZHYk_17"></path>
	</g>
	<g>
		<path style="fill:none;stroke:#FFFFFF;stroke-miterlimit:10;" d="M759.1,56.3c-3.5,0-6.9,1-10.1,3c-3.2,2-5.8,4.6-7.9,7.7
			c-2.1,3.1-3.5,6.4-4.1,9.6c-0.3,1.8-0.5,3.4-0.5,4.8c0,4.1,1,7.5,3.1,10.1s5.2,3.9,9.4,3.9c4.9,0,9.7-1.9,14.2-5.8
			c0.1-0.2,0.1-0.4,0-0.6c-0.2-0.2-0.3-0.3-0.5-0.3h-0.1c-2.7,2.1-5.7,3.1-9.2,3.1c-3.2,0-5.7-1.2-7.4-3.5s-2.5-5.4-2.5-9.3
			c0-1.8,0.1-3.4,0.4-4.9c6.1-1.1,11.4-2.8,15.7-5.3c4.3-2.4,6.5-5.1,6.5-8.1c0-1.3-0.6-2.4-1.8-3.2C763,56.7,761.3,56.3,759.1,56.3
			L759.1,56.3z M744,72.8c0.8-4.1,2.2-7.5,4-10c1.8-2.6,4.1-3.8,6.6-3.8c1.1,0,2.1,0.3,2.9,0.9c0.8,0.6,1.2,1.4,1.2,2.5
			c0,0.2-0.1,0.6-0.2,1.2C757.6,68,752.7,71.1,744,72.8L744,72.8z" class="PVUdZHYk_18"></path>
	</g>
	<g>
		<path style="fill:none;stroke:#FFFFFF;stroke-miterlimit:10;" d="M788.6,25.4h-0.2l-13.1,6.4c-0.3,0.1-0.3,0.3-0.2,0.6
			s0.3,0.5,0.6,0.5h0.1c1.9-0.9,3.4-1.4,4.4-1.4c1.3,0,1.9,0.8,1.9,2.5c0,0.6-0.1,1.4-0.3,2.4l-9.1,49.5c-0.4,1.9-0.6,3.5-0.6,4.7
			c0,1.6,0.3,2.8,0.9,3.5c0.6,0.8,1.6,1.1,2.9,1.1c1.6,0,3.3-0.6,5-1.8c1.7-1.2,3.6-3.1,5.7-5.6c0.2-0.2,0.2-0.4,0.1-0.6
			c-0.1-0.2-0.3-0.3-0.5-0.3c-0.1,0-0.3,0.1-0.4,0.2c-1.4,1.3-2.6,2.3-3.5,3c-1,0.7-1.7,1-2.4,1c-1.1,0-1.7-0.9-1.7-2.8
			c0-0.7,0.1-1.5,0.3-2.5l10.9-59.7c0.1-0.1,0-0.3-0.2-0.5C789,25.5,788.8,25.4,788.6,25.4L788.6,25.4z" class="PVUdZHYk_19"></path>
	</g>
	<g>
		<path style="fill:none;stroke:#FFFFFF;stroke-miterlimit:10;" d="M828.5,37.1c-1.4,0-2.5,0.4-3.3,1.1c-0.8,0.8-1.2,1.8-1.2,3.1
			c0,1.4,0.4,2.5,1.2,3.3s1.9,1.2,3.3,1.2c1.5,0,2.6-0.4,3.3-1.2c0.8-0.8,1.1-1.9,1.1-3.3c0-1.3-0.4-2.4-1.2-3.1
			C830.9,37.5,829.9,37.1,828.5,37.1L828.5,37.1z M825.7,56.7c-3.2,0-6.9,2.5-11.1,7.4c-0.2,0.1-0.2,0.3,0,0.5s0.3,0.3,0.5,0.3
			c0.1,0,0.2,0,0.3-0.1c1.3-1.3,2.4-2.4,3.5-3.1c1.1-0.7,2-1.1,2.7-1.1c1.2,0,1.8,1,1.8,2.9c0,0.7-0.1,1.5-0.3,2.5l-3.9,19.8
			c-0.4,1.8-0.6,3.3-0.6,4.7c0,3.1,1.3,4.7,3.8,4.7c1.6,0,3.3-0.6,5.1-1.8c1.7-1.2,3.7-3,5.7-5.5c0.2-0.1,0.2-0.3,0.1-0.5
			c-0.1-0.2-0.3-0.3-0.6-0.3c-0.1,0-0.2,0-0.3,0.1c-2.5,2.7-4.5,4-6,4c-1.1,0-1.7-0.9-1.7-2.8c0-0.7,0.1-1.5,0.3-2.5l3.9-20.2
			c0.3-1.5,0.5-2.9,0.5-4.4s-0.3-2.6-0.9-3.4C827.9,57.1,827,56.7,825.7,56.7L825.7,56.7z" class="PVUdZHYk_20"></path>
	</g>
	<g>
		<path style="fill:none;stroke:#FFFFFF;stroke-miterlimit:10;" d="M867.7,56.3c-3.4,0-6.6,1.7-9.6,5.2s-5.7,8.3-8,14.5l1.9-10.4
			c0.3-1.9,0.5-3.3,0.5-4.3c0-1.6-0.3-2.7-0.9-3.5c-0.6-0.7-1.5-1.1-2.8-1.1c-1.7,0-3.5,0.6-5.3,1.8s-3.8,3.1-6,5.6
			c-0.1,0.1-0.1,0.3,0,0.5s0.3,0.3,0.5,0.3c0.1,0,0.2,0,0.3-0.1c2.7-2.8,4.8-4.2,6.3-4.2c1.2,0,1.8,1,1.8,2.9c0,0.6-0.1,1.4-0.3,2.4
			l-3.9,21.2c-0.1,0.8-0.5,2.5-1,5.2l-0.4,1.9c0,0.4,0.9,0.7,2.6,0.7c1.1,0,1.9-0.1,2.6-0.4c0.6-0.3,1-0.7,1.1-1.2
			c1.2-6.8,2.8-12.6,4.7-17.6c1.9-4.9,3.9-8.7,6.1-11.3c2.2-2.6,4.2-3.9,6.3-3.9c2.5,0,3.7,1.7,3.7,5.1c0,1.4-0.2,3-0.6,4.9
			l-2.8,15.1c-0.3,2-0.5,3.6-0.5,4.7c0,1.6,0.3,2.8,0.9,3.6c0.6,0.7,1.5,1.1,2.8,1.1c1.6,0,3.3-0.6,5-1.8s3.6-3.1,5.8-5.6
			c0.1-0.2,0.1-0.4,0-0.6s-0.3-0.3-0.5-0.3c-0.1,0-0.2,0.1-0.3,0.2c-1.4,1.3-2.6,2.3-3.5,3c-1,0.7-1.7,1-2.4,1c-1.2,0-1.8-1-1.8-2.9
			c0-0.6,0.1-1.4,0.3-2.4l3.1-16.9c0.4-2,0.6-3.8,0.6-5.2c0-2.5-0.5-4.3-1.6-5.5C871.4,56.9,869.8,56.3,867.7,56.3L867.7,56.3z" class="PVUdZHYk_21"></path>
	</g>
	<g>
		<path style="fill:none;stroke:#FFFFFF;stroke-miterlimit:10;" d="M933.4,34.9l-4.2,0.1c-2.5,0.1-4.5,0.2-6,0.2s-3.3-0.1-5.6-0.2
			l-4.1-0.1c-0.1,0-0.2,0.2-0.2,0.6c0,0.4,0.1,0.6,0.2,0.6c2.2,0,3.7,0.2,4.6,0.7c0.8,0.5,1.2,1.4,1.2,2.8c0,0.4-0.1,1.4-0.4,3
			l-7.8,44c-0.3,1.9-0.7,3.3-1.2,4.2c-0.5,0.9-1.2,1.5-2.1,1.9c-1,0.3-2.4,0.5-4.4,0.5c-0.2,0-0.3,0.2-0.3,0.6s0.1,0.6,0.3,0.6h39.8
			c0.4,0,0.8-0.1,1-0.3c0.2-0.2,0.4-0.6,0.5-1.1c0.8-4.6,1.9-9.1,3.1-13.4c0.1-0.2-0.1-0.3-0.4-0.4c-0.1,0-0.2,0-0.2,0
			c-0.2,0-0.3,0.1-0.4,0.2c-2,4.4-4.3,7.7-7,9.9c-2.7,2.2-6,3.3-9.9,3.3h-7.3c-1.9,0-3.2-0.2-3.9-0.7c-0.7-0.4-1.1-1.3-1.1-2.7
			c0-0.8,0.1-1.8,0.3-2.9l7.7-43.5c0.4-1.9,0.8-3.3,1.3-4.2s1.2-1.6,2.1-1.9c1-0.3,2.4-0.5,4.4-0.5c0.1,0,0.2-0.2,0.2-0.6
			C933.6,35.1,933.6,34.9,933.4,34.9L933.4,34.9z" class="PVUdZHYk_22"></path>
	</g>
	<g>
		<path style="fill:none;stroke:#FFFFFF;stroke-miterlimit:10;" d="M966,37.1c-1.4,0-2.5,0.4-3.3,1.1c-0.8,0.8-1.2,1.8-1.2,3.1
			c0,1.4,0.4,2.5,1.2,3.3s1.9,1.2,3.3,1.2c1.5,0,2.6-0.4,3.3-1.2c0.8-0.8,1.1-1.9,1.1-3.3c0-1.3-0.4-2.4-1.2-3.1
			C968.5,37.5,967.4,37.1,966,37.1L966,37.1z M963.3,56.7c-3.2,0-6.9,2.5-11.1,7.4c-0.2,0.1-0.2,0.3,0,0.5s0.3,0.3,0.5,0.3
			c0.1,0,0.2,0,0.3-0.1c1.3-1.3,2.4-2.4,3.5-3.1c1.1-0.7,2-1.1,2.7-1.1c1.2,0,1.8,1,1.8,2.9c0,0.7-0.1,1.5-0.3,2.5l-3.9,19.8
			c-0.4,1.8-0.6,3.3-0.6,4.7c0,3.1,1.3,4.7,3.8,4.7c1.6,0,3.3-0.6,5.1-1.8c1.7-1.2,3.7-3,5.7-5.5c0.2-0.1,0.2-0.3,0.1-0.5
			c-0.1-0.2-0.3-0.3-0.6-0.3c-0.1,0-0.2,0-0.3,0.1c-2.5,2.7-4.5,4-6,4c-1.1,0-1.7-0.9-1.7-2.8c0-0.7,0.1-1.5,0.3-2.5l3.9-20.2
			c0.3-1.5,0.5-2.9,0.5-4.4s-0.3-2.6-0.9-3.4C965.5,57.1,964.5,56.7,963.3,56.7L963.3,56.7z" class="PVUdZHYk_23"></path>
	</g>
	<g>
		<path style="fill:none;stroke:#FFFFFF;stroke-miterlimit:10;" d="M1003.6,25.3c-3.9,0-7.1,0.9-9.5,2.6s-4.4,4.6-5.9,8.8
			c-1.6,4.1-3,10.1-4.3,17.9c-0.3,1.6-0.9,2.7-1.8,3.3c-1,0.6-2.5,0.9-4.8,0.9c-0.1,0-0.1,0.1-0.2,0.3c-0.1,0.2-0.1,0.4-0.1,0.6
			c0,0.3,0.1,0.5,0.3,0.5c2.2,0,3.6,0.2,4.3,0.5s1,1,1,2.2c0,0.4-0.1,1.2-0.2,2.5l-4.8,33.5c-0.8,5.8-1.5,10-2.1,12.8
			s-1.1,4.6-1.6,5.6s-1.1,1.5-1.9,1.5c-0.6,0-1.1-0.2-1.3-0.6c-0.3-0.4-0.5-1-0.8-1.9c-0.3-1.1-0.7-2-1.1-2.6
			c-0.4-0.6-1.2-0.9-2.4-0.9c-1,0-1.9,0.3-2.6,0.9c-0.7,0.6-1.1,1.3-1.2,2.3c-0.2,1.3,0.3,2.3,1.5,3.2c1.2,0.9,3,1.3,5.3,1.3
			c2.7,0,5-0.8,6.7-2.3c1.8-1.5,3.3-4,4.5-7.5s2.2-8.2,3.1-14.4l5.1-35.3c2.2,0.3,3.8,0.5,4.8,0.7c0.5,0.1,1,0.1,1.4,0.2
			c0.4,0.1,0.9,0.1,1.2,0.1c0.6,0,1.3-0.4,2-1.3c0.7-0.9,1-1.5,1-2s-0.2-0.8-0.7-0.8l-3.1,0.2c-2.3,0.3-4.5,0.4-6.4,0.5l0.9-5.9
			c1.3-8.6,2.7-15,4.4-19.3c1.7-4.2,3.7-6.4,5.9-6.4c0.8,0,1.4,0.2,1.8,0.7c0.3,0.5,0.7,1.3,1.1,2.3c0.4,1.2,0.8,2.1,1.3,2.7
			s1.3,0.9,2.5,0.9c0.9,0,1.7-0.3,2.4-0.8s1.1-1.3,1.3-2.3c0.2-1.5-0.4-2.7-1.7-3.7C1007.9,25.8,1006,25.3,1003.6,25.3L1003.6,25.3z
			" class="PVUdZHYk_24"></path>
	</g>
	<g>
		<path style="fill:none;stroke:#FFFFFF;stroke-miterlimit:10;" d="M1022.1,56.3c-3.5,0-6.9,1-10.1,3c-3.2,2-5.8,4.6-7.9,7.7
			c-2.1,3.1-3.5,6.4-4.1,9.6c-0.3,1.8-0.5,3.4-0.5,4.8c0,4.1,1,7.5,3.1,10.1s5.2,3.9,9.4,3.9c4.9,0,9.7-1.9,14.2-5.8
			c0.1-0.2,0.1-0.4,0-0.6c-0.2-0.2-0.3-0.3-0.5-0.3h-0.1c-2.7,2.1-5.7,3.1-9.2,3.1c-3.2,0-5.7-1.2-7.4-3.5s-2.5-5.4-2.5-9.3
			c0-1.8,0.1-3.4,0.4-4.9c6.1-1.1,11.4-2.8,15.7-5.3c4.3-2.4,6.5-5.1,6.5-8.1c0-1.3-0.6-2.4-1.8-3.2
			C1026,56.7,1024.3,56.3,1022.1,56.3L1022.1,56.3z M1007,72.8c0.8-4.1,2.2-7.5,4-10c1.8-2.6,4.1-3.8,6.6-3.8c1.1,0,2.1,0.3,2.9,0.9
			c0.8,0.6,1.2,1.4,1.2,2.5c0,0.2-0.1,0.6-0.2,1.2C1020.5,68,1015.7,71.1,1007,72.8L1007,72.8z" class="PVUdZHYk_25"></path>
	</g>
</g>
<path style="fill:#FF0000;" d="M-3,136.8L-3,136.8c0-0.1,0-0.1,0-0.1l-3.9,0.1c-2.5,0.1-4.5,0.2-6,0.2" class="PVUdZHYk_26"></path>
<style data-made-with="vivus-instant">.PVUdZHYk_0{stroke-dasharray:414 416;stroke-dashoffset:415;animation:PVUdZHYk_draw 2000ms linear 0ms forwards;}.PVUdZHYk_1{stroke-dasharray:190 192;stroke-dashoffset:191;animation:PVUdZHYk_draw 2000ms linear 38ms forwards;}.PVUdZHYk_2{stroke-dasharray:180 182;stroke-dashoffset:181;animation:PVUdZHYk_draw 2000ms linear 76ms forwards;}.PVUdZHYk_3{stroke-dasharray:305 307;stroke-dashoffset:306;animation:PVUdZHYk_draw 2000ms linear 115ms forwards;}.PVUdZHYk_4{stroke-dasharray:150 152;stroke-dashoffset:151;animation:PVUdZHYk_draw 2000ms linear 153ms forwards;}.PVUdZHYk_5{stroke-dasharray:255 257;stroke-dashoffset:256;animation:PVUdZHYk_draw 2000ms linear 192ms forwards;}.PVUdZHYk_6{stroke-dasharray:348 350;stroke-dashoffset:349;animation:PVUdZHYk_draw 2000ms linear 230ms forwards;}.PVUdZHYk_7{stroke-dasharray:304 306;stroke-dashoffset:305;animation:PVUdZHYk_draw 2000ms linear 269ms forwards;}.PVUdZHYk_8{stroke-dasharray:256 258;stroke-dashoffset:257;animation:PVUdZHYk_draw 2000ms linear 307ms forwards;}.PVUdZHYk_9{stroke-dasharray:384 386;stroke-dashoffset:385;animation:PVUdZHYk_draw 2000ms linear 346ms forwards;}.PVUdZHYk_10{stroke-dasharray:150 152;stroke-dashoffset:151;animation:PVUdZHYk_draw 2000ms linear 384ms forwards;}.PVUdZHYk_11{stroke-dasharray:180 182;stroke-dashoffset:181;animation:PVUdZHYk_draw 2000ms linear 423ms forwards;}.PVUdZHYk_12{stroke-dasharray:150 152;stroke-dashoffset:151;animation:PVUdZHYk_draw 2000ms linear 461ms forwards;}.PVUdZHYk_13{stroke-dasharray:190 192;stroke-dashoffset:191;animation:PVUdZHYk_draw 2000ms linear 500ms forwards;}.PVUdZHYk_14{stroke-dasharray:160 162;stroke-dashoffset:161;animation:PVUdZHYk_draw 2000ms linear 538ms forwards;}.PVUdZHYk_15{stroke-dasharray:362 364;stroke-dashoffset:363;animation:PVUdZHYk_draw 2000ms linear 576ms forwards;}.PVUdZHYk_16{stroke-dasharray:229 231;stroke-dashoffset:230;animation:PVUdZHYk_draw 2000ms linear 615ms forwards;}.PVUdZHYk_17{stroke-dasharray:160 162;stroke-dashoffset:161;animation:PVUdZHYk_draw 2000ms linear 653ms forwards;}.PVUdZHYk_18{stroke-dasharray:190 192;stroke-dashoffset:191;animation:PVUdZHYk_draw 2000ms linear 692ms forwards;}.PVUdZHYk_19{stroke-dasharray:180 182;stroke-dashoffset:181;animation:PVUdZHYk_draw 2000ms linear 730ms forwards;}.PVUdZHYk_20{stroke-dasharray:150 152;stroke-dashoffset:151;animation:PVUdZHYk_draw 2000ms linear 769ms forwards;}.PVUdZHYk_21{stroke-dasharray:255 257;stroke-dashoffset:256;animation:PVUdZHYk_draw 2000ms linear 807ms forwards;}.PVUdZHYk_22{stroke-dasharray:245 247;stroke-dashoffset:246;animation:PVUdZHYk_draw 2000ms linear 846ms forwards;}.PVUdZHYk_23{stroke-dasharray:150 152;stroke-dashoffset:151;animation:PVUdZHYk_draw 2000ms linear 884ms forwards;}.PVUdZHYk_24{stroke-dasharray:289 291;stroke-dashoffset:290;animation:PVUdZHYk_draw 2000ms linear 923ms forwards;}.PVUdZHYk_25{stroke-dasharray:190 192;stroke-dashoffset:191;animation:PVUdZHYk_draw 2000ms linear 961ms forwards;}.PVUdZHYk_26{stroke-dasharray:11 13;stroke-dashoffset:12;animation:PVUdZHYk_draw 2000ms linear 1000ms forwards;}@keyframes PVUdZHYk_draw{100%{stroke-dashoffset:0;}}@keyframes PVUdZHYk_fade{0%{stroke-opacity:1;}94.44444444444444%{stroke-opacity:1;}100%{stroke-opacity:0;}}</style></svg>
