<svg width="420" height="50" xmlns="http://www.w3.org/2000/svg">
 <defs>
  <style>.cls-1{fill:#2e284b;}.cls-2{font-size:31px;fill:#fff;font-family:Arial-BoldMT, Arial;font-weight:700;}.cls-3{font-size:16px;font-family:ArialMT, Arial;font-weight:400;}.cls-4{letter-spacing:-0.04em;}.cls-5{fill:none;stroke:#fff;stroke-linecap:round;stroke-linejoin:round;stroke-width:1.5px;}</style>
 </defs>
 <title>Art Deco Quotes_V02</title>
 <g>
  <title>background</title>
  <rect fill="none" id="canvas_background" height="52" width="422" y="-1" x="-1"/>
 </g>
 <g>
  <title>Layer 1</title>
  <rect id="svg_12" transform="rotate(45 75.54000091552723,-198.2599945068359) " height="17.93" width="17.93" y="-146.389995" x="314.180001" class="cls-5"/>
  <rect id="svg_13" transform="rotate(45 84.49999999999991,-194.55000305175778) " height="17.93" width="17.93" y="-130.000003" x="323.14" class="cls-5"/>
  <line id="svg_14" y2="10.02" x2="217.41" y1="26.17" x1="201.26" class="cls-5"/>
  <line id="svg_15" y2="13.5" x2="220.89" y1="23.31" x1="211.07" class="cls-5"/>
  <line id="svg_16" y2="10.15" x2="197.91" y1="26.17" x1="213.94" class="cls-5"/>
  <line id="svg_17" y2="13.62" x2="194.44" y1="23.31" x1="204.13" class="cls-5"/>
  <line id="svg_18" y2="42.32" x2="217.41" y1="26.17" x1="201.26" class="cls-5"/>
  <line id="svg_19" y2="38.85" x2="220.89" y1="29.04" x1="211.07" class="cls-5"/>
  <line id="svg_20" y2="42.2" x2="197.91" y1="26.17" x1="213.94" class="cls-5"/>
  <line id="svg_21" y2="38.73" x2="194.44" y1="29.04" x1="204.13" class="cls-5"/>
  <line id="svg_22" y2="7.16" x2="207.6" y1="19.83" x1="207.6" class="cls-5"/>
  <line id="svg_23" y2="45.19" x2="207.6" y1="32.51" x1="207.6" class="cls-5"/>
  <line id="svg_24" y2="26.17" x2="5.33" y1="26.17" x1="201.26" class="cls-5"/>
  <polyline id="svg_25" points="194.9199981689453,19.830001831054688 165.17999267578125,19.830001831054688 158.9499969482422,26.06999969482422 " class="cls-5"/>
  <polyline id="svg_26" points="194.9199981689453,32.51000213623047 172.3800048828125,32.51000213623047 166.25,26.37999725341797 " class="cls-5"/>
  <line id="svg_27" y2="26.38" x2="172.38" y1="32.51" x1="172.38" class="cls-5"/>
  <line id="svg_28" y2="26.38" x2="176.08" y1="32.51" x1="176.08" class="cls-5"/>
  <line id="svg_29" y2="26.38" x2="179.78" y1="32.51" x1="179.78" class="cls-5"/>
  <line id="svg_30" y2="26.38" x2="183.47" y1="32.51" x1="183.47" class="cls-5"/>
  <line id="svg_31" y2="26.38" x2="187.17" y1="32.51" x1="187.17" class="cls-5"/>
  <line id="svg_32" y2="26.38" x2="190.87" y1="32.51" x1="190.87" class="cls-5"/>
  <line id="svg_33" y2="26.38" x2="194.56" y1="32.51" x1="194.56" class="cls-5"/>
  <line id="svg_34" y2="26.17" x2="411.17" y1="26.17" x1="213.94" class="cls-5"/>
  <polyline id="svg_35" points="220.27999877929688,19.830001831054688 250.01998901367188,19.830001831054688 256.25,26.06999969482422 " class="cls-5"/>
  <polyline id="svg_36" points="220.27999877929688,32.51000213623047 242.82000732421875,32.51000213623047 248.95001220703125,26.37999725341797 " class="cls-5"/>
  <line id="svg_37" y2="26.38" x2="242.82" y1="32.51" x1="242.82" class="cls-5"/>
  <line id="svg_38" y2="26.38" x2="239.12" y1="32.51" x1="239.12" class="cls-5"/>
  <line id="svg_39" y2="26.38" x2="235.43" y1="32.51" x1="235.43" class="cls-5"/>
  <line id="svg_40" y2="26.38" x2="231.73" y1="32.51" x1="231.73" class="cls-5"/>
  <line id="svg_41" y2="26.38" x2="228.03" y1="32.51" x1="228.03" class="cls-5"/>
  <line id="svg_42" y2="26.38" x2="224.33" y1="32.51" x1="224.33" class="cls-5"/>
  <line id="svg_43" y2="26.38" x2="220.64" y1="32.51" x1="220.64" class="cls-5"/>
  <line id="svg_44" y2="22.95" x2="197.91" y1="22.95" x1="162.07" class="cls-5"/>
  <line id="svg_45" y2="22.95" x2="217.29" y1="22.95" x1="253.13" class="cls-5"/>
  <line id="svg_46" y2="29.39" x2="19.3" y1="22.95" x1="12.86" class="cls-5"/>
  <line id="svg_47" y2="29.39" x2="12.86" y1="22.95" x1="19.3" class="cls-5"/>
  <line id="svg_48" y2="33.94" x2="49.07" y1="18.41" x1="33.54" class="cls-5"/>
  <line id="svg_49" y2="33.94" x2="33.54" y1="18.41" x1="49.07" class="cls-5"/>
  <line id="svg_50" y2="29.39" x2="395.91" y1="22.95" x1="402.34" class="cls-5"/>
  <line id="svg_51" y2="29.39" x2="402.34" y1="22.95" x1="395.91" class="cls-5"/>
  <line id="svg_52" y2="33.94" x2="366.13" y1="18.41" x1="381.66" class="cls-5"/>
  <line id="svg_53" y2="33.94" x2="381.66" y1="18.41" x1="366.13" class="cls-5"/>
 </g>
</svg>