<!--?xml version="1.0" encoding="utf-8"?-->
<!-- Generator: Adobe Illustrator 24.0.1, SVG Export Plug-In . SVG Version: 6.00 Build 0)  -->
<svg version="1.1" id="Layer_1" xmlns="http://www.w3.org/2000/svg" xmlns:xlink="http://www.w3.org/1999/xlink" x="0px" y="0px" viewBox="0 0 505.2 343" style="" xml:space="preserve">
<style type="text/css">
	.st0{fill:none;stroke:#FFFFFF;stroke-miterlimit:10;}
	.st1{fill:#FF0000;}
</style>
<g>
	<g>
		<path class="st0 bIqEqqDZ_0" d="M157.9,244.8c-1.4,0-2.5,0.4-3.3,1.1c-0.8,0.8-1.2,1.8-1.2,3.1c0,1.4,0.4,2.5,1.2,3.3
			c0.8,0.8,1.9,1.2,3.3,1.2c1.5,0,2.6-0.4,3.3-1.2c0.8-0.8,1.1-1.9,1.1-3.3c0-1.3-0.4-2.4-1.2-3.1
			C160.3,245.2,159.3,244.8,157.9,244.8L157.9,244.8z M155.1,264.4c-3.2,0-6.9,2.5-11.1,7.4c-0.2,0.1-0.2,0.3,0,0.5
			c0.2,0.2,0.3,0.3,0.5,0.3c0.1,0,0.2,0,0.3-0.1c1.3-1.3,2.4-2.4,3.5-3.1c1.1-0.7,2-1.1,2.7-1.1c1.2,0,1.8,1,1.8,2.9
			c0,0.7-0.1,1.5-0.3,2.5l-3.9,19.8c-0.4,1.8-0.6,3.3-0.6,4.7c0,3.1,1.3,4.7,3.8,4.7c1.6,0,3.3-0.6,5.1-1.8c1.7-1.2,3.7-3,5.7-5.5
			c0.2-0.1,0.2-0.3,0.1-0.5c-0.1-0.2-0.3-0.3-0.6-0.3c-0.1,0-0.2,0-0.3,0.1c-2.5,2.7-4.5,4-6,4c-1.1,0-1.7-0.9-1.7-2.8
			c0-0.7,0.1-1.5,0.3-2.5l3.9-20.2c0.3-1.5,0.5-2.9,0.5-4.4s-0.3-2.6-0.9-3.4C157.3,264.8,156.4,264.4,155.1,264.4L155.1,264.4z"></path>
	</g>
	<g>
		<path class="st0 bIqEqqDZ_1" d="M197.1,264c-3.4,0-6.6,1.7-9.6,5.2s-5.7,8.3-8,14.5l1.9-10.4c0.3-1.9,0.5-3.3,0.5-4.3c0-1.6-0.3-2.7-0.9-3.5
			c-0.6-0.7-1.5-1.1-2.8-1.1c-1.7,0-3.5,0.6-5.3,1.8c-1.8,1.2-3.8,3.1-6,5.6c-0.1,0.1-0.1,0.3,0,0.5c0.1,0.2,0.3,0.3,0.5,0.3
			c0.1,0,0.2,0,0.3-0.1c2.7-2.8,4.8-4.2,6.3-4.2c1.2,0,1.8,1,1.8,2.9c0,0.6-0.1,1.4-0.3,2.4l-3.9,21.2c-0.1,0.8-0.5,2.5-1,5.2
			l-0.4,1.9c0,0.4,0.9,0.7,2.6,0.7c1.1,0,1.9-0.1,2.6-0.4c0.6-0.3,1-0.7,1.1-1.2c1.2-6.8,2.8-12.6,4.7-17.6
			c1.9-4.9,3.9-8.7,6.1-11.3c2.2-2.6,4.2-3.9,6.3-3.9c2.5,0,3.7,1.7,3.7,5.1c0,1.4-0.2,3-0.6,4.9l-2.8,15.1c-0.3,2-0.5,3.6-0.5,4.7
			c0,1.6,0.3,2.8,0.9,3.6c0.6,0.7,1.5,1.1,2.8,1.1c1.6,0,3.3-0.6,5-1.8c1.7-1.2,3.6-3.1,5.8-5.6c0.1-0.2,0.1-0.4,0-0.6
			c-0.1-0.2-0.3-0.3-0.5-0.3c-0.1,0-0.2,0.1-0.3,0.2c-1.4,1.3-2.6,2.3-3.5,3c-1,0.7-1.7,1-2.4,1c-1.2,0-1.8-1-1.8-2.9
			c0-0.6,0.1-1.4,0.3-2.4l3.1-16.9c0.4-2,0.6-3.8,0.6-5.2c0-2.5-0.5-4.3-1.6-5.5C200.8,264.6,199.2,264,197.1,264L197.1,264z"></path>
	</g>
	<g>
		<path class="st0 bIqEqqDZ_2" d="M262.8,242.6l-4.2,0.1c-2.5,0.1-4.5,0.2-6,0.2s-3.3-0.1-5.6-0.2l-4.1-0.1c-0.1,0-0.2,0.2-0.2,0.6
			c0,0.4,0.1,0.6,0.2,0.6c2.2,0,3.7,0.2,4.6,0.7c0.8,0.5,1.2,1.4,1.2,2.8c0,0.4-0.1,1.4-0.4,3l-7.8,44c-0.3,1.9-0.7,3.3-1.2,4.2
			c-0.5,0.9-1.2,1.5-2.1,1.9c-1,0.3-2.4,0.5-4.4,0.5c-0.2,0-0.3,0.2-0.3,0.6c0,0.4,0.1,0.6,0.3,0.6h39.8c0.4,0,0.8-0.1,1-0.3
			c0.2-0.2,0.4-0.6,0.5-1.1c0.8-4.6,1.9-9.1,3.1-13.4c0.1-0.2-0.1-0.3-0.4-0.4c-0.1,0-0.2,0-0.2,0c-0.2,0-0.3,0.1-0.4,0.2
			c-2,4.4-4.3,7.7-7,9.9s-6,3.3-9.9,3.3H252c-1.9,0-3.2-0.2-3.9-0.7c-0.7-0.4-1.1-1.3-1.1-2.7c0-0.8,0.1-1.8,0.3-2.9l7.7-43.5
			c0.4-1.9,0.8-3.3,1.3-4.2c0.5-0.9,1.2-1.6,2.1-1.9c1-0.3,2.4-0.5,4.4-0.5c0.1,0,0.2-0.2,0.2-0.6C263,242.8,263,242.6,262.8,242.6
			L262.8,242.6z"></path>
	</g>
	<g>
		<path class="st0 bIqEqqDZ_3" d="M295.4,244.8c-1.4,0-2.5,0.4-3.3,1.1c-0.8,0.8-1.2,1.8-1.2,3.1c0,1.4,0.4,2.5,1.2,3.3
			c0.8,0.8,1.9,1.2,3.3,1.2c1.5,0,2.6-0.4,3.3-1.2c0.8-0.8,1.1-1.9,1.1-3.3c0-1.3-0.4-2.4-1.2-3.1
			C297.9,245.2,296.8,244.8,295.4,244.8L295.4,244.8z M292.7,264.4c-3.2,0-6.9,2.5-11.1,7.4c-0.2,0.1-0.2,0.3,0,0.5
			c0.2,0.2,0.3,0.3,0.5,0.3c0.1,0,0.2,0,0.3-0.1c1.3-1.3,2.4-2.4,3.5-3.1c1.1-0.7,2-1.1,2.7-1.1c1.2,0,1.8,1,1.8,2.9
			c0,0.7-0.1,1.5-0.3,2.5l-3.9,19.8c-0.4,1.8-0.6,3.3-0.6,4.7c0,3.1,1.3,4.7,3.8,4.7c1.6,0,3.3-0.6,5.1-1.8c1.7-1.2,3.7-3,5.7-5.5
			c0.2-0.1,0.2-0.3,0.1-0.5c-0.1-0.2-0.3-0.3-0.6-0.3c-0.1,0-0.2,0-0.3,0.1c-2.5,2.7-4.5,4-6,4c-1.1,0-1.7-0.9-1.7-2.8
			c0-0.7,0.1-1.5,0.3-2.5l3.9-20.2c0.3-1.5,0.5-2.9,0.5-4.4s-0.3-2.6-0.9-3.4C294.9,264.8,293.9,264.4,292.7,264.4L292.7,264.4z"></path>
	</g>
	<g>
		<path class="st0 bIqEqqDZ_4" d="M333,233c-3.9,0-7.1,0.9-9.5,2.6c-2.4,1.7-4.4,4.6-5.9,8.8c-1.6,4.1-3,10.1-4.3,17.9
			c-0.3,1.6-0.9,2.7-1.8,3.3c-1,0.6-2.5,0.9-4.8,0.9c-0.1,0-0.1,0.1-0.2,0.3c-0.1,0.2-0.1,0.4-0.1,0.6c0,0.3,0.1,0.5,0.3,0.5
			c2.2,0,3.6,0.2,4.3,0.5c0.7,0.3,1,1,1,2.2c0,0.4-0.1,1.2-0.2,2.5l-4.8,33.5c-0.8,5.8-1.5,10-2.1,12.8c-0.6,2.8-1.1,4.6-1.6,5.6
			s-1.1,1.5-1.9,1.5c-0.6,0-1.1-0.2-1.3-0.6c-0.3-0.4-0.5-1-0.8-1.9c-0.3-1.1-0.7-2-1.1-2.6c-0.4-0.6-1.2-0.9-2.4-0.9
			c-1,0-1.9,0.3-2.6,0.9c-0.7,0.6-1.1,1.3-1.2,2.3c-0.2,1.3,0.3,2.3,1.5,3.2s3,1.3,5.3,1.3c2.7,0,5-0.8,6.7-2.3
			c1.8-1.5,3.3-4,4.5-7.5s2.2-8.2,3.1-14.4l5.1-35.3c2.2,0.3,3.8,0.5,4.8,0.7c0.5,0.1,1,0.1,1.4,0.2s0.9,0.1,1.2,0.1
			c0.6,0,1.3-0.4,2-1.3c0.7-0.9,1-1.5,1-2s-0.2-0.8-0.7-0.8l-3.1,0.2c-2.3,0.3-4.5,0.4-6.4,0.5l0.9-5.9c1.3-8.6,2.7-15,4.4-19.3
			c1.7-4.2,3.7-6.4,5.9-6.4c0.8,0,1.4,0.2,1.8,0.7c0.3,0.5,0.7,1.3,1.1,2.3c0.4,1.2,0.8,2.1,1.3,2.7c0.5,0.6,1.3,0.9,2.5,0.9
			c0.9,0,1.7-0.3,2.4-0.8s1.1-1.3,1.3-2.3c0.2-1.5-0.4-2.7-1.7-3.7C337.3,233.5,335.4,233,333,233L333,233z"></path>
	</g>
	<g>
		<path class="st0 bIqEqqDZ_5" d="M351.5,264c-3.5,0-6.9,1-10.1,3c-3.2,2-5.8,4.6-7.9,7.7c-2.1,3.1-3.5,6.4-4.1,9.6c-0.3,1.8-0.5,3.4-0.5,4.8
			c0,4.1,1,7.5,3.1,10.1s5.2,3.9,9.4,3.9c4.9,0,9.7-1.9,14.2-5.8c0.1-0.2,0.1-0.4,0-0.6c-0.2-0.2-0.3-0.3-0.5-0.3H355
			c-2.7,2.1-5.7,3.1-9.2,3.1c-3.2,0-5.7-1.2-7.4-3.5c-1.7-2.3-2.5-5.4-2.5-9.3c0-1.8,0.1-3.4,0.4-4.9c6.1-1.1,11.4-2.8,15.7-5.3
			c4.3-2.4,6.5-5.1,6.5-8.1c0-1.3-0.6-2.4-1.8-3.2C355.4,264.4,353.7,264,351.5,264L351.5,264z M336.4,280.5c0.8-4.1,2.2-7.5,4-10
			c1.8-2.6,4.1-3.8,6.6-3.8c1.1,0,2.1,0.3,2.9,0.9c0.8,0.6,1.2,1.4,1.2,2.5c0,0.2-0.1,0.6-0.2,1.2
			C349.9,275.7,345.1,278.8,336.4,280.5L336.4,280.5z"></path>
	</g>
</g>
<g>
	<g>
		<path class="st0 bIqEqqDZ_6" d="M185.9,23.9l-4,0.1c-2.5,0.1-4.5,0.2-5.9,0.2c-1.5,0-3.4-0.1-5.8-0.2l-4.1-0.1c-0.2,0-0.3,0.2-0.3,0.6
			c0,0.4,0.1,0.6,0.3,0.6c2.2,0,3.6,0.2,4.5,0.7c0.8,0.5,1.2,1.4,1.2,2.8c0,0.5-0.1,1.6-0.4,3.2L168,51.3h-28.7l3.5-19.5
			c0.4-1.9,0.8-3.3,1.3-4.2s1.2-1.6,2.2-1.9c1-0.4,2.4-0.6,4.3-0.6c0.1,0,0.2-0.2,0.2-0.6c0-0.4-0.1-0.6-0.2-0.6l-4.2,0.1
			c-2.5,0.1-4.5,0.2-6,0.2s-3.3-0.1-5.6-0.2l-4.1-0.1c-0.1,0-0.2,0.2-0.2,0.6c0,0.4,0.1,0.6,0.2,0.6c2.2,0,3.7,0.2,4.6,0.7
			c0.8,0.5,1.2,1.4,1.2,2.8c0,0.4-0.1,1.4-0.4,3l-7.8,44c-0.3,1.9-0.7,3.3-1.2,4.2c-0.5,0.9-1.2,1.5-2.2,1.9c-1,0.3-2.4,0.5-4.4,0.5
			c-0.2,0-0.3,0.2-0.3,0.6s0.1,0.6,0.3,0.6c1.7,0,3,0,4-0.1l5.7-0.1l6.1,0.1c1,0.1,2.4,0.1,4.1,0.1c0.2,0,0.3-0.2,0.3-0.6
			s-0.1-0.6-0.3-0.6c-2.2,0-3.7-0.2-4.6-0.7c-0.8-0.5-1.2-1.4-1.2-2.7c0-0.4,0.1-1.5,0.4-3.1l3.9-22.1h28.8l-3.9,22.1
			c-0.3,2-0.7,3.4-1.2,4.3s-1.2,1.5-2.1,1.8c-1,0.3-2.4,0.5-4.5,0.5c-0.1,0-0.2,0.2-0.2,0.6s0.1,0.6,0.2,0.6c1.8,0,3.3,0,4.3-0.1
			l5.9-0.1l5.9,0.1c1,0.1,2.2,0.1,3.9,0.1c0.2,0,0.3-0.2,0.3-0.6s-0.1-0.6-0.3-0.6c-2.2,0-3.7-0.2-4.6-0.7c-0.8-0.5-1.2-1.4-1.2-2.9
			c0-0.8,0.1-1.7,0.3-2.9l7.8-44c0.4-1.9,0.8-3.3,1.3-4.2s1.2-1.5,2.1-1.9c1-0.3,2.4-0.5,4.3-0.5c0.2,0,0.3-0.2,0.3-0.6
			C186.2,24.1,186.1,23.9,185.9,23.9L185.9,23.9z"></path>
	</g>
	<g>
		<path class="st0 bIqEqqDZ_7" d="M208.2,45.3c-3.5,0-6.9,1-10.1,3s-5.8,4.6-7.9,7.7c-2.1,3.1-3.5,6.4-4.1,9.6c-0.3,1.8-0.5,3.4-0.5,4.8
			c0,4.1,1,7.5,3.1,10.1c2.1,2.6,5.2,3.9,9.4,3.9c4.9,0,9.7-1.9,14.2-5.8c0.1-0.2,0.1-0.4,0-0.6c-0.2-0.2-0.3-0.3-0.5-0.3h-0.1
			c-2.7,2.1-5.7,3.1-9.2,3.1c-3.2,0-5.7-1.2-7.4-3.5c-1.7-2.3-2.5-5.4-2.5-9.3c0-1.8,0.1-3.4,0.4-4.9c6.1-1.1,11.4-2.8,15.7-5.3
			c4.3-2.4,6.5-5.1,6.5-8.1c0-1.3-0.6-2.4-1.8-3.2C212.1,45.7,210.4,45.3,208.2,45.3L208.2,45.3z M193.1,61.8c0.8-4.1,2.2-7.5,4-10
			c1.8-2.6,4.1-3.8,6.6-3.8c1.1,0,2.1,0.3,2.9,0.9c0.8,0.6,1.2,1.4,1.2,2.5c0,0.2-0.1,0.6-0.2,1.2C206.7,57,201.8,60.1,193.1,61.8
			L193.1,61.8z"></path>
	</g>
	<g>
		<path class="st0 bIqEqqDZ_8" d="M237.7,14.4h-0.2l-13.1,6.4c-0.3,0.1-0.3,0.3-0.2,0.6s0.3,0.5,0.6,0.5h0.1c1.9-0.9,3.4-1.4,4.4-1.4
			c1.3,0,1.9,0.8,1.9,2.5c0,0.6-0.1,1.4-0.3,2.4l-9.1,49.5c-0.4,1.9-0.6,3.5-0.6,4.7c0,1.6,0.3,2.8,0.9,3.5c0.6,0.8,1.6,1.1,2.9,1.1
			c1.6,0,3.3-0.6,5-1.8c1.7-1.2,3.6-3.1,5.7-5.6c0.2-0.2,0.2-0.4,0.1-0.6c-0.1-0.2-0.3-0.3-0.5-0.3c-0.1,0-0.3,0.1-0.4,0.2
			c-1.4,1.3-2.6,2.3-3.5,3c-1,0.7-1.7,1-2.4,1c-1.1,0-1.7-0.9-1.7-2.8c0-0.7,0.1-1.5,0.3-2.5l10.9-59.7c0.1-0.1,0-0.3-0.2-0.5
			C238.1,14.5,237.9,14.4,237.7,14.4L237.7,14.4z"></path>
	</g>
	<g>
		<path class="st0 bIqEqqDZ_9" d="M254.9,39.1c-0.2,0-0.4,0.1-0.4,0.3c-0.3,1.1-0.8,2.2-1.7,3.1c-0.9,1-1.8,1.8-2.9,2.6
			c-1.1,0.8-1.6,1.3-1.6,1.4l-1.2,7c-1.9,1.3-3.7,2.8-5.4,4.3c-0.2,0.1-0.2,0.3-0.1,0.6c0.1,0.3,0.3,0.4,0.6,0.4l0.2-0.1
			c2.5-1.9,4-3,4.4-3.2l-8.1,45.2c-0.4,2.1-0.7,3.6-1,4.5s-0.8,1.5-1.4,1.9c-0.6,0.4-1.6,0.7-3,1c-0.3,0.1-0.3,0.3-0.3,0.7
			c0.1,0.3,0.2,0.5,0.4,0.5h0.1l16.9-2.7c0.3-0.1,0.3-0.3,0.2-0.6c-0.1-0.3-0.2-0.4-0.4-0.4h-0.1c-1.1,0.1-1.9,0.2-2.3,0.2
			c-1.1,0-1.9-0.2-2.4-0.7s-0.8-1.3-0.8-2.3c0-0.7,0.1-1.6,0.3-2.7l3-17.1c1.3,0.2,3,0.3,4.9,0.3c3.4,0,6.6-1.1,9.9-3.3
			c3.2-2.2,6-5.2,8.3-8.9c2.3-3.7,3.8-7.7,4.3-11.9c0.2-1.3,0.3-2.4,0.3-3.4c0-3.2-0.8-5.7-2.4-7.4c-1.6-1.7-4-2.5-7.1-2.5
			c-3.8,0-7.9,1.2-12.3,3.5l1.7-9.8c0.1-0.3-0.1-0.4-0.4-0.5C255,39.1,255,39.1,254.9,39.1L254.9,39.1z M255.7,80.6
			c-2.5,0-4.9-0.5-7.2-1.5l4.9-27.5c2.7-1.3,5.3-1.9,7.8-1.9c5.3,0,7.9,3.1,7.9,9.3c0,0.7-0.1,1.8-0.2,3.3c-0.7,5.6-2.1,10-4.3,13.3
			C262.4,78.9,259.4,80.6,255.7,80.6L255.7,80.6z"></path>
	</g>
	<g>
		<path class="st0 bIqEqqDZ_10" d="M293.9,26.1c-1.4,0-2.5,0.4-3.3,1.1c-0.8,0.8-1.2,1.8-1.2,3.1c0,1.4,0.4,2.5,1.2,3.3c0.8,0.8,1.9,1.2,3.3,1.2
			c1.5,0,2.6-0.4,3.3-1.2c0.8-0.8,1.1-1.9,1.1-3.3c0-1.3-0.4-2.4-1.2-3.1C296.4,26.5,295.3,26.1,293.9,26.1L293.9,26.1z M291.1,45.7
			c-3.2,0-6.9,2.5-11.1,7.4c-0.2,0.1-0.2,0.3,0,0.5c0.2,0.2,0.3,0.3,0.5,0.3c0.1,0,0.2,0,0.3-0.1c1.3-1.3,2.4-2.4,3.5-3.1
			c1.1-0.7,2-1.1,2.7-1.1c1.2,0,1.8,1,1.8,2.9c0,0.7-0.1,1.5-0.3,2.5l-3.9,19.8c-0.4,1.8-0.6,3.3-0.6,4.7c0,3.1,1.3,4.7,3.8,4.7
			c1.6,0,3.3-0.6,5.1-1.8c1.7-1.2,3.7-3,5.7-5.5c0.2-0.1,0.2-0.3,0.1-0.5c-0.1-0.2-0.3-0.3-0.6-0.3c-0.1,0-0.2,0-0.3,0.1
			c-2.5,2.7-4.5,4-6,4c-1.1,0-1.7-0.9-1.7-2.8c0-0.7,0.1-1.5,0.3-2.5l3.9-20.2c0.3-1.5,0.5-2.9,0.5-4.4s-0.3-2.6-0.9-3.4
			C293.3,46.1,292.4,45.7,291.1,45.7L291.1,45.7z"></path>
	</g>
	<g>
		<path class="st0 bIqEqqDZ_11" d="M333.1,45.3c-3.4,0-6.6,1.7-9.6,5.2s-5.7,8.3-8,14.5l1.9-10.4c0.3-1.9,0.5-3.3,0.5-4.3c0-1.6-0.3-2.7-0.9-3.5
			c-0.6-0.7-1.5-1.1-2.8-1.1c-1.7,0-3.5,0.6-5.3,1.8c-1.8,1.2-3.8,3.1-6,5.6c-0.1,0.1-0.1,0.3,0,0.5s0.3,0.3,0.5,0.3
			c0.1,0,0.2,0,0.3-0.1c2.7-2.8,4.8-4.2,6.3-4.2c1.2,0,1.8,1,1.8,2.9c0,0.6-0.1,1.4-0.3,2.4l-3.9,21.2c-0.1,0.8-0.5,2.5-1,5.2
			l-0.4,1.9c0,0.4,0.9,0.7,2.6,0.7c1.1,0,1.9-0.1,2.6-0.4c0.6-0.3,1-0.7,1.1-1.2c1.2-6.8,2.8-12.6,4.7-17.6
			c1.9-4.9,3.9-8.7,6.1-11.3c2.2-2.6,4.2-3.9,6.3-3.9c2.5,0,3.7,1.7,3.7,5.1c0,1.4-0.2,3-0.6,4.9l-2.8,15.1c-0.3,2-0.5,3.6-0.5,4.7
			c0,1.6,0.3,2.8,0.9,3.6c0.6,0.7,1.5,1.1,2.8,1.1c1.6,0,3.3-0.6,5-1.8c1.7-1.2,3.6-3.1,5.8-5.6c0.1-0.2,0.1-0.4,0-0.6
			s-0.3-0.3-0.5-0.3c-0.1,0-0.2,0.1-0.3,0.2c-1.4,1.3-2.6,2.3-3.5,3c-1,0.7-1.7,1-2.4,1c-1.2,0-1.8-1-1.8-2.9c0-0.6,0.1-1.4,0.3-2.4
			l3.1-16.9c0.4-2,0.6-3.8,0.6-5.2c0-2.5-0.5-4.3-1.6-5.5C336.8,45.9,335.2,45.3,333.1,45.3L333.1,45.3z"></path>
	</g>
	<g>
		<path class="st0 bIqEqqDZ_12" d="M381.7,45.8c-2.8,0-5.9,0.8-9.2,2.3c-1.7-1.4-3.9-2.1-6.5-2.1c-3.9,0-7.3,1.3-10.4,3.9
			c-3.1,2.6-5,5.9-5.7,9.9c-0.3,1.5-0.4,2.7-0.4,3.4c0,2.5,0.5,4.6,1.6,6.4s2.6,3,4.7,3.7c-1.5,1.3-2.6,2.4-3.4,3.5
			c-0.8,1-1.4,2.1-1.6,3.2c-0.1,0.2-0.1,0.5-0.1,1c0,1.9,1.1,3.6,3.4,5.2c-4.3,2.3-7.6,4.6-9.9,6.8c-2.3,2.2-3.5,4.7-3.5,7.4
			c0,2.7,1.3,4.9,3.9,6.7c2.6,1.8,6.1,2.8,10.6,2.8c3.6,0,7-0.6,10.1-1.9s5.6-3,7.5-5.1c1.9-2.2,2.8-4.5,2.8-7c0-2.6-1-4.7-2.9-6.4
			c-1.9-1.6-4.7-3.3-8.2-5c-2.8-1.5-4.9-2.7-6.3-3.8s-2-2.3-2-3.8c0-1.1,0.3-2.2,1-3.2c0.9,0.1,1.6,0.2,2.2,0.2
			c2.3,0,4.6-0.6,6.9-1.8c2.2-1.2,4.2-2.8,5.8-4.9c1.6-2.1,2.8-4.6,3.3-7.4c0.3-1.1,0.4-2.3,0.4-3.6c0-2.7-0.7-4.9-2-6.8
			c0.3,0,0.6,0,0.9,0c2.5,0,4.6,0.5,6.3,1.5h0.1c0.2,0,0.5-0.4,0.7-1.2c0.3-0.9,0.4-1.8,0.4-2.7C382.1,46.2,382,45.8,381.7,45.8
			L381.7,45.8z M361.7,72c-1.8,0-3.3-1-4.4-3s-1.6-4.4-1.6-7.4c0-1.2,0.1-2.4,0.3-3.6c0.4-2.9,1.4-5.4,2.8-7.3
			c1.5-2,3.1-2.9,4.8-2.9c2,0,3.4,1.1,4.4,3.2c1,2.1,1.4,4.7,1.4,7.6c0,1.5-0.1,2.5-0.2,3.2c-0.4,3.1-1.4,5.6-2.8,7.4
			C365.1,71.1,363.5,72,361.7,72L361.7,72z M359.8,107.2c-3.8,0-6.9-0.9-9.3-2.7s-3.6-4.1-3.6-6.9c0-2.3,0.7-4.3,2.1-5.9
			s3.4-3.2,5.9-4.8c1.1,0.7,2.6,1.5,4.5,2.4c3.4,1.8,6,3.4,7.7,4.8s2.6,3.3,2.6,5.6c0,2.2-0.9,4-2.6,5.4
			C365.5,106.5,363.1,107.2,359.8,107.2L359.8,107.2z"></path>
	</g>
</g>
<g>
	<g>
		<g>
			<path class="st0 bIqEqqDZ_13" d="M359.2,144.9h-36.7c-0.2,0-0.3,0.2-0.3,0.6s0.1,0.6,0.3,0.6c2.2,0,3.6,0.2,4.5,0.7c0.8,0.5,1.2,1.4,1.2,2.7
				c0,1-0.1,2.1-0.4,3.1l-7.7,44c-0.4,2-0.8,3.4-1.3,4.3c-0.5,0.9-1.2,1.5-2.1,1.8c-1,0.3-2.4,0.5-4.4,0.5c-0.1,0-0.2,0.2-0.2,0.6
				c0,0.4,0.1,0.6,0.2,0.6h38.9c0.5,0,0.9-0.1,1-0.3c0.2-0.2,0.3-0.6,0.5-1.1c0.9-4.9,1.9-9.2,3-12.8c0.1-0.2,0-0.3-0.3-0.4
				c-0.1,0-0.2,0-0.2,0c-0.2,0-0.4,0.1-0.5,0.2c-1.6,3.8-3.8,6.9-6.5,9.2c-2.7,2.3-5.4,3.5-8.2,3.5h-7.8c-2.2,0-3.6-0.2-4.4-0.7
				c-0.8-0.5-1.2-1.4-1.2-2.7c0-0.8,0.1-1.7,0.3-2.9l3.9-21.8h12.3c2.2,0,3.9,0.4,4.9,1.3c1.1,0.9,1.6,2.2,1.6,4.1
				c0,0.8-0.1,1.6-0.3,2.6c-0.1,0.3,0.1,0.4,0.5,0.4h0.1c0.3,0,0.5-0.1,0.5-0.3c0.4-2.2,0.8-4.2,1-6.2l0.5-2.9
				c0.2-1.3,0.4-2.5,0.7-3.4c0.4-1.5,0.7-3,0.9-4.4c0.1-0.1,0-0.2-0.1-0.3c-0.2-0.1-0.3-0.1-0.4-0.1c-0.4,0-0.6,0.1-0.6,0.3
				c-0.4,2.5-1.3,4.3-2.7,5.3c-1.3,1-3.3,1.5-5.9,1.5h-12.6l3.4-19.6c0.3-1.8,0.7-3.2,1.1-4c0.4-0.8,1.1-1.4,2-1.7s2.4-0.5,4.3-0.5
				h5.9c2.9,0,5.2,1,6.7,3.1c1.6,2.1,2.2,4.8,2,8.1c0,0.1,0.1,0.1,0.2,0.2c0.2,0.1,0.3,0.1,0.4,0.1c0.3,0,0.5-0.1,0.5-0.3l1.1-6.9
				l0.8-5.1C359.9,145.2,359.7,144.9,359.2,144.9L359.2,144.9z"></path>
		</g>
		<g>
			<path class="st0 bIqEqqDZ_14" d="M394.8,166.7c-1.4,0-2.6,0.4-3.5,1.3c-1,0.9-2.3,2.7-4.1,5.6l-4.9,7.7l-2.4-7.9c-0.8-2.5-1.6-4.3-2.6-5.2
				c-1-0.9-2.2-1.4-3.7-1.4s-3,0.6-4.8,1.8c-1.7,1.2-3.7,3-6,5.5c-0.2,0.1-0.2,0.3,0,0.5s0.3,0.3,0.5,0.3c0.1,0,0.2,0,0.3-0.1
				c2.3-2.3,4.3-3.5,5.9-3.5c1,0,1.8,0.3,2.6,1c0.8,0.7,1.5,2.1,2,4.3l3.5,11.3l-6.2,9.2c-1.1,1.6-2.3,2.5-3.5,2.5
				c-0.4,0-0.8-0.1-1.2-0.3c-0.3-0.2-0.7-0.4-1-0.7c-0.4-0.4-0.9-0.7-1.2-0.9c-0.3-0.2-0.9-0.3-1.5-0.3c-0.8,0-1.5,0.2-2.1,0.7
				s-1,1.1-1.1,1.9c-0.1,1.3,0.4,2.5,1.5,3.6c1.1,1.1,2.4,1.6,3.8,1.6c1.4,0,2.6-0.4,3.5-1.3c0.9-0.9,2.3-2.7,4.2-5.7l5.4-8.6
				l2.9,9.4c0.8,2.3,1.6,4,2.5,4.8c0.9,0.9,2.1,1.3,3.5,1.3c1.5,0,3-0.6,4.7-1.8c1.7-1.2,3.7-3,6-5.5c0.1-0.2,0.1-0.4,0-0.6
				s-0.3-0.3-0.6-0.3c-0.1,0-0.2,0-0.3,0.1c-2.2,2.3-4.1,3.5-5.8,3.5c-1,0-1.8-0.3-2.5-0.9c-0.7-0.6-1.4-1.9-1.9-3.8l-3.9-12.9
				l5.5-8.2c1.2-1.7,2.4-2.6,3.6-2.6c0.6,0,1.3,0.3,2.1,0.9c0.8,0.8,1.7,1.2,2.8,1.2c1,0,1.7-0.3,2.3-0.9s0.9-1.3,0.9-2.2
				c0-1.3-0.5-2.4-1.6-3.3C397.3,167.2,396.1,166.7,394.8,166.7L394.8,166.7z"></path>
		</g>
		<g>
			<path class="st0 bIqEqqDZ_15" d="M424.2,166.3c-2.8,0-5.7,0.8-8.6,2.3c-2.9,1.5-5.5,3.7-7.6,6.6c-2.2,2.8-3.6,6.1-4.3,9.9
				c-0.4,1.8-0.6,3.6-0.6,5.5c0,4.2,1,7.8,3.1,10.6c2.1,2.9,5.2,4.3,9.4,4.3c5,0,9.9-2.2,14.8-6.7c0.1-0.1,0.1-0.3,0-0.6
				c-0.2-0.3-0.3-0.4-0.5-0.4l-0.2,0.1c-3.2,2.6-6.4,3.9-9.5,3.9c-3.4,0-6-1.2-7.7-3.7s-2.6-5.7-2.6-9.8c0-1.6,0.2-3.7,0.7-6.3
				c0.7-4.1,1.9-7.3,3.6-9.7c1.7-2.4,3.9-3.7,6.6-3.7c2.3,0,3.9,1.2,4.6,3.6c0.6,2.3,1.8,3.4,3.8,3.4c1.2,0,2.1-0.4,2.8-1.1
				c0.6-0.8,1-1.7,1-2.8c0-1.6-0.8-3-2.5-3.9C428.5,166.8,426.5,166.3,424.2,166.3L424.2,166.3z"></path>
		</g>
		<g>
			<path class="st0 bIqEqqDZ_16" d="M458.3,166.3c-3.5,0-6.9,1-10.1,3c-3.2,2-5.8,4.6-7.9,7.7c-2.1,3.1-3.5,6.4-4.1,9.6
				c-0.3,1.8-0.5,3.4-0.5,4.8c0,4.1,1,7.5,3.1,10.1c2.1,2.6,5.2,3.9,9.4,3.9c4.9,0,9.7-1.9,14.2-5.8c0.1-0.2,0.1-0.4,0-0.6
				c-0.2-0.2-0.3-0.3-0.5-0.3h-0.1c-2.7,2.1-5.7,3.1-9.2,3.1c-3.2,0-5.7-1.2-7.4-3.5s-2.5-5.4-2.5-9.3c0-1.8,0.1-3.4,0.4-4.9
				c6.1-1.1,11.4-2.8,15.7-5.3c4.3-2.4,6.5-5.1,6.5-8.1c0-1.3-0.6-2.4-1.8-3.2C462.2,166.7,460.5,166.3,458.3,166.3L458.3,166.3z
				 M443.2,182.8c0.8-4.1,2.2-7.5,4-10c1.8-2.6,4.1-3.8,6.6-3.8c1.1,0,2.1,0.3,2.9,0.9c0.8,0.6,1.2,1.4,1.2,2.5
				c0,0.2-0.1,0.6-0.2,1.2C456.8,178,451.9,181.1,443.2,182.8L443.2,182.8z"></path>
		</g>
		<g>
			<path class="st0 bIqEqqDZ_17" d="M487.8,135.4h-0.2l-13.1,6.4c-0.3,0.1-0.3,0.3-0.2,0.6s0.3,0.5,0.6,0.5h0.1c1.9-0.9,3.4-1.4,4.4-1.4
				c1.3,0,1.9,0.8,1.9,2.5c0,0.6-0.1,1.4-0.3,2.4l-9.1,49.5c-0.4,1.9-0.6,3.5-0.6,4.7c0,1.6,0.3,2.8,0.9,3.5
				c0.6,0.8,1.6,1.1,2.9,1.1c1.6,0,3.3-0.6,5-1.8s3.6-3.1,5.7-5.6c0.2-0.2,0.2-0.4,0.1-0.6c-0.1-0.2-0.3-0.3-0.5-0.3
				c-0.1,0-0.3,0.1-0.4,0.2c-1.4,1.3-2.6,2.3-3.5,3c-1,0.7-1.7,1-2.4,1c-1.1,0-1.7-0.9-1.7-2.8c0-0.7,0.1-1.5,0.3-2.5l10.9-59.7
				c0.1-0.1,0-0.3-0.2-0.5C488.2,135.5,488,135.4,487.8,135.4L487.8,135.4z"></path>
		</g>
	</g>
	<g>
		<g>
			<path class="st0 bIqEqqDZ_18" d="M60.9,144.9H24.1c-0.2,0-0.3,0.2-0.3,0.6c0,0.4,0.1,0.6,0.3,0.6c2.2,0,3.6,0.2,4.5,0.7
				c0.8,0.5,1.2,1.4,1.2,2.7c0,1-0.1,2.1-0.4,3.1l-7.7,44c-0.4,1.9-0.8,3.3-1.3,4.2c-0.5,0.9-1.2,1.5-2.1,1.9
				c-1,0.3-2.4,0.5-4.4,0.5c-0.2,0-0.3,0.2-0.3,0.6c0,0.4,0.1,0.6,0.3,0.6c1.7,0,3,0,4-0.1l5.7-0.1l9.2,0.1c1.1,0.1,2.6,0.1,4.4,0.1
				c0.1,0,0.2-0.2,0.2-0.6c0-0.4-0.1-0.6-0.2-0.6c-3.5,0-5.9-0.3-7.2-0.9c-1.2-0.6-1.9-1.7-1.9-3.3c0-0.8,0.1-1.7,0.3-2.8l3.6-20.6
				h11c2.2,0,3.8,0.4,4.9,1.3c1,0.9,1.6,2.3,1.6,4.2c0,1-0.1,1.8-0.2,2.5c-0.1,0.3,0.1,0.4,0.5,0.4h0.1c0.3,0,0.5-0.1,0.5-0.3
				l1.4-9.1c0.8-3.7,1.3-6.4,1.5-7.9c0.1-0.3-0.1-0.4-0.5-0.4h-0.1c-0.3,0-0.5,0.1-0.5,0.3c-0.4,2.5-1.3,4.2-2.7,5.3
				c-1.4,1.1-3.3,1.6-5.9,1.6H32.4l3.7-20.7c0.3-1.8,0.7-3.2,1.1-4c0.4-0.8,1.1-1.4,2-1.7s2.4-0.5,4.3-0.5h5.9c2.9,0,5.2,1,6.7,3.1
				c1.6,2.1,2.3,4.8,2.1,8.1c-0.1,0.2,0.1,0.3,0.5,0.4c0.1,0,0.1,0,0.2,0c0.3,0,0.4-0.1,0.5-0.3l0.7-4.4l1.1-7.7
				C61.5,145.2,61.4,144.9,60.9,144.9L60.9,144.9z"></path>
		</g>
		<g>
			<path class="st0 bIqEqqDZ_19" d="M90.1,165.4c-0.1,0-0.3,0.1-0.4,0.2c-0.4,1.2-1.3,2.3-2.5,3.3c-1.6-1.7-3.8-2.6-6.5-2.6
				c-3.3,0-6.8,1.5-10.5,4.5s-7,6.8-9.7,11.4c-2.8,4.6-4.5,9.1-5.1,13.4c-0.1,1.3-0.2,2.2-0.2,2.8c0,2.4,0.5,4.2,1.6,5.4
				c1,1.2,2.5,1.8,4.4,1.8c3.4,0,6.8-1.7,10.4-5c3.5-3.4,6.7-7.9,9.4-13.7l-1.5,9c-0.3,2-0.5,3.5-0.5,4.6c0,1.6,0.3,2.9,0.9,3.6
				c0.6,0.8,1.5,1.1,2.8,1.1c1.6,0,3.2-0.6,4.9-1.9c1.7-1.2,3.6-3.1,5.7-5.6c0.1-0.1,0.1-0.3,0-0.5s-0.3-0.3-0.5-0.3
				c-0.1,0-0.2,0-0.3,0.1c-2.6,2.7-4.6,4.1-5.9,4.1c-1.1,0-1.6-0.9-1.6-2.7c0-0.8,0.1-1.6,0.3-2.6l5.5-30c0.1-0.1,0-0.1-0.2-0.2
				C90.5,165.4,90.3,165.4,90.1,165.4L90.1,165.4z M65.5,200.1c-2.7,0-4-2-4-5.9c0-0.6,0.1-2,0.4-4c0.6-3.8,1.6-7.2,3.2-10.3
				c1.6-3,3.5-5.4,5.6-7.2c2.2-1.7,4.3-2.6,6.5-2.6c1.8,0,3.1,0.5,4.1,1.6c1,1.1,1.4,2.5,1.4,4.4c0,0.8-0.1,1.7-0.3,2.6
				c-0.6,3.1-1.9,6.3-3.8,9.7c-1.9,3.4-4,6.1-6.4,8.4C70,199,67.7,200.1,65.5,200.1L65.5,200.1z"></path>
		</g>
		<g>
			<path class="st0 bIqEqqDZ_20" d="M147.6,166.3c-3.2,0-6.2,1.7-9.2,5c-2.9,3.4-5.5,8.1-7.7,14.2l1.2-6.7c0.4-2,0.6-3.7,0.6-5.1
				c0-4.9-2-7.3-5.9-7.3c-3.2,0-6.2,1.7-9.2,5c-2.9,3.4-5.5,8-7.6,14.1l1.7-9.9c0.3-1.9,0.5-3.3,0.5-4.3c0-1.6-0.3-2.7-0.9-3.5
				c-0.6-0.7-1.5-1.1-2.8-1.1c-1.7,0-3.5,0.6-5.3,1.8s-3.8,3.1-6,5.6c-0.1,0.1-0.1,0.3,0,0.5s0.3,0.3,0.5,0.3c0.1,0,0.2,0,0.3-0.1
				c2.7-2.8,4.8-4.2,6.3-4.2c1.2,0,1.8,1,1.8,2.9c0,0.6-0.1,1.4-0.3,2.4l-3.9,21.5l-1,4.7l-0.5,2.2c0,0.4,0.8,0.7,2.5,0.7
				c2.2,0,3.5-0.5,3.8-1.6l0.2-1c1.1-6.5,2.6-12.1,4.5-16.9c1.8-4.8,3.8-8.5,5.8-11c2.1-2.5,4-3.8,5.8-3.8c2.2,0,3.3,1.8,3.3,5.4
				c0,1.5-0.1,3-0.4,4.6l-3.1,16.6c-0.2,1.2-0.5,2.6-0.8,4.2c-0.3,1.6-0.6,2.6-0.6,2.9c0,0.4,0.8,0.7,2.5,0.7c1.1,0,2-0.1,2.7-0.4
				c0.6-0.3,1-0.7,1-1.2l0.4-2.1c1.2-6.4,2.7-11.9,4.6-16.6c1.8-4.7,3.8-8.2,5.7-10.5c2-2.4,3.9-3.6,5.7-3.6c2.2,0,3.3,1.7,3.3,5.1
				c0,1.2-0.2,2.9-0.5,4.9l-2.6,15.1c-0.3,2.1-0.5,3.7-0.5,4.8c0,1.6,0.3,2.7,0.9,3.5c0.6,0.7,1.5,1.1,2.8,1.1c1.6,0,3.3-0.6,5-1.8
				c1.7-1.2,3.6-3.1,5.7-5.6c0.2-0.2,0.2-0.4,0.1-0.6s-0.3-0.3-0.5-0.3c-0.1,0-0.3,0.1-0.4,0.2c-1.4,1.3-2.6,2.3-3.5,3s-1.7,1-2.4,1
				c-1.1,0-1.7-0.9-1.7-2.8c0-0.7,0.1-1.5,0.3-2.5l3-16.9c0.4-2,0.6-3.8,0.6-5.3C153.4,168.7,151.5,166.3,147.6,166.3L147.6,166.3z"></path>
		</g>
		<g>
			<path class="st0 bIqEqqDZ_21" d="M175.9,147.1c-1.4,0-2.5,0.4-3.3,1.1c-0.8,0.8-1.2,1.8-1.2,3.1c0,1.4,0.4,2.5,1.2,3.3
				c0.8,0.8,1.9,1.2,3.3,1.2c1.5,0,2.6-0.4,3.3-1.2c0.8-0.8,1.1-1.9,1.1-3.3c0-1.3-0.4-2.4-1.2-3.1
				C178.4,147.5,177.3,147.1,175.9,147.1L175.9,147.1z M173.2,166.7c-3.2,0-6.9,2.5-11.1,7.4c-0.2,0.1-0.2,0.3,0,0.5
				s0.3,0.3,0.5,0.3c0.1,0,0.2,0,0.3-0.1c1.3-1.3,2.4-2.4,3.5-3.1s2-1.1,2.7-1.1c1.2,0,1.8,1,1.8,2.9c0,0.7-0.1,1.5-0.3,2.5
				l-3.9,19.8c-0.4,1.8-0.6,3.3-0.6,4.7c0,3.1,1.3,4.7,3.8,4.7c1.6,0,3.3-0.6,5.1-1.8c1.7-1.2,3.7-3,5.7-5.5
				c0.2-0.1,0.2-0.3,0.1-0.5s-0.3-0.3-0.6-0.3c-0.1,0-0.2,0-0.3,0.1c-2.5,2.7-4.5,4-6,4c-1.1,0-1.7-0.9-1.7-2.8
				c0-0.7,0.1-1.5,0.3-2.5l3.9-20.2c0.3-1.5,0.5-2.9,0.5-4.4s-0.3-2.6-0.9-3.4C175.4,167.1,174.4,166.7,173.2,166.7L173.2,166.7z"></path>
		</g>
		<g>
			<path class="st0 bIqEqqDZ_22" d="M204.5,135.4h-0.2l-13.1,6.4c-0.3,0.1-0.3,0.3-0.2,0.6c0.1,0.3,0.3,0.5,0.6,0.5h0.1c1.9-0.9,3.4-1.4,4.4-1.4
				c1.3,0,1.9,0.8,1.9,2.5c0,0.6-0.1,1.4-0.3,2.4l-9.1,49.5c-0.4,1.9-0.6,3.5-0.6,4.7c0,1.6,0.3,2.8,0.9,3.5
				c0.6,0.8,1.6,1.1,2.9,1.1c1.6,0,3.3-0.6,5-1.8s3.6-3.1,5.7-5.6c0.2-0.2,0.2-0.4,0.1-0.6s-0.3-0.3-0.5-0.3c-0.1,0-0.3,0.1-0.4,0.2
				c-1.4,1.3-2.6,2.3-3.5,3c-1,0.7-1.7,1-2.4,1c-1.1,0-1.7-0.9-1.7-2.8c0-0.7,0.1-1.5,0.3-2.5l10.9-59.7c0.1-0.1,0-0.3-0.2-0.5
				C205,135.5,204.8,135.4,204.5,135.4L204.5,135.4z"></path>
		</g>
		<g>
			<path class="st0 bIqEqqDZ_23" d="M222.2,147.1c-1.4,0-2.5,0.4-3.3,1.1c-0.8,0.8-1.2,1.8-1.2,3.1c0,1.4,0.4,2.5,1.2,3.3s1.9,1.2,3.3,1.2
				c1.5,0,2.6-0.4,3.3-1.2c0.8-0.8,1.1-1.9,1.1-3.3c0-1.3-0.4-2.4-1.2-3.1C224.7,147.5,223.6,147.1,222.2,147.1L222.2,147.1z
				 M219.4,166.7c-3.2,0-6.9,2.5-11.1,7.4c-0.2,0.1-0.2,0.3,0,0.5s0.3,0.3,0.5,0.3c0.1,0,0.2,0,0.3-0.1c1.3-1.3,2.4-2.4,3.5-3.1
				s2-1.1,2.7-1.1c1.2,0,1.8,1,1.8,2.9c0,0.7-0.1,1.5-0.3,2.5l-3.9,19.8c-0.4,1.8-0.6,3.3-0.6,4.7c0,3.1,1.3,4.7,3.8,4.7
				c1.6,0,3.3-0.6,5.1-1.8c1.7-1.2,3.7-3,5.7-5.5c0.2-0.1,0.2-0.3,0.1-0.5c-0.1-0.2-0.3-0.3-0.6-0.3c-0.1,0-0.2,0-0.3,0.1
				c-2.5,2.7-4.5,4-6,4c-1.1,0-1.7-0.9-1.7-2.8c0-0.7,0.1-1.5,0.3-2.5l3.9-20.2c0.3-1.5,0.5-2.9,0.5-4.4s-0.3-2.6-0.9-3.4
				C221.6,167.1,220.7,166.7,219.4,166.7L219.4,166.7z"></path>
		</g>
		<g>
			<path class="st0 bIqEqqDZ_24" d="M254.3,166.3c-3.5,0-6.9,1-10.1,3c-3.2,2-5.8,4.6-7.9,7.7c-2.1,3.1-3.5,6.4-4.1,9.6
				c-0.3,1.8-0.5,3.4-0.5,4.8c0,4.1,1,7.5,3.1,10.1c2.1,2.6,5.2,3.9,9.4,3.9c4.9,0,9.7-1.9,14.2-5.8c0.1-0.2,0.1-0.4,0-0.6
				c-0.2-0.2-0.3-0.3-0.5-0.3h-0.1c-2.7,2.1-5.7,3.1-9.2,3.1c-3.2,0-5.7-1.2-7.4-3.5s-2.5-5.4-2.5-9.3c0-1.8,0.1-3.4,0.4-4.9
				c6.1-1.1,11.4-2.8,15.7-5.3c4.3-2.4,6.5-5.1,6.5-8.1c0-1.3-0.6-2.4-1.8-3.2C258.2,166.7,256.5,166.3,254.3,166.3L254.3,166.3z
				 M239.2,182.8c0.8-4.1,2.2-7.5,4-10c1.8-2.6,4.1-3.8,6.6-3.8c1.1,0,2.1,0.3,2.9,0.9c0.8,0.6,1.2,1.4,1.2,2.5
				c0,0.2-0.1,0.6-0.2,1.2C252.8,178,247.9,181.1,239.2,182.8L239.2,182.8z"></path>
		</g>
		<g>
			<path class="st0 bIqEqqDZ_25" d="M281.4,166.6c-2.3,0-4.5,0.5-6.5,1.5c-2.1,1-3.7,2.3-4.9,4s-1.9,3.6-1.9,5.6c0,1.8,0.5,3.4,1.6,4.8
				c1.1,1.3,2.7,2.9,4.8,4.6c2.2,1.8,3.8,3.3,4.8,4.7c1,1.3,1.6,2.9,1.6,4.8c0,0.6,0,1-0.1,1.2c-0.4,3.4-2.2,5.1-5.2,5.1
				c-1.5,0-2.6-0.3-3.4-1c-0.8-0.7-1.6-1.7-2.3-2.9c-0.6-1-1.2-1.7-1.6-2.1c-0.4-0.4-1-0.6-1.7-0.6c-0.9,0-1.8,0.3-2.4,0.9
				c-0.7,0.6-1,1.5-1,2.7c0,1.5,0.9,2.8,2.7,3.9c1.8,1.1,3.9,1.7,6.3,1.7c2.6,0,5-0.6,7.1-1.9s3.8-2.9,5-4.8c1.2-2,1.9-3.9,1.9-5.8
				c0-1.9-0.6-3.6-1.7-5c-1.1-1.4-2.8-3.1-5-5c-2-1.7-3.6-3.2-4.6-4.6c-1-1.3-1.6-2.9-1.6-4.6c0-0.6,0-1,0.1-1.2
				c0.1-1.1,0.6-1.9,1.4-2.6c0.8-0.6,1.8-0.9,3-0.9s2.1,0.3,2.8,0.8s1.3,1.3,1.9,2.3c0.6,0.9,1.1,1.6,1.6,2c0.5,0.4,1.2,0.7,2.2,0.7
				c0.8,0,1.5-0.3,2.1-0.8s1-1.3,1.2-2.2c0.2-1.5-0.5-2.7-2.1-3.6C285.9,167.1,283.8,166.6,281.4,166.6L281.4,166.6z"></path>
		</g>
	</g>
</g>
<path class="st1 bIqEqqDZ_26" d="M-35.2,178.8L-35.2,178.8c0-0.1,0-0.1,0-0.1l-3.9,0.1c-2.5,0.1-4.5,0.2-6,0.2"></path>
<style data-made-with="vivus-instant">.bIqEqqDZ_0{stroke-dasharray:150 152;stroke-dashoffset:151;animation:bIqEqqDZ_draw 2000ms linear 0ms forwards;}.bIqEqqDZ_1{stroke-dasharray:255 257;stroke-dashoffset:256;animation:bIqEqqDZ_draw 2000ms linear 38ms forwards;}.bIqEqqDZ_2{stroke-dasharray:245 247;stroke-dashoffset:246;animation:bIqEqqDZ_draw 2000ms linear 76ms forwards;}.bIqEqqDZ_3{stroke-dasharray:150 152;stroke-dashoffset:151;animation:bIqEqqDZ_draw 2000ms linear 115ms forwards;}.bIqEqqDZ_4{stroke-dasharray:289 291;stroke-dashoffset:290;animation:bIqEqqDZ_draw 2000ms linear 153ms forwards;}.bIqEqqDZ_5{stroke-dasharray:190 192;stroke-dashoffset:191;animation:bIqEqqDZ_draw 2000ms linear 192ms forwards;}.bIqEqqDZ_6{stroke-dasharray:414 416;stroke-dashoffset:415;animation:bIqEqqDZ_draw 2000ms linear 230ms forwards;}.bIqEqqDZ_7{stroke-dasharray:190 192;stroke-dashoffset:191;animation:bIqEqqDZ_draw 2000ms linear 269ms forwards;}.bIqEqqDZ_8{stroke-dasharray:180 182;stroke-dashoffset:181;animation:bIqEqqDZ_draw 2000ms linear 307ms forwards;}.bIqEqqDZ_9{stroke-dasharray:305 307;stroke-dashoffset:306;animation:bIqEqqDZ_draw 2000ms linear 346ms forwards;}.bIqEqqDZ_10{stroke-dasharray:150 152;stroke-dashoffset:151;animation:bIqEqqDZ_draw 2000ms linear 384ms forwards;}.bIqEqqDZ_11{stroke-dasharray:255 257;stroke-dashoffset:256;animation:bIqEqqDZ_draw 2000ms linear 423ms forwards;}.bIqEqqDZ_12{stroke-dasharray:348 350;stroke-dashoffset:349;animation:bIqEqqDZ_draw 2000ms linear 461ms forwards;}.bIqEqqDZ_13{stroke-dasharray:362 364;stroke-dashoffset:363;animation:bIqEqqDZ_draw 2000ms linear 500ms forwards;}.bIqEqqDZ_14{stroke-dasharray:229 231;stroke-dashoffset:230;animation:bIqEqqDZ_draw 2000ms linear 538ms forwards;}.bIqEqqDZ_15{stroke-dasharray:160 162;stroke-dashoffset:161;animation:bIqEqqDZ_draw 2000ms linear 576ms forwards;}.bIqEqqDZ_16{stroke-dasharray:190 192;stroke-dashoffset:191;animation:bIqEqqDZ_draw 2000ms linear 615ms forwards;}.bIqEqqDZ_17{stroke-dasharray:180 182;stroke-dashoffset:181;animation:bIqEqqDZ_draw 2000ms linear 653ms forwards;}.bIqEqqDZ_18{stroke-dasharray:304 306;stroke-dashoffset:305;animation:bIqEqqDZ_draw 2000ms linear 692ms forwards;}.bIqEqqDZ_19{stroke-dasharray:256 258;stroke-dashoffset:257;animation:bIqEqqDZ_draw 2000ms linear 730ms forwards;}.bIqEqqDZ_20{stroke-dasharray:384 386;stroke-dashoffset:385;animation:bIqEqqDZ_draw 2000ms linear 769ms forwards;}.bIqEqqDZ_21{stroke-dasharray:150 152;stroke-dashoffset:151;animation:bIqEqqDZ_draw 2000ms linear 807ms forwards;}.bIqEqqDZ_22{stroke-dasharray:180 182;stroke-dashoffset:181;animation:bIqEqqDZ_draw 2000ms linear 846ms forwards;}.bIqEqqDZ_23{stroke-dasharray:150 152;stroke-dashoffset:151;animation:bIqEqqDZ_draw 2000ms linear 884ms forwards;}.bIqEqqDZ_24{stroke-dasharray:190 192;stroke-dashoffset:191;animation:bIqEqqDZ_draw 2000ms linear 923ms forwards;}.bIqEqqDZ_25{stroke-dasharray:160 162;stroke-dashoffset:161;animation:bIqEqqDZ_draw 2000ms linear 961ms forwards;}.bIqEqqDZ_26{stroke-dasharray:11 13;stroke-dashoffset:12;animation:bIqEqqDZ_draw 2000ms linear 1000ms forwards;}@keyframes bIqEqqDZ_draw{100%{stroke-dashoffset:0;}}@keyframes bIqEqqDZ_fade{0%{stroke-opacity:1;}94.44444444444444%{stroke-opacity:1;}100%{stroke-opacity:0;}}</style></svg>
