<!--?xml version="1.0" encoding="utf-8"?-->
<!-- Generator: Adobe Illustrator 24.0.1, SVG Export Plug-In . SVG Version: 6.00 Build 0)  -->
<svg version="1.1" id="Layer_1" xmlns="http://www.w3.org/2000/svg" xmlns:xlink="http://www.w3.org/1999/xlink" x="0px" y="0px" viewBox="0 0 635 248.8" style="" xml:space="preserve">
<style type="text/css">
	.st0{fill:none;stroke:#FFFFFF;stroke-miterlimit:10;}
	.st1{fill:#FF0000;}
</style>
<g>
	<g>
		<path class="st0 sxLBjjUp_0" d="M155.4,144.4h-36.7c-0.2,0-0.3,0.2-0.3,0.6s0.1,0.6,0.3,0.6c2.2,0,3.6,0.2,4.5,0.7c0.8,0.5,1.2,1.4,1.2,2.7
			c0,1-0.1,2.1-0.4,3.1l-7.7,44c-0.4,2-0.8,3.4-1.3,4.3c-0.5,0.9-1.2,1.5-2.1,1.8c-1,0.3-2.4,0.5-4.4,0.5c-0.1,0-0.2,0.2-0.2,0.6
			s0.1,0.6,0.2,0.6h38.9c0.5,0,0.9-0.1,1-0.3c0.2-0.2,0.3-0.6,0.5-1.1c0.9-4.9,1.9-9.2,3-12.8c0.1-0.2,0-0.3-0.3-0.4
			c-0.1,0-0.2,0-0.2,0c-0.2,0-0.4,0.1-0.5,0.2c-1.6,3.8-3.8,6.9-6.5,9.2c-2.7,2.3-5.4,3.5-8.2,3.5h-7.8c-2.2,0-3.6-0.2-4.4-0.7
			c-0.8-0.5-1.2-1.4-1.2-2.7c0-0.8,0.1-1.7,0.3-2.9l3.9-21.8h12.3c2.2,0,3.9,0.4,4.9,1.3c1.1,0.9,1.6,2.2,1.6,4.1
			c0,0.8-0.1,1.6-0.3,2.6c-0.1,0.3,0.1,0.4,0.5,0.4h0.1c0.3,0,0.5-0.1,0.5-0.3c0.4-2.2,0.8-4.2,1-6.2l0.5-2.9
			c0.2-1.3,0.4-2.5,0.7-3.4c0.4-1.5,0.7-3,0.9-4.4c0.1-0.1,0-0.2-0.1-0.3c-0.2-0.1-0.3-0.1-0.4-0.1c-0.4,0-0.6,0.1-0.6,0.3
			c-0.4,2.5-1.3,4.3-2.7,5.3c-1.3,1-3.3,1.5-5.9,1.5h-12.6l3.4-19.6c0.3-1.8,0.7-3.2,1.1-4c0.4-0.8,1.1-1.4,2-1.7
			c0.9-0.3,2.4-0.5,4.3-0.5h5.9c2.9,0,5.2,1,6.7,3.1c1.6,2.1,2.2,4.8,2,8.1c0,0.1,0.1,0.1,0.2,0.2c0.2,0.1,0.3,0.1,0.4,0.1
			c0.3,0,0.5-0.1,0.5-0.3l1.1-6.9l0.8-5.1C156.1,144.7,155.9,144.4,155.4,144.4L155.4,144.4z"></path>
	</g>
	<g>
		<path class="st0 sxLBjjUp_1" d="M191,166.2c-1.4,0-2.6,0.4-3.5,1.3c-1,0.9-2.3,2.7-4.1,5.6l-4.9,7.7l-2.4-7.9c-0.8-2.5-1.6-4.3-2.6-5.2
			c-1-0.9-2.2-1.4-3.7-1.4s-3,0.6-4.8,1.8c-1.7,1.2-3.7,3-6,5.5c-0.2,0.1-0.2,0.3,0,0.5s0.3,0.3,0.5,0.3c0.1,0,0.2,0,0.3-0.1
			c2.3-2.3,4.3-3.5,5.9-3.5c1,0,1.8,0.3,2.6,1c0.8,0.7,1.5,2.1,2,4.3l3.5,11.3l-6.2,9.2c-1.1,1.6-2.3,2.5-3.5,2.5
			c-0.4,0-0.8-0.1-1.2-0.3c-0.3-0.2-0.7-0.4-1-0.7c-0.4-0.4-0.9-0.7-1.2-0.9s-0.9-0.3-1.5-0.3c-0.8,0-1.5,0.2-2.1,0.7
			s-1,1.1-1.1,1.9c-0.1,1.3,0.4,2.5,1.5,3.6s2.4,1.6,3.8,1.6c1.4,0,2.6-0.4,3.5-1.3c0.9-0.9,2.3-2.7,4.2-5.7l5.4-8.6l2.9,9.4
			c0.8,2.3,1.6,4,2.5,4.8c0.9,0.9,2.1,1.3,3.5,1.3c1.5,0,3-0.6,4.7-1.8c1.7-1.2,3.7-3,6-5.5c0.1-0.2,0.1-0.4,0-0.6s-0.3-0.3-0.6-0.3
			c-0.1,0-0.2,0-0.3,0.1c-2.2,2.3-4.1,3.5-5.8,3.5c-1,0-1.8-0.3-2.5-0.9s-1.4-1.9-1.9-3.8l-3.9-12.9l5.5-8.2
			c1.2-1.7,2.4-2.6,3.6-2.6c0.6,0,1.3,0.3,2.1,0.9c0.8,0.8,1.7,1.2,2.8,1.2c1,0,1.7-0.3,2.3-0.9s0.9-1.3,0.9-2.2
			c0-1.3-0.5-2.4-1.6-3.3C193.5,166.7,192.3,166.2,191,166.2L191,166.2z"></path>
	</g>
	<g>
		<path class="st0 sxLBjjUp_2" d="M220.4,165.8c-2.8,0-5.7,0.8-8.6,2.3c-2.9,1.5-5.5,3.7-7.6,6.6c-2.2,2.8-3.6,6.1-4.3,9.9
			c-0.4,1.8-0.6,3.6-0.6,5.5c0,4.2,1,7.8,3.1,10.6c2.1,2.9,5.2,4.3,9.4,4.3c5,0,9.9-2.2,14.8-6.7c0.1-0.1,0.1-0.3,0-0.6
			c-0.2-0.3-0.3-0.4-0.5-0.4l-0.2,0.1c-3.2,2.6-6.4,3.9-9.5,3.9c-3.4,0-6-1.2-7.7-3.7s-2.6-5.7-2.6-9.8c0-1.6,0.2-3.7,0.7-6.3
			c0.7-4.1,1.9-7.3,3.6-9.7c1.7-2.4,3.9-3.7,6.6-3.7c2.3,0,3.9,1.2,4.6,3.6c0.6,2.3,1.8,3.4,3.8,3.4c1.2,0,2.1-0.4,2.8-1.1
			c0.6-0.8,1-1.7,1-2.8c0-1.6-0.8-3-2.5-3.9C224.7,166.3,222.7,165.8,220.4,165.8L220.4,165.8z"></path>
	</g>
	<g>
		<path class="st0 sxLBjjUp_3" d="M254.5,165.8c-3.5,0-6.9,1-10.1,3c-3.2,2-5.8,4.6-7.9,7.7c-2.1,3.1-3.5,6.4-4.1,9.6c-0.3,1.8-0.5,3.4-0.5,4.8
			c0,4.1,1,7.5,3.1,10.1s5.2,3.9,9.4,3.9c4.9,0,9.7-1.9,14.2-5.8c0.1-0.2,0.1-0.4,0-0.6c-0.2-0.2-0.3-0.3-0.5-0.3H258
			c-2.7,2.1-5.7,3.1-9.2,3.1c-3.2,0-5.7-1.2-7.4-3.5c-1.7-2.3-2.5-5.4-2.5-9.3c0-1.8,0.1-3.4,0.4-4.9c6.1-1.1,11.4-2.8,15.7-5.3
			c4.3-2.4,6.5-5.1,6.5-8.1c0-1.3-0.6-2.4-1.8-3.2C258.4,166.2,256.7,165.8,254.5,165.8L254.5,165.8z M239.4,182.3
			c0.8-4.1,2.2-7.5,4-10c1.8-2.6,4.1-3.8,6.6-3.8c1.1,0,2.1,0.3,2.9,0.9c0.8,0.6,1.2,1.4,1.2,2.5c0,0.2-0.1,0.6-0.2,1.2
			C253,177.5,248.1,180.6,239.4,182.3L239.4,182.3z"></path>
	</g>
	<g>
		<path class="st0 sxLBjjUp_4" d="M284,134.9h-0.2l-13.1,6.4c-0.3,0.1-0.3,0.3-0.2,0.6c0.1,0.3,0.3,0.5,0.6,0.5h0.1c1.9-0.9,3.4-1.4,4.4-1.4
			c1.3,0,1.9,0.8,1.9,2.5c0,0.6-0.1,1.4-0.3,2.4l-9.1,49.5c-0.4,1.9-0.6,3.5-0.6,4.7c0,1.6,0.3,2.8,0.9,3.5c0.6,0.8,1.6,1.1,2.9,1.1
			c1.6,0,3.3-0.6,5-1.8c1.7-1.2,3.6-3.1,5.7-5.6c0.2-0.2,0.2-0.4,0.1-0.6c-0.1-0.2-0.3-0.3-0.5-0.3c-0.1,0-0.3,0.1-0.4,0.2
			c-1.4,1.3-2.6,2.3-3.5,3c-1,0.7-1.7,1-2.4,1c-1.1,0-1.7-0.9-1.7-2.8c0-0.7,0.1-1.5,0.3-2.5l10.9-59.7c0.1-0.1,0-0.3-0.2-0.5
			C284.4,135,284.2,134.9,284,134.9L284,134.9z"></path>
	</g>
	<g>
		<path class="st0 sxLBjjUp_5" d="M323.9,146.6c-1.4,0-2.5,0.4-3.3,1.1c-0.8,0.8-1.2,1.8-1.2,3.1c0,1.4,0.4,2.5,1.2,3.3s1.9,1.2,3.3,1.2
			c1.5,0,2.6-0.4,3.3-1.2c0.8-0.8,1.1-1.9,1.1-3.3c0-1.3-0.4-2.4-1.2-3.1C326.3,147,325.3,146.6,323.9,146.6L323.9,146.6z
			 M321.1,166.2c-3.2,0-6.9,2.5-11.1,7.4c-0.2,0.1-0.2,0.3,0,0.5c0.2,0.2,0.3,0.3,0.5,0.3c0.1,0,0.2,0,0.3-0.1
			c1.3-1.3,2.4-2.4,3.5-3.1c1.1-0.7,2-1.1,2.7-1.1c1.2,0,1.8,1,1.8,2.9c0,0.7-0.1,1.5-0.3,2.5l-3.9,19.8c-0.4,1.8-0.6,3.3-0.6,4.7
			c0,3.1,1.3,4.7,3.8,4.7c1.6,0,3.3-0.6,5.1-1.8c1.7-1.2,3.7-3,5.7-5.5c0.2-0.1,0.2-0.3,0.1-0.5c-0.1-0.2-0.3-0.3-0.6-0.3
			c-0.1,0-0.2,0-0.3,0.1c-2.5,2.7-4.5,4-6,4c-1.1,0-1.7-0.9-1.7-2.8c0-0.7,0.1-1.5,0.3-2.5l3.9-20.2c0.3-1.5,0.5-2.9,0.5-4.4
			s-0.3-2.6-0.9-3.4C323.3,166.6,322.4,166.2,321.1,166.2L321.1,166.2z"></path>
	</g>
	<g>
		<path class="st0 sxLBjjUp_6" d="M363.1,165.8c-3.4,0-6.6,1.7-9.6,5.2s-5.7,8.3-8,14.5l1.9-10.4c0.3-1.9,0.5-3.3,0.5-4.3
			c0-1.6-0.3-2.7-0.9-3.5c-0.6-0.7-1.5-1.1-2.8-1.1c-1.7,0-3.5,0.6-5.3,1.8s-3.8,3.1-6,5.6c-0.1,0.1-0.1,0.3,0,0.5
			c0.1,0.2,0.3,0.3,0.5,0.3c0.1,0,0.2,0,0.3-0.1c2.7-2.8,4.8-4.2,6.3-4.2c1.2,0,1.8,1,1.8,2.9c0,0.6-0.1,1.4-0.3,2.4l-3.9,21.2
			c-0.1,0.8-0.5,2.5-1,5.2l-0.4,1.9c0,0.4,0.9,0.7,2.6,0.7c1.1,0,1.9-0.1,2.6-0.4c0.6-0.3,1-0.7,1.1-1.2c1.2-6.8,2.8-12.6,4.7-17.6
			c1.9-4.9,3.9-8.7,6.1-11.3c2.2-2.6,4.2-3.9,6.3-3.9c2.5,0,3.7,1.7,3.7,5.1c0,1.4-0.2,3-0.6,4.9l-2.8,15.1c-0.3,2-0.5,3.6-0.5,4.7
			c0,1.6,0.3,2.8,0.9,3.6c0.6,0.7,1.5,1.1,2.8,1.1c1.6,0,3.3-0.6,5-1.8c1.7-1.2,3.6-3.1,5.8-5.6c0.1-0.2,0.1-0.4,0-0.6
			c-0.1-0.2-0.3-0.3-0.5-0.3c-0.1,0-0.2,0.1-0.3,0.2c-1.4,1.3-2.6,2.3-3.5,3c-1,0.7-1.7,1-2.4,1c-1.2,0-1.8-1-1.8-2.9
			c0-0.6,0.1-1.4,0.3-2.4l3.1-16.9c0.4-2,0.6-3.8,0.6-5.2c0-2.5-0.5-4.3-1.6-5.5C366.8,166.4,365.2,165.8,363.1,165.8L363.1,165.8z"></path>
	</g>
	<g>
		<path class="st0 sxLBjjUp_7" d="M428.8,144.4l-4.2,0.1c-2.5,0.1-4.5,0.2-6,0.2s-3.3-0.1-5.6-0.2l-4.1-0.1c-0.1,0-0.2,0.2-0.2,0.6
			s0.1,0.6,0.2,0.6c2.2,0,3.7,0.2,4.6,0.7c0.8,0.5,1.2,1.4,1.2,2.8c0,0.4-0.1,1.4-0.4,3l-7.8,44c-0.3,1.9-0.7,3.3-1.2,4.2
			c-0.5,0.9-1.2,1.5-2.1,1.9c-1,0.3-2.4,0.5-4.4,0.5c-0.2,0-0.3,0.2-0.3,0.6c0,0.4,0.1,0.6,0.3,0.6h39.8c0.4,0,0.8-0.1,1-0.3
			s0.4-0.6,0.5-1.1c0.8-4.6,1.9-9.1,3.1-13.4c0.1-0.2-0.1-0.3-0.4-0.4c-0.1,0-0.2,0-0.2,0c-0.2,0-0.3,0.1-0.4,0.2
			c-2,4.4-4.3,7.7-7,9.9c-2.7,2.2-6,3.3-9.9,3.3H418c-1.9,0-3.2-0.2-3.9-0.7c-0.7-0.4-1.1-1.3-1.1-2.7c0-0.8,0.1-1.8,0.3-2.9
			l7.7-43.5c0.4-1.9,0.8-3.3,1.3-4.2c0.5-0.9,1.2-1.6,2.1-1.9c1-0.3,2.4-0.5,4.4-0.5c0.1,0,0.2-0.2,0.2-0.6
			C429,144.6,429,144.4,428.8,144.4L428.8,144.4z"></path>
	</g>
	<g>
		<path class="st0 sxLBjjUp_8" d="M461.4,146.6c-1.4,0-2.5,0.4-3.3,1.1c-0.8,0.8-1.2,1.8-1.2,3.1c0,1.4,0.4,2.5,1.2,3.3s1.9,1.2,3.3,1.2
			c1.5,0,2.6-0.4,3.3-1.2c0.8-0.8,1.1-1.9,1.1-3.3c0-1.3-0.4-2.4-1.2-3.1C463.9,147,462.8,146.6,461.4,146.6L461.4,146.6z
			 M458.7,166.2c-3.2,0-6.9,2.5-11.1,7.4c-0.2,0.1-0.2,0.3,0,0.5c0.2,0.2,0.3,0.3,0.5,0.3c0.1,0,0.2,0,0.3-0.1
			c1.3-1.3,2.4-2.4,3.5-3.1c1.1-0.7,2-1.1,2.7-1.1c1.2,0,1.8,1,1.8,2.9c0,0.7-0.1,1.5-0.3,2.5l-3.9,19.8c-0.4,1.8-0.6,3.3-0.6,4.7
			c0,3.1,1.3,4.7,3.8,4.7c1.6,0,3.3-0.6,5.1-1.8c1.7-1.2,3.7-3,5.7-5.5c0.2-0.1,0.2-0.3,0.1-0.5c-0.1-0.2-0.3-0.3-0.6-0.3
			c-0.1,0-0.2,0-0.3,0.1c-2.5,2.7-4.5,4-6,4c-1.1,0-1.7-0.9-1.7-2.8c0-0.7,0.1-1.5,0.3-2.5l3.9-20.2c0.3-1.5,0.5-2.9,0.5-4.4
			s-0.3-2.6-0.9-3.4C460.9,166.6,459.9,166.2,458.7,166.2L458.7,166.2z"></path>
	</g>
	<g>
		<path class="st0 sxLBjjUp_9" d="M499,134.8c-3.9,0-7.1,0.9-9.5,2.6c-2.4,1.7-4.4,4.6-5.9,8.8c-1.6,4.1-3,10.1-4.3,17.9
			c-0.3,1.6-0.9,2.7-1.8,3.3c-1,0.6-2.5,0.9-4.8,0.9c-0.1,0-0.1,0.1-0.2,0.3c-0.1,0.2-0.1,0.4-0.1,0.6c0,0.3,0.1,0.5,0.3,0.5
			c2.2,0,3.6,0.2,4.3,0.5s1,1,1,2.2c0,0.4-0.1,1.2-0.2,2.5l-4.8,33.5c-0.8,5.8-1.5,10-2.1,12.8s-1.1,4.6-1.6,5.6s-1.1,1.5-1.9,1.5
			c-0.6,0-1.1-0.2-1.3-0.6c-0.3-0.4-0.5-1-0.8-1.9c-0.3-1.1-0.7-2-1.1-2.6c-0.4-0.6-1.2-0.9-2.4-0.9c-1,0-1.9,0.3-2.6,0.9
			c-0.7,0.6-1.1,1.3-1.2,2.3c-0.2,1.3,0.3,2.3,1.5,3.2c1.2,0.9,3,1.3,5.3,1.3c2.7,0,5-0.8,6.7-2.3c1.8-1.5,3.3-4,4.5-7.5
			s2.2-8.2,3.1-14.4l5.1-35.3c2.2,0.3,3.8,0.5,4.8,0.7c0.5,0.1,1,0.1,1.4,0.2s0.9,0.1,1.2,0.1c0.6,0,1.3-0.4,2-1.3
			c0.7-0.9,1-1.5,1-2s-0.2-0.8-0.7-0.8l-3.1,0.2c-2.3,0.3-4.5,0.4-6.4,0.5l0.9-5.9c1.3-8.6,2.7-15,4.4-19.3c1.7-4.2,3.7-6.4,5.9-6.4
			c0.8,0,1.4,0.2,1.8,0.7c0.3,0.5,0.7,1.3,1.1,2.3c0.4,1.2,0.8,2.1,1.3,2.7s1.3,0.9,2.5,0.9c0.9,0,1.7-0.3,2.4-0.8s1.1-1.3,1.3-2.3
			c0.2-1.5-0.4-2.7-1.7-3.7C503.3,135.3,501.4,134.8,499,134.8L499,134.8z"></path>
	</g>
	<g>
		<path class="st0 sxLBjjUp_10" d="M517.5,165.8c-3.5,0-6.9,1-10.1,3c-3.2,2-5.8,4.6-7.9,7.7c-2.1,3.1-3.5,6.4-4.1,9.6c-0.3,1.8-0.5,3.4-0.5,4.8
			c0,4.1,1,7.5,3.1,10.1s5.2,3.9,9.4,3.9c4.9,0,9.7-1.9,14.2-5.8c0.1-0.2,0.1-0.4,0-0.6c-0.2-0.2-0.3-0.3-0.5-0.3H521
			c-2.7,2.1-5.7,3.1-9.2,3.1c-3.2,0-5.7-1.2-7.4-3.5c-1.7-2.3-2.5-5.4-2.5-9.3c0-1.8,0.1-3.4,0.4-4.9c6.1-1.1,11.4-2.8,15.7-5.3
			c4.3-2.4,6.5-5.1,6.5-8.1c0-1.3-0.6-2.4-1.8-3.2C521.4,166.2,519.7,165.8,517.5,165.8L517.5,165.8z M502.4,182.3
			c0.8-4.1,2.2-7.5,4-10c1.8-2.6,4.1-3.8,6.6-3.8c1.1,0,2.1,0.3,2.9,0.9c0.8,0.6,1.2,1.4,1.2,2.5c0,0.2-0.1,0.6-0.2,1.2
			C515.9,177.5,511.1,180.6,502.4,182.3L502.4,182.3z"></path>
	</g>
</g>
<g>
	<g>
		<path class="st0 sxLBjjUp_11" d="M121.9,20.5l-4,0.1c-2.5,0.1-4.5,0.2-5.9,0.2c-1.5,0-3.4-0.1-5.8-0.2l-4.1-0.1c-0.2,0-0.3,0.2-0.3,0.6
			c0,0.4,0.1,0.6,0.3,0.6c2.2,0,3.6,0.2,4.5,0.7c0.8,0.5,1.2,1.4,1.2,2.8c0,0.5-0.1,1.6-0.4,3.2L104,47.9H75.3l3.5-19.5
			c0.4-1.9,0.8-3.3,1.3-4.2s1.2-1.6,2.2-1.9c1-0.4,2.4-0.6,4.3-0.6c0.1,0,0.2-0.2,0.2-0.6c0-0.4-0.1-0.6-0.2-0.6l-4.2,0.1
			c-2.5,0.1-4.5,0.2-6,0.2s-3.3-0.1-5.6-0.2l-4.1-0.1c-0.1,0-0.2,0.2-0.2,0.6c0,0.4,0.1,0.6,0.2,0.6c2.2,0,3.7,0.2,4.6,0.7
			c0.8,0.5,1.2,1.4,1.2,2.8c0,0.4-0.1,1.4-0.4,3l-7.8,44c-0.3,1.9-0.7,3.3-1.2,4.2s-1.2,1.5-2.2,1.9c-1,0.3-2.4,0.5-4.4,0.5
			c-0.2,0-0.3,0.2-0.3,0.6c0,0.4,0.1,0.6,0.3,0.6c1.7,0,3,0,4-0.1l5.7-0.1l6.1,0.1c1,0.1,2.4,0.1,4.1,0.1c0.2,0,0.3-0.2,0.3-0.6
			c0-0.4-0.1-0.6-0.3-0.6c-2.2,0-3.7-0.2-4.6-0.7c-0.8-0.5-1.2-1.4-1.2-2.7c0-0.4,0.1-1.5,0.4-3.1l3.9-22.1h28.8l-3.9,22.1
			c-0.3,2-0.7,3.4-1.2,4.3c-0.5,0.9-1.2,1.5-2.1,1.8c-1,0.3-2.4,0.5-4.5,0.5c-0.1,0-0.2,0.2-0.2,0.6c0,0.4,0.1,0.6,0.2,0.6
			c1.8,0,3.3,0,4.3-0.1l5.9-0.1l5.9,0.1c1,0.1,2.2,0.1,3.9,0.1c0.2,0,0.3-0.2,0.3-0.6c0-0.4-0.1-0.6-0.3-0.6c-2.2,0-3.7-0.2-4.6-0.7
			c-0.8-0.5-1.2-1.4-1.2-2.9c0-0.8,0.1-1.7,0.3-2.9l7.8-44c0.4-1.9,0.8-3.3,1.3-4.2s1.2-1.5,2.1-1.9c1-0.3,2.4-0.5,4.3-0.5
			c0.2,0,0.3-0.2,0.3-0.6C122.2,20.7,122.1,20.5,121.9,20.5L121.9,20.5z"></path>
	</g>
	<g>
		<path class="st0 sxLBjjUp_12" d="M144.2,41.9c-3.5,0-6.9,1-10.1,3s-5.8,4.6-7.9,7.7c-2.1,3.1-3.5,6.4-4.1,9.6c-0.3,1.8-0.5,3.4-0.5,4.8
			c0,4.1,1,7.5,3.1,10.1c2.1,2.6,5.2,3.9,9.4,3.9c4.9,0,9.7-1.9,14.2-5.8c0.1-0.2,0.1-0.4,0-0.6c-0.2-0.2-0.3-0.3-0.5-0.3h-0.1
			c-2.7,2.1-5.7,3.1-9.2,3.1c-3.2,0-5.7-1.2-7.4-3.5s-2.5-5.4-2.5-9.3c0-1.8,0.1-3.4,0.4-4.9c6.1-1.1,11.4-2.8,15.7-5.3
			c4.3-2.4,6.5-5.1,6.5-8.1c0-1.3-0.6-2.4-1.8-3.2C148.1,42.3,146.4,41.9,144.2,41.9L144.2,41.9z M129.1,58.4c0.8-4.1,2.2-7.5,4-10
			c1.8-2.6,4.1-3.8,6.6-3.8c1.1,0,2.1,0.3,2.9,0.9c0.8,0.6,1.2,1.4,1.2,2.5c0,0.2-0.1,0.6-0.2,1.2C142.7,53.6,137.8,56.7,129.1,58.4
			L129.1,58.4z"></path>
	</g>
	<g>
		<path class="st0 sxLBjjUp_13" d="M173.7,11h-0.2l-13.1,6.4c-0.3,0.1-0.3,0.3-0.2,0.6s0.3,0.5,0.6,0.5h0.1c1.9-0.9,3.4-1.4,4.4-1.4
			c1.3,0,1.9,0.8,1.9,2.5c0,0.6-0.1,1.4-0.3,2.4l-9.1,49.5c-0.4,1.9-0.6,3.5-0.6,4.7c0,1.6,0.3,2.8,0.9,3.5c0.6,0.8,1.6,1.1,2.9,1.1
			c1.6,0,3.3-0.6,5-1.8c1.7-1.2,3.6-3.1,5.7-5.6c0.2-0.2,0.2-0.4,0.1-0.6c-0.1-0.2-0.3-0.3-0.5-0.3c-0.1,0-0.3,0.1-0.4,0.2
			c-1.4,1.3-2.6,2.3-3.5,3c-1,0.7-1.7,1-2.4,1c-1.1,0-1.7-0.9-1.7-2.8c0-0.7,0.1-1.5,0.3-2.5l10.9-59.7c0.1-0.1,0-0.3-0.2-0.5
			C174.1,11.1,173.9,11,173.7,11L173.7,11z"></path>
	</g>
	<g>
		<path class="st0 sxLBjjUp_14" d="M190.9,35.7c-0.2,0-0.4,0.1-0.4,0.3c-0.3,1.1-0.8,2.2-1.7,3.1c-0.9,1-1.8,1.8-2.9,2.6
			c-1.1,0.8-1.6,1.3-1.6,1.4l-1.2,7c-1.9,1.3-3.7,2.8-5.4,4.3c-0.2,0.1-0.2,0.3-0.1,0.6c0.1,0.3,0.3,0.4,0.6,0.4l0.2-0.1
			c2.5-1.9,4-3,4.4-3.2l-8.1,45.2c-0.4,2.1-0.7,3.6-1,4.5c-0.3,0.9-0.8,1.5-1.4,1.9c-0.6,0.4-1.6,0.7-3,1c-0.3,0.1-0.3,0.3-0.3,0.7
			c0.1,0.3,0.2,0.5,0.4,0.5h0.1l16.9-2.7c0.3-0.1,0.3-0.3,0.2-0.6s-0.2-0.4-0.4-0.4h-0.1c-1.1,0.1-1.9,0.2-2.3,0.2
			c-1.1,0-1.9-0.2-2.4-0.7s-0.8-1.3-0.8-2.3c0-0.7,0.1-1.6,0.3-2.7l3-17.1c1.3,0.2,3,0.3,4.9,0.3c3.4,0,6.6-1.1,9.9-3.3
			c3.2-2.2,6-5.2,8.3-8.9s3.8-7.7,4.3-11.9c0.2-1.3,0.3-2.4,0.3-3.4c0-3.2-0.8-5.7-2.4-7.4c-1.6-1.7-4-2.5-7.1-2.5
			c-3.8,0-7.9,1.2-12.3,3.5l1.7-9.8c0.1-0.3-0.1-0.4-0.4-0.5C191,35.7,191,35.7,190.9,35.7L190.9,35.7z M191.7,77.2
			c-2.5,0-4.9-0.5-7.2-1.5l4.9-27.5c2.7-1.3,5.3-1.9,7.8-1.9c5.3,0,7.9,3.1,7.9,9.3c0,0.7-0.1,1.8-0.2,3.3c-0.7,5.6-2.1,10-4.3,13.3
			C198.4,75.5,195.4,77.2,191.7,77.2L191.7,77.2z"></path>
	</g>
	<g>
		<path class="st0 sxLBjjUp_15" d="M229.9,22.7c-1.4,0-2.5,0.4-3.3,1.1c-0.8,0.8-1.2,1.8-1.2,3.1c0,1.4,0.4,2.5,1.2,3.3s1.9,1.2,3.3,1.2
			c1.5,0,2.6-0.4,3.3-1.2c0.8-0.8,1.1-1.9,1.1-3.3c0-1.3-0.4-2.4-1.2-3.1C232.4,23.1,231.3,22.7,229.9,22.7L229.9,22.7z M227.1,42.3
			c-3.2,0-6.9,2.5-11.1,7.4c-0.2,0.1-0.2,0.3,0,0.5s0.3,0.3,0.5,0.3c0.1,0,0.2,0,0.3-0.1c1.3-1.3,2.4-2.4,3.5-3.1
			c1.1-0.7,2-1.1,2.7-1.1c1.2,0,1.8,1,1.8,2.9c0,0.7-0.1,1.5-0.3,2.5l-3.9,19.8c-0.4,1.8-0.6,3.3-0.6,4.7c0,3.1,1.3,4.7,3.8,4.7
			c1.6,0,3.3-0.6,5.1-1.8c1.7-1.2,3.7-3,5.7-5.5c0.2-0.1,0.2-0.3,0.1-0.5c-0.1-0.2-0.3-0.3-0.6-0.3c-0.1,0-0.2,0-0.3,0.1
			c-2.5,2.7-4.5,4-6,4c-1.1,0-1.7-0.9-1.7-2.8c0-0.7,0.1-1.5,0.3-2.5l3.9-20.2c0.3-1.5,0.5-2.9,0.5-4.4s-0.3-2.6-0.9-3.4
			C229.3,42.7,228.4,42.3,227.1,42.3L227.1,42.3z"></path>
	</g>
	<g>
		<path class="st0 sxLBjjUp_16" d="M269.1,41.9c-3.4,0-6.6,1.7-9.6,5.2s-5.7,8.3-8,14.5l1.9-10.4c0.3-1.9,0.5-3.3,0.5-4.3c0-1.6-0.3-2.7-0.9-3.5
			c-0.6-0.7-1.5-1.1-2.8-1.1c-1.7,0-3.5,0.6-5.3,1.8s-3.8,3.1-6,5.6c-0.1,0.1-0.1,0.3,0,0.5s0.3,0.3,0.5,0.3c0.1,0,0.2,0,0.3-0.1
			c2.7-2.8,4.8-4.2,6.3-4.2c1.2,0,1.8,1,1.8,2.9c0,0.6-0.1,1.4-0.3,2.4l-3.9,21.2c-0.1,0.8-0.5,2.5-1,5.2l-0.4,1.9
			c0,0.4,0.9,0.7,2.6,0.7c1.1,0,1.9-0.1,2.6-0.4c0.6-0.3,1-0.7,1.1-1.2c1.2-6.8,2.8-12.6,4.7-17.6c1.9-4.9,3.9-8.7,6.1-11.3
			c2.2-2.6,4.2-3.9,6.3-3.9c2.5,0,3.7,1.7,3.7,5.1c0,1.4-0.2,3-0.6,4.9l-2.8,15.1c-0.3,2-0.5,3.6-0.5,4.7c0,1.6,0.3,2.8,0.9,3.6
			c0.6,0.7,1.5,1.1,2.8,1.1c1.6,0,3.3-0.6,5-1.8c1.7-1.2,3.6-3.1,5.8-5.6c0.1-0.2,0.1-0.4,0-0.6s-0.3-0.3-0.5-0.3
			c-0.1,0-0.2,0.1-0.3,0.2c-1.4,1.3-2.6,2.3-3.5,3c-1,0.7-1.7,1-2.4,1c-1.2,0-1.8-1-1.8-2.9c0-0.6,0.1-1.4,0.3-2.4l3.1-16.9
			c0.4-2,0.6-3.8,0.6-5.2c0-2.5-0.5-4.3-1.6-5.5C272.8,42.5,271.2,41.9,269.1,41.9L269.1,41.9z"></path>
	</g>
	<g>
		<path class="st0 sxLBjjUp_17" d="M317.7,42.4c-2.8,0-5.9,0.8-9.2,2.3c-1.7-1.4-3.9-2.1-6.5-2.1c-3.9,0-7.3,1.3-10.4,3.9
			c-3.1,2.6-5,5.9-5.7,9.9c-0.3,1.5-0.4,2.7-0.4,3.4c0,2.5,0.5,4.6,1.6,6.4s2.6,3,4.7,3.7c-1.5,1.3-2.6,2.4-3.4,3.5
			c-0.8,1-1.4,2.1-1.6,3.2c-0.1,0.2-0.1,0.5-0.1,1c0,1.9,1.1,3.6,3.4,5.2c-4.3,2.3-7.6,4.6-9.9,6.8c-2.3,2.2-3.5,4.7-3.5,7.4
			c0,2.7,1.3,4.9,3.9,6.7s6.1,2.8,10.6,2.8c3.6,0,7-0.6,10.1-1.9s5.6-3,7.5-5.1c1.9-2.2,2.8-4.5,2.8-7c0-2.6-1-4.7-2.9-6.4
			c-1.9-1.6-4.7-3.3-8.2-5c-2.8-1.5-4.9-2.7-6.3-3.8s-2-2.3-2-3.8c0-1.1,0.3-2.2,1-3.2c0.9,0.1,1.6,0.2,2.2,0.2
			c2.3,0,4.6-0.6,6.9-1.8c2.2-1.2,4.2-2.8,5.8-4.9c1.6-2.1,2.8-4.6,3.3-7.4c0.3-1.1,0.4-2.3,0.4-3.6c0-2.7-0.7-4.9-2-6.8
			c0.3,0,0.6,0,0.9,0c2.5,0,4.6,0.5,6.3,1.5h0.1c0.2,0,0.5-0.4,0.7-1.2c0.3-0.9,0.4-1.8,0.4-2.7C318.1,42.8,318,42.4,317.7,42.4
			L317.7,42.4z M297.7,68.6c-1.8,0-3.3-1-4.4-3c-1.1-2-1.6-4.4-1.6-7.4c0-1.2,0.1-2.4,0.3-3.6c0.4-2.9,1.4-5.4,2.8-7.3
			c1.5-2,3.1-2.9,4.8-2.9c2,0,3.4,1.1,4.4,3.2c1,2.1,1.4,4.7,1.4,7.6c0,1.5-0.1,2.5-0.2,3.2c-0.4,3.1-1.4,5.6-2.8,7.4
			C301.1,67.7,299.5,68.6,297.7,68.6L297.7,68.6z M295.8,103.8c-3.8,0-6.9-0.9-9.3-2.7c-2.4-1.8-3.6-4.1-3.6-6.9
			c0-2.3,0.7-4.3,2.1-5.9c1.4-1.6,3.4-3.2,5.9-4.8c1.1,0.7,2.6,1.5,4.5,2.4c3.4,1.8,6,3.4,7.7,4.8c1.7,1.4,2.6,3.3,2.6,5.6
			c0,2.2-0.9,4-2.6,5.4C301.5,103.1,299.1,103.8,295.8,103.8L295.8,103.8z"></path>
	</g>
	<g>
		<path class="st0 sxLBjjUp_18" d="M387.7,20.5h-36.8c-0.2,0-0.3,0.2-0.3,0.6c0,0.4,0.1,0.6,0.3,0.6c2.2,0,3.6,0.2,4.5,0.7
			c0.8,0.5,1.2,1.4,1.2,2.7c0,1-0.1,2.1-0.4,3.1l-7.7,44c-0.4,1.9-0.8,3.3-1.3,4.2s-1.2,1.5-2.1,1.9c-1,0.3-2.4,0.5-4.4,0.5
			c-0.2,0-0.3,0.2-0.3,0.6c0,0.4,0.1,0.6,0.3,0.6c1.7,0,3,0,4-0.1l5.7-0.1l9.2,0.1c1.1,0.1,2.6,0.1,4.4,0.1c0.1,0,0.2-0.2,0.2-0.6
			c0-0.4-0.1-0.6-0.2-0.6c-3.5,0-5.9-0.3-7.2-0.9c-1.2-0.6-1.9-1.7-1.9-3.3c0-0.8,0.1-1.7,0.3-2.8l3.6-20.6h11
			c2.2,0,3.8,0.4,4.9,1.3c1,0.9,1.6,2.3,1.6,4.2c0,1-0.1,1.8-0.2,2.5c-0.1,0.3,0.1,0.4,0.5,0.4h0.1c0.3,0,0.5-0.1,0.5-0.3l1.4-9.1
			c0.8-3.7,1.3-6.4,1.5-7.9c0.1-0.3-0.1-0.4-0.5-0.4h-0.1c-0.3,0-0.5,0.1-0.5,0.3c-0.4,2.5-1.3,4.2-2.7,5.3s-3.3,1.6-5.9,1.6h-11.2
			l3.7-20.7c0.3-1.8,0.7-3.2,1.1-4s1.1-1.4,2-1.7s2.4-0.5,4.3-0.5h5.9c2.9,0,5.2,1,6.7,3.1c1.6,2.1,2.3,4.8,2.1,8.1
			c-0.1,0.2,0.1,0.3,0.5,0.4c0.1,0,0.1,0,0.2,0c0.3,0,0.4-0.1,0.5-0.3l0.7-4.4l1.1-7.7C388.3,20.8,388.2,20.5,387.7,20.5L387.7,20.5
			z"></path>
	</g>
	<g>
		<path class="st0 sxLBjjUp_19" d="M416.9,41c-0.1,0-0.3,0.1-0.4,0.2c-0.4,1.2-1.3,2.3-2.5,3.3c-1.6-1.7-3.8-2.6-6.5-2.6
			c-3.3,0-6.8,1.5-10.5,4.5s-7,6.8-9.7,11.4c-2.8,4.6-4.5,9.1-5.1,13.4c-0.1,1.3-0.2,2.2-0.2,2.8c0,2.4,0.5,4.2,1.6,5.4
			c1,1.2,2.5,1.8,4.4,1.8c3.4,0,6.8-1.7,10.4-5c3.5-3.4,6.7-7.9,9.4-13.7l-1.5,9c-0.3,2-0.5,3.5-0.5,4.6c0,1.6,0.3,2.9,0.9,3.6
			c0.6,0.8,1.5,1.1,2.8,1.1c1.6,0,3.2-0.6,4.9-1.9c1.7-1.2,3.6-3.1,5.7-5.6c0.1-0.1,0.1-0.3,0-0.5s-0.3-0.3-0.5-0.3
			c-0.1,0-0.2,0-0.3,0.1c-2.6,2.7-4.6,4.1-5.9,4.1c-1.1,0-1.6-0.9-1.6-2.7c0-0.8,0.1-1.6,0.3-2.6l5.5-30c0.1-0.1,0-0.1-0.2-0.2
			C417.3,41,417.1,41,416.9,41L416.9,41z M392.3,75.7c-2.7,0-4-2-4-5.9c0-0.6,0.1-2,0.4-4c0.6-3.8,1.6-7.2,3.2-10.3
			c1.6-3,3.5-5.4,5.6-7.2c2.2-1.7,4.3-2.6,6.5-2.6c1.8,0,3.1,0.5,4.1,1.6s1.4,2.5,1.4,4.4c0,0.8-0.1,1.7-0.3,2.6
			c-0.6,3.1-1.9,6.3-3.8,9.7c-1.9,3.4-4,6.1-6.4,8.4C396.8,74.6,394.5,75.7,392.3,75.7L392.3,75.7z"></path>
	</g>
	<g>
		<path class="st0 sxLBjjUp_20" d="M474.4,41.9c-3.2,0-6.2,1.7-9.2,5c-2.9,3.4-5.5,8.1-7.7,14.2l1.2-6.7c0.4-2,0.6-3.7,0.6-5.1
			c0-4.9-2-7.3-5.9-7.3c-3.2,0-6.2,1.7-9.2,5c-2.9,3.4-5.5,8-7.6,14.1l1.7-9.9c0.3-1.9,0.5-3.3,0.5-4.3c0-1.6-0.3-2.7-0.9-3.5
			c-0.6-0.7-1.5-1.1-2.8-1.1c-1.7,0-3.5,0.6-5.3,1.8s-3.8,3.1-6,5.6c-0.1,0.1-0.1,0.3,0,0.5s0.3,0.3,0.5,0.3c0.1,0,0.2,0,0.3-0.1
			c2.7-2.8,4.8-4.2,6.3-4.2c1.2,0,1.8,1,1.8,2.9c0,0.6-0.1,1.4-0.3,2.4L428.5,73l-1,4.7l-0.5,2.2c0,0.4,0.8,0.7,2.5,0.7
			c2.2,0,3.5-0.5,3.8-1.6l0.2-1c1.1-6.5,2.6-12.1,4.5-16.9c1.8-4.8,3.8-8.5,5.8-11c2.1-2.5,4-3.8,5.8-3.8c2.2,0,3.3,1.8,3.3,5.4
			c0,1.5-0.1,3-0.4,4.6l-3.1,16.6c-0.2,1.2-0.5,2.6-0.8,4.2c-0.3,1.6-0.6,2.6-0.6,2.9c0,0.4,0.8,0.7,2.5,0.7c1.1,0,2-0.1,2.7-0.4
			c0.6-0.3,1-0.7,1-1.2l0.4-2.1c1.2-6.4,2.7-11.9,4.6-16.6c1.8-4.7,3.8-8.2,5.7-10.5c2-2.4,3.9-3.6,5.7-3.6c2.2,0,3.3,1.7,3.3,5.1
			c0,1.2-0.2,2.9-0.5,4.9l-2.6,15.1c-0.3,2.1-0.5,3.7-0.5,4.8c0,1.6,0.3,2.7,0.9,3.5c0.6,0.7,1.5,1.1,2.8,1.1c1.6,0,3.3-0.6,5-1.8
			s3.6-3.1,5.7-5.6c0.2-0.2,0.2-0.4,0.1-0.6s-0.3-0.3-0.5-0.3c-0.1,0-0.3,0.1-0.4,0.2c-1.4,1.3-2.6,2.3-3.5,3s-1.7,1-2.4,1
			c-1.1,0-1.7-0.9-1.7-2.8c0-0.7,0.1-1.5,0.3-2.5l3-16.9c0.4-2,0.6-3.8,0.6-5.3C480.2,44.3,478.3,41.9,474.4,41.9L474.4,41.9z"></path>
	</g>
	<g>
		<path class="st0 sxLBjjUp_21" d="M502.7,22.7c-1.4,0-2.5,0.4-3.3,1.1c-0.8,0.8-1.2,1.8-1.2,3.1c0,1.4,0.4,2.5,1.2,3.3c0.8,0.8,1.9,1.2,3.3,1.2
			c1.5,0,2.6-0.4,3.3-1.2c0.8-0.8,1.1-1.9,1.1-3.3c0-1.3-0.4-2.4-1.2-3.1C505.2,23.1,504.1,22.7,502.7,22.7L502.7,22.7z M500,42.3
			c-3.2,0-6.9,2.5-11.1,7.4c-0.2,0.1-0.2,0.3,0,0.5s0.3,0.3,0.5,0.3c0.1,0,0.2,0,0.3-0.1c1.3-1.3,2.4-2.4,3.5-3.1
			c1.1-0.7,2-1.1,2.7-1.1c1.2,0,1.8,1,1.8,2.9c0,0.7-0.1,1.5-0.3,2.5l-3.9,19.8c-0.4,1.8-0.6,3.3-0.6,4.7c0,3.1,1.3,4.7,3.8,4.7
			c1.6,0,3.3-0.6,5.1-1.8c1.7-1.2,3.7-3,5.7-5.5c0.2-0.1,0.2-0.3,0.1-0.5s-0.3-0.3-0.6-0.3c-0.1,0-0.2,0-0.3,0.1c-2.5,2.7-4.5,4-6,4
			c-1.1,0-1.7-0.9-1.7-2.8c0-0.7,0.1-1.5,0.3-2.5l3.9-20.2c0.3-1.5,0.5-2.9,0.5-4.4s-0.3-2.6-0.9-3.4
			C502.2,42.7,501.2,42.3,500,42.3L500,42.3z"></path>
	</g>
	<g>
		<path class="st0 sxLBjjUp_22" d="M531.3,11h-0.2L518,17.4c-0.3,0.1-0.3,0.3-0.2,0.6c0.1,0.3,0.3,0.5,0.6,0.5h0.1c1.9-0.9,3.4-1.4,4.4-1.4
			c1.3,0,1.9,0.8,1.9,2.5c0,0.6-0.1,1.4-0.3,2.4l-9.1,49.5c-0.4,1.9-0.6,3.5-0.6,4.7c0,1.6,0.3,2.8,0.9,3.5c0.6,0.8,1.6,1.1,2.9,1.1
			c1.6,0,3.3-0.6,5-1.8c1.7-1.2,3.6-3.1,5.7-5.6c0.2-0.2,0.2-0.4,0.1-0.6c-0.1-0.2-0.3-0.3-0.5-0.3c-0.1,0-0.3,0.1-0.4,0.2
			c-1.4,1.3-2.6,2.3-3.5,3c-1,0.7-1.7,1-2.4,1c-1.1,0-1.7-0.9-1.7-2.8c0-0.7,0.1-1.5,0.3-2.5l10.9-59.7c0.1-0.1,0-0.3-0.2-0.5
			C531.8,11.1,531.6,11,531.3,11L531.3,11z"></path>
	</g>
	<g>
		<path class="st0 sxLBjjUp_23" d="M549,22.7c-1.4,0-2.5,0.4-3.3,1.1c-0.8,0.8-1.2,1.8-1.2,3.1c0,1.4,0.4,2.5,1.2,3.3s1.9,1.2,3.3,1.2
			c1.5,0,2.6-0.4,3.3-1.2c0.8-0.8,1.1-1.9,1.1-3.3c0-1.3-0.4-2.4-1.2-3.1C551.5,23.1,550.4,22.7,549,22.7L549,22.7z M546.2,42.3
			c-3.2,0-6.9,2.5-11.1,7.4c-0.2,0.1-0.2,0.3,0,0.5s0.3,0.3,0.5,0.3c0.1,0,0.2,0,0.3-0.1c1.3-1.3,2.4-2.4,3.5-3.1
			c1.1-0.7,2-1.1,2.7-1.1c1.2,0,1.8,1,1.8,2.9c0,0.7-0.1,1.5-0.3,2.5l-3.9,19.8c-0.4,1.8-0.6,3.3-0.6,4.7c0,3.1,1.3,4.7,3.8,4.7
			c1.6,0,3.3-0.6,5.1-1.8c1.7-1.2,3.7-3,5.7-5.5c0.2-0.1,0.2-0.3,0.1-0.5c-0.1-0.2-0.3-0.3-0.6-0.3c-0.1,0-0.2,0-0.3,0.1
			c-2.5,2.7-4.5,4-6,4c-1.1,0-1.7-0.9-1.7-2.8c0-0.7,0.1-1.5,0.3-2.5l3.9-20.2c0.3-1.5,0.5-2.9,0.5-4.4s-0.3-2.6-0.9-3.4
			C548.4,42.7,547.5,42.3,546.2,42.3L546.2,42.3z"></path>
	</g>
	<g>
		<path class="st0 sxLBjjUp_24" d="M581.1,41.9c-3.5,0-6.9,1-10.1,3c-3.2,2-5.8,4.6-7.9,7.7c-2.1,3.1-3.5,6.4-4.1,9.6c-0.3,1.8-0.5,3.4-0.5,4.8
			c0,4.1,1,7.5,3.1,10.1c2.1,2.6,5.2,3.9,9.4,3.9c4.9,0,9.7-1.9,14.2-5.8c0.1-0.2,0.1-0.4,0-0.6c-0.2-0.2-0.3-0.3-0.5-0.3h-0.1
			c-2.7,2.1-5.7,3.1-9.2,3.1c-3.2,0-5.7-1.2-7.4-3.5s-2.5-5.4-2.5-9.3c0-1.8,0.1-3.4,0.4-4.9c6.1-1.1,11.4-2.8,15.7-5.3
			c4.3-2.4,6.5-5.1,6.5-8.1c0-1.3-0.6-2.4-1.8-3.2C585,42.3,583.3,41.9,581.1,41.9L581.1,41.9z M566,58.4c0.8-4.1,2.2-7.5,4-10
			c1.8-2.6,4.1-3.8,6.6-3.8c1.1,0,2.1,0.3,2.9,0.9c0.8,0.6,1.2,1.4,1.2,2.5c0,0.2-0.1,0.6-0.2,1.2C579.6,53.6,574.7,56.7,566,58.4
			L566,58.4z"></path>
	</g>
	<g>
		<path class="st0 sxLBjjUp_25" d="M608.2,42.2c-2.3,0-4.5,0.5-6.5,1.5c-2.1,1-3.7,2.3-4.9,4s-1.9,3.6-1.9,5.6c0,1.8,0.5,3.4,1.6,4.8
			c1.1,1.3,2.7,2.9,4.8,4.6c2.2,1.8,3.8,3.3,4.8,4.7c1,1.3,1.6,2.9,1.6,4.8c0,0.6,0,1-0.1,1.2c-0.4,3.4-2.2,5.1-5.2,5.1
			c-1.5,0-2.6-0.3-3.4-1c-0.8-0.7-1.6-1.7-2.3-2.9c-0.6-1-1.2-1.7-1.6-2.1c-0.4-0.4-1-0.6-1.7-0.6c-0.9,0-1.8,0.3-2.4,0.9
			c-0.7,0.6-1,1.5-1,2.7c0,1.5,0.9,2.8,2.7,3.9c1.8,1.1,3.9,1.7,6.3,1.7c2.6,0,5-0.6,7.1-1.9s3.8-2.9,5-4.8c1.2-2,1.9-3.9,1.9-5.8
			c0-1.9-0.6-3.6-1.7-5c-1.1-1.4-2.8-3.1-5-5c-2-1.7-3.6-3.2-4.6-4.6c-1-1.3-1.6-2.9-1.6-4.6c0-0.6,0-1,0.1-1.2
			c0.1-1.1,0.6-1.9,1.4-2.6c0.8-0.6,1.8-0.9,3-0.9s2.1,0.3,2.8,0.8s1.3,1.3,1.9,2.3c0.6,0.9,1.1,1.6,1.6,2c0.5,0.4,1.2,0.7,2.2,0.7
			c0.8,0,1.5-0.3,2.1-0.8s1-1.3,1.2-2.2c0.2-1.5-0.5-2.7-2.1-3.6C612.7,42.7,610.6,42.2,608.2,42.2L608.2,42.2z"></path>
	</g>
	<path class="st1 sxLBjjUp_26" d="M25.8,122.4L25.8,122.4c0-0.1,0-0.1,0-0.1l-3.9,0.1c-2.5,0.1-4.5,0.2-6,0.2"></path>
</g>
<style data-made-with="vivus-instant">.sxLBjjUp_0{stroke-dasharray:362 364;stroke-dashoffset:363;animation:sxLBjjUp_draw 2000ms linear 0ms forwards;}.sxLBjjUp_1{stroke-dasharray:229 231;stroke-dashoffset:230;animation:sxLBjjUp_draw 2000ms linear 38ms forwards;}.sxLBjjUp_2{stroke-dasharray:160 162;stroke-dashoffset:161;animation:sxLBjjUp_draw 2000ms linear 76ms forwards;}.sxLBjjUp_3{stroke-dasharray:190 192;stroke-dashoffset:191;animation:sxLBjjUp_draw 2000ms linear 115ms forwards;}.sxLBjjUp_4{stroke-dasharray:180 182;stroke-dashoffset:181;animation:sxLBjjUp_draw 2000ms linear 153ms forwards;}.sxLBjjUp_5{stroke-dasharray:150 152;stroke-dashoffset:151;animation:sxLBjjUp_draw 2000ms linear 192ms forwards;}.sxLBjjUp_6{stroke-dasharray:255 257;stroke-dashoffset:256;animation:sxLBjjUp_draw 2000ms linear 230ms forwards;}.sxLBjjUp_7{stroke-dasharray:245 247;stroke-dashoffset:246;animation:sxLBjjUp_draw 2000ms linear 269ms forwards;}.sxLBjjUp_8{stroke-dasharray:150 152;stroke-dashoffset:151;animation:sxLBjjUp_draw 2000ms linear 307ms forwards;}.sxLBjjUp_9{stroke-dasharray:289 291;stroke-dashoffset:290;animation:sxLBjjUp_draw 2000ms linear 346ms forwards;}.sxLBjjUp_10{stroke-dasharray:190 192;stroke-dashoffset:191;animation:sxLBjjUp_draw 2000ms linear 384ms forwards;}.sxLBjjUp_11{stroke-dasharray:414 416;stroke-dashoffset:415;animation:sxLBjjUp_draw 2000ms linear 423ms forwards;}.sxLBjjUp_12{stroke-dasharray:190 192;stroke-dashoffset:191;animation:sxLBjjUp_draw 2000ms linear 461ms forwards;}.sxLBjjUp_13{stroke-dasharray:180 182;stroke-dashoffset:181;animation:sxLBjjUp_draw 2000ms linear 500ms forwards;}.sxLBjjUp_14{stroke-dasharray:305 307;stroke-dashoffset:306;animation:sxLBjjUp_draw 2000ms linear 538ms forwards;}.sxLBjjUp_15{stroke-dasharray:150 152;stroke-dashoffset:151;animation:sxLBjjUp_draw 2000ms linear 576ms forwards;}.sxLBjjUp_16{stroke-dasharray:255 257;stroke-dashoffset:256;animation:sxLBjjUp_draw 2000ms linear 615ms forwards;}.sxLBjjUp_17{stroke-dasharray:348 350;stroke-dashoffset:349;animation:sxLBjjUp_draw 2000ms linear 653ms forwards;}.sxLBjjUp_18{stroke-dasharray:304 306;stroke-dashoffset:305;animation:sxLBjjUp_draw 2000ms linear 692ms forwards;}.sxLBjjUp_19{stroke-dasharray:256 258;stroke-dashoffset:257;animation:sxLBjjUp_draw 2000ms linear 730ms forwards;}.sxLBjjUp_20{stroke-dasharray:384 386;stroke-dashoffset:385;animation:sxLBjjUp_draw 2000ms linear 769ms forwards;}.sxLBjjUp_21{stroke-dasharray:150 152;stroke-dashoffset:151;animation:sxLBjjUp_draw 2000ms linear 807ms forwards;}.sxLBjjUp_22{stroke-dasharray:180 182;stroke-dashoffset:181;animation:sxLBjjUp_draw 2000ms linear 846ms forwards;}.sxLBjjUp_23{stroke-dasharray:150 152;stroke-dashoffset:151;animation:sxLBjjUp_draw 2000ms linear 884ms forwards;}.sxLBjjUp_24{stroke-dasharray:190 192;stroke-dashoffset:191;animation:sxLBjjUp_draw 2000ms linear 923ms forwards;}.sxLBjjUp_25{stroke-dasharray:160 162;stroke-dashoffset:161;animation:sxLBjjUp_draw 2000ms linear 961ms forwards;}.sxLBjjUp_26{stroke-dasharray:11 13;stroke-dashoffset:12;animation:sxLBjjUp_draw 2000ms linear 1000ms forwards;}@keyframes sxLBjjUp_draw{100%{stroke-dashoffset:0;}}@keyframes sxLBjjUp_fade{0%{stroke-opacity:1;}94.44444444444444%{stroke-opacity:1;}100%{stroke-opacity:0;}}</style></svg>
